solid automaticSTL
  facet normal 0.0000000000 -0.5701914169 -0.8215118673
    outer loop
      vertex -0.4450000000 -0.1650350000 0.1241510000
      vertex -0.1950000000 -0.1650350000 0.1241510000
      vertex -0.4450000000 -0.1941188680 0.1443374058
    endloop
  endfacet
  facet normal 0.0000000000 -0.5701914169 -0.8215118673
    outer loop
      vertex -0.1950000000 -0.1650350000 0.1241510000
      vertex -0.1950000000 -0.1941188680 0.1443374058
      vertex -0.4450000000 -0.1941188680 0.1443374058
    endloop
  endfacet
  facet normal -1.0000000000 0.0000000000 0.0000000000
    outer loop
      vertex -0.1950000000 -0.1650350000 0.1241510000
      vertex -0.1950000000 -0.1900350000 0.0808494000
      vertex -0.1950000000 -0.1941188680 0.1443374058
    endloop
  endfacet
  facet normal -1.0000000000 0.0000000000 -0.0000000000
    outer loop
      vertex -0.1950000000 -0.1900350000 0.0808494000
      vertex -0.1950000000 -0.2500000000 0.1091132588
      vertex -0.1950000000 -0.1941188680 0.1443374058
    endloop
  endfacet
  facet normal -1.0000000000 0.0000000000 0.0000000000
    outer loop
      vertex -0.1950000000 -0.1941188680 0.1443374058
      vertex -0.1950000000 -0.2500000000 0.1091132588
      vertex -0.1950000000 -0.2500000000 0.1443374058
    endloop
  endfacet
  facet normal 1.0000000000 0.0000000000 0.0000000000
    outer loop
      vertex -0.4450000000 -0.2500000000 0.1443374058
      vertex -0.4450000000 -0.2500000000 0.1091132588
      vertex -0.4450000000 -0.1941188680 0.1443374058
    endloop
  endfacet
  facet normal 1.0000000000 0.0000000000 0.0000000000
    outer loop
      vertex -0.4450000000 -0.2500000000 0.1091132588
      vertex -0.4450000000 -0.1900350000 0.0808494000
      vertex -0.4450000000 -0.1941188680 0.1443374058
    endloop
  endfacet
  facet normal 1.0000000000 0.0000000000 0.0000000000
    outer loop
      vertex -0.4450000000 -0.1941188680 0.1443374058
      vertex -0.4450000000 -0.1900350000 0.0808494000
      vertex -0.4450000000 -0.1650350000 0.1241510000
    endloop
  endfacet
  facet normal 0.0000000000 -0.8660270528 0.4999971438
    outer loop
      vertex -0.4450000000 -0.1650350000 0.1241510000
      vertex -0.4450000000 -0.1900350000 0.0808494000
      vertex -0.1950000000 -0.1650350000 0.1241510000
    endloop
  endfacet
  facet normal 0.0000000000 -0.8660270528 0.4999971438
    outer loop
      vertex -0.4450000000 -0.1900350000 0.0808494000
      vertex -0.1950000000 -0.1900350000 0.0808494000
      vertex -0.1950000000 -0.1650350000 0.1241510000
    endloop
  endfacet
  facet normal 0.0000000000 0.4263531336 0.9045568006
    outer loop
      vertex -0.4450000000 -0.1900350000 0.0808494000
      vertex -0.4450000000 -0.2500000000 0.1091132588
      vertex -0.1950000000 -0.1900350000 0.0808494000
    endloop
  endfacet
  facet normal 0.0000000000 0.4263531336 0.9045568006
    outer loop
      vertex -0.4450000000 -0.2500000000 0.1091132588
      vertex -0.1950000000 -0.2500000000 0.1091132588
      vertex -0.1950000000 -0.1900350000 0.0808494000
    endloop
  endfacet
  facet normal 0.0000000000 -0.5701914169 -0.8215118673
    outer loop
      vertex -0.1750000000 -0.1650350000 0.1241510000
      vertex 0.1750000000 -0.1650350000 0.1241510000
      vertex -0.1750000000 -0.1941188680 0.1443374058
    endloop
  endfacet
  facet normal 0.0000000000 -0.5701914169 -0.8215118673
    outer loop
      vertex 0.1750000000 -0.1650350000 0.1241510000
      vertex 0.1750000000 -0.1941188680 0.1443374058
      vertex -0.1750000000 -0.1941188680 0.1443374058
    endloop
  endfacet
  facet normal -1.0000000000 0.0000000000 0.0000000000
    outer loop
      vertex 0.1750000000 -0.1650350000 0.1241510000
      vertex 0.1750000000 -0.1900350000 0.0808494000
      vertex 0.1750000000 -0.1941188680 0.1443374058
    endloop
  endfacet
  facet normal -1.0000000000 0.0000000000 -0.0000000000
    outer loop
      vertex 0.1750000000 -0.1900350000 0.0808494000
      vertex 0.1750000000 -0.2500000000 0.1091132588
      vertex 0.1750000000 -0.1941188680 0.1443374058
    endloop
  endfacet
  facet normal -1.0000000000 0.0000000000 -0.0000000000
    outer loop
      vertex 0.1750000000 -0.1941188680 0.1443374058
      vertex 0.1750000000 -0.2500000000 0.1091132588
      vertex 0.1750000000 -0.2500000000 0.1443374058
    endloop
  endfacet
  facet normal 1.0000000000 0.0000000000 0.0000000000
    outer loop
      vertex -0.1750000000 -0.2500000000 0.1443374058
      vertex -0.1750000000 -0.2500000000 0.1091132588
      vertex -0.1750000000 -0.1941188680 0.1443374058
    endloop
  endfacet
  facet normal 1.0000000000 0.0000000000 0.0000000000
    outer loop
      vertex -0.1750000000 -0.2500000000 0.1091132588
      vertex -0.1750000000 -0.1900350000 0.0808494000
      vertex -0.1750000000 -0.1941188680 0.1443374058
    endloop
  endfacet
  facet normal 1.0000000000 0.0000000000 0.0000000000
    outer loop
      vertex -0.1750000000 -0.1941188680 0.1443374058
      vertex -0.1750000000 -0.1900350000 0.0808494000
      vertex -0.1750000000 -0.1650350000 0.1241510000
    endloop
  endfacet
  facet normal 0.0000000000 0.4263531336 0.9045568006
    outer loop
      vertex -0.1750000000 -0.1900350000 0.0808494000
      vertex -0.1750000000 -0.2500000000 0.1091132588
      vertex 0.1750000000 -0.1900350000 0.0808494000
    endloop
  endfacet
  facet normal 0.0000000000 0.4263531336 0.9045568006
    outer loop
      vertex -0.1750000000 -0.2500000000 0.1091132588
      vertex 0.1750000000 -0.2500000000 0.1091132588
      vertex 0.1750000000 -0.1900350000 0.0808494000
    endloop
  endfacet
  facet normal 0.0000000000 -0.8660270528 0.4999971438
    outer loop
      vertex -0.1750000000 -0.1650350000 0.1241510000
      vertex -0.1750000000 -0.1900350000 0.0808494000
      vertex 0.1750000000 -0.1650350000 0.1241510000
    endloop
  endfacet
  facet normal 0.0000000000 -0.8660270528 0.4999971438
    outer loop
      vertex -0.1750000000 -0.1900350000 0.0808494000
      vertex 0.1750000000 -0.1900350000 0.0808494000
      vertex 0.1750000000 -0.1650350000 0.1241510000
    endloop
  endfacet
  facet normal 0.0000000000 -0.5701914169 -0.8215118673
    outer loop
      vertex 0.1950000000 -0.1650350000 0.1241510000
      vertex 0.4450000000 -0.1650350000 0.1241510000
      vertex 0.1950000000 -0.1941188680 0.1443374058
    endloop
  endfacet
  facet normal 0.0000000000 -0.5701914169 -0.8215118673
    outer loop
      vertex 0.4450000000 -0.1650350000 0.1241510000
      vertex 0.4450000000 -0.1941188680 0.1443374058
      vertex 0.1950000000 -0.1941188680 0.1443374058
    endloop
  endfacet
  facet normal -1.0000000000 0.0000000000 0.0000000000
    outer loop
      vertex 0.4450000000 -0.1650350000 0.1241510000
      vertex 0.4450000000 -0.1900350000 0.0808494000
      vertex 0.4450000000 -0.1941188680 0.1443374058
    endloop
  endfacet
  facet normal -1.0000000000 0.0000000000 -0.0000000000
    outer loop
      vertex 0.4450000000 -0.1900350000 0.0808494000
      vertex 0.4450000000 -0.2500000000 0.1091132588
      vertex 0.4450000000 -0.1941188680 0.1443374058
    endloop
  endfacet
  facet normal -1.0000000000 0.0000000000 0.0000000000
    outer loop
      vertex 0.4450000000 -0.1941188680 0.1443374058
      vertex 0.4450000000 -0.2500000000 0.1091132588
      vertex 0.4450000000 -0.2500000000 0.1443374058
    endloop
  endfacet
  facet normal 1.0000000000 0.0000000000 0.0000000000
    outer loop
      vertex 0.1950000000 -0.2500000000 0.1443374058
      vertex 0.1950000000 -0.2500000000 0.1091132588
      vertex 0.1950000000 -0.1941188680 0.1443374058
    endloop
  endfacet
  facet normal 1.0000000000 0.0000000000 0.0000000000
    outer loop
      vertex 0.1950000000 -0.2500000000 0.1091132588
      vertex 0.1950000000 -0.1900350000 0.0808494000
      vertex 0.1950000000 -0.1941188680 0.1443374058
    endloop
  endfacet
  facet normal 1.0000000000 0.0000000000 0.0000000000
    outer loop
      vertex 0.1950000000 -0.1941188680 0.1443374058
      vertex 0.1950000000 -0.1900350000 0.0808494000
      vertex 0.1950000000 -0.1650350000 0.1241510000
    endloop
  endfacet
  facet normal 0.0000000000 0.4263531336 0.9045568006
    outer loop
      vertex 0.1950000000 -0.1900350000 0.0808494000
      vertex 0.1950000000 -0.2500000000 0.1091132588
      vertex 0.4450000000 -0.1900350000 0.0808494000
    endloop
  endfacet
  facet normal 0.0000000000 0.4263531336 0.9045568006
    outer loop
      vertex 0.1950000000 -0.2500000000 0.1091132588
      vertex 0.4450000000 -0.2500000000 0.1091132588
      vertex 0.4450000000 -0.1900350000 0.0808494000
    endloop
  endfacet
  facet normal 0.0000000000 -0.8660270528 0.4999971438
    outer loop
      vertex 0.1950000000 -0.1650350000 0.1241510000
      vertex 0.1950000000 -0.1900350000 0.0808494000
      vertex 0.4450000000 -0.1650350000 0.1241510000
    endloop
  endfacet
  facet normal 0.0000000000 -0.8660270528 0.4999971438
    outer loop
      vertex 0.1950000000 -0.1900350000 0.0808494000
      vertex 0.4450000000 -0.1900350000 0.0808494000
      vertex 0.4450000000 -0.1650350000 0.1241510000
    endloop
  endfacet
  facet normal 0.0000000000 -0.8660270528 -0.4999971438
    outer loop
      vertex 0.4450000000 -0.1650350000 -0.1241510000
      vertex 0.4450000000 -0.1900350000 -0.0808494000
      vertex 0.1950000000 -0.1650350000 -0.1241510000
    endloop
  endfacet
  facet normal 0.0000000000 -0.8660270528 -0.4999971438
    outer loop
      vertex 0.4450000000 -0.1900350000 -0.0808494000
      vertex 0.1950000000 -0.1900350000 -0.0808494000
      vertex 0.1950000000 -0.1650350000 -0.1241510000
    endloop
  endfacet
  facet normal 0.0000000000 -0.5701914169 0.8215118673
    outer loop
      vertex 0.1950000000 -0.1650350000 -0.1241510000
      vertex 0.1950000000 -0.1941188680 -0.1443374058
      vertex 0.4450000000 -0.1650350000 -0.1241510000
    endloop
  endfacet
  facet normal 0.0000000000 -0.5701914169 0.8215118673
    outer loop
      vertex 0.1950000000 -0.1941188680 -0.1443374058
      vertex 0.4450000000 -0.1941188680 -0.1443374058
      vertex 0.4450000000 -0.1650350000 -0.1241510000
    endloop
  endfacet
  facet normal 1.0000000000 0.0000000000 0.0000000000
    outer loop
      vertex 0.1950000000 -0.1650350000 -0.1241510000
      vertex 0.1950000000 -0.1900350000 -0.0808494000
      vertex 0.1950000000 -0.1941188680 -0.1443374058
    endloop
  endfacet
  facet normal 1.0000000000 0.0000000000 -0.0000000000
    outer loop
      vertex 0.1950000000 -0.1900350000 -0.0808494000
      vertex 0.1950000000 -0.2500000000 -0.1091132588
      vertex 0.1950000000 -0.1941188680 -0.1443374058
    endloop
  endfacet
  facet normal 1.0000000000 0.0000000000 0.0000000000
    outer loop
      vertex 0.1950000000 -0.1941188680 -0.1443374058
      vertex 0.1950000000 -0.2500000000 -0.1091132588
      vertex 0.1950000000 -0.2500000000 -0.1443374058
    endloop
  endfacet
  facet normal -1.0000000000 0.0000000000 0.0000000000
    outer loop
      vertex 0.4450000000 -0.2500000000 -0.1443374058
      vertex 0.4450000000 -0.2500000000 -0.1091132588
      vertex 0.4450000000 -0.1941188680 -0.1443374058
    endloop
  endfacet
  facet normal -1.0000000000 0.0000000000 0.0000000000
    outer loop
      vertex 0.4450000000 -0.2500000000 -0.1091132588
      vertex 0.4450000000 -0.1900350000 -0.0808494000
      vertex 0.4450000000 -0.1941188680 -0.1443374058
    endloop
  endfacet
  facet normal -1.0000000000 -0.0000000000 0.0000000000
    outer loop
      vertex 0.4450000000 -0.1941188680 -0.1443374058
      vertex 0.4450000000 -0.1900350000 -0.0808494000
      vertex 0.4450000000 -0.1650350000 -0.1241510000
    endloop
  endfacet
  facet normal 0.0000000000 0.4263531336 -0.9045568006
    outer loop
      vertex 0.4450000000 -0.1900350000 -0.0808494000
      vertex 0.4450000000 -0.2500000000 -0.1091132588
      vertex 0.1950000000 -0.1900350000 -0.0808494000
    endloop
  endfacet
  facet normal 0.0000000000 0.4263531336 -0.9045568006
    outer loop
      vertex 0.4450000000 -0.2500000000 -0.1091132588
      vertex 0.1950000000 -0.2500000000 -0.1091132588
      vertex 0.1950000000 -0.1900350000 -0.0808494000
    endloop
  endfacet
  facet normal 0.0000001878 -0.4263531336 0.9045568006
    outer loop
      vertex 0.4650000000 0.1900350000 0.0808494000
      vertex 0.5000000000 0.1900350000 0.0808493927
      vertex 0.4650000000 0.2500000000 0.1091132588
    endloop
  endfacet
  facet normal 0.0000000795 -0.4263531853 0.9045567762
    outer loop
      vertex 0.5000000000 0.1900350000 0.0808493927
      vertex 0.5000000000 0.2500000000 0.1091132557
      vertex 0.4650000000 0.2500000000 0.1091132588
    endloop
  endfacet
  facet normal 0.0000001038 -0.8660270528 -0.4999971438
    outer loop
      vertex 0.4650000000 -0.1900350000 -0.0808494000
      vertex 0.4650000000 -0.1650350000 -0.1241510000
      vertex 0.5000000000 -0.1900350000 -0.0808493927
    endloop
  endfacet
  facet normal -0.0000000000 -0.8660270891 -0.4999970809
    outer loop
      vertex 0.4650000000 -0.1650350000 -0.1241510000
      vertex 0.5000000000 -0.1650350000 -0.1241510000
      vertex 0.5000000000 -0.1900350000 -0.0808493927
    endloop
  endfacet
  facet normal 0.0000000000 -0.5701914169 0.8215118673
    outer loop
      vertex 0.4650000000 -0.1650350000 -0.1241510000
      vertex 0.4650000000 -0.1941188680 -0.1443374058
      vertex 0.5000000000 -0.1650350000 -0.1241510000
    endloop
  endfacet
  facet normal 0.0000000000 -0.5701914169 0.8215118673
    outer loop
      vertex 0.4650000000 -0.1941188680 -0.1443374058
      vertex 0.5000000000 -0.1941188680 -0.1443374058
      vertex 0.5000000000 -0.1650350000 -0.1241510000
    endloop
  endfacet
  facet normal 0.0000001878 0.4263531853 -0.9045567762
    outer loop
      vertex 0.5000000000 -0.1900350000 -0.0808493927
      vertex 0.5000000000 -0.2500000000 -0.1091132557
      vertex 0.4650000000 -0.1900350000 -0.0808494000
    endloop
  endfacet
  facet normal 0.0000000795 0.4263531336 -0.9045568006
    outer loop
      vertex 0.5000000000 -0.2500000000 -0.1091132557
      vertex 0.4650000000 -0.2500000000 -0.1091132588
      vertex 0.4650000000 -0.1900350000 -0.0808494000
    endloop
  endfacet
  facet normal 1.0000000000 0.0000000000 0.0000000000
    outer loop
      vertex 0.4650000000 0.2500000000 -0.1443374058
      vertex 0.4650000000 0.2500000000 -0.1091132588
      vertex 0.4650000000 0.1941188680 -0.1443374058
    endloop
  endfacet
  facet normal 1.0000000000 0.0000000000 -0.0000000000
    outer loop
      vertex 0.4650000000 0.2500000000 -0.1091132588
      vertex 0.4650000000 0.1900350000 -0.0808494000
      vertex 0.4650000000 0.1941188680 -0.1443374058
    endloop
  endfacet
  facet normal 1.0000000000 -0.0000000000 0.0000000000
    outer loop
      vertex 0.4650000000 0.1941188680 -0.1443374058
      vertex 0.4650000000 0.1900350000 -0.0808494000
      vertex 0.4650000000 0.1650350000 -0.1241510000
    endloop
  endfacet
  facet normal -0.0000000000 0.8660270528 -0.4999971438
    outer loop
      vertex 0.4650000000 0.1650350000 -0.1241510000
      vertex 0.4650000000 0.1900350000 -0.0808494000
      vertex 0.5000000000 0.1650350000 -0.1241510000
    endloop
  endfacet
  facet normal 0.0000001038 0.8660270891 -0.4999970809
    outer loop
      vertex 0.4650000000 0.1900350000 -0.0808494000
      vertex 0.5000000000 0.1900350000 -0.0808493927
      vertex 0.5000000000 0.1650350000 -0.1241510000
    endloop
  endfacet
  facet normal 0.0000000000 0.5701914169 -0.8215118673
    outer loop
      vertex 0.5000000000 0.1650350000 0.1241510000
      vertex 0.4650000000 0.1650350000 0.1241510000
      vertex 0.5000000000 0.1941188680 0.1443374058
    endloop
  endfacet
  facet normal 0.0000000000 0.5701914169 -0.8215118673
    outer loop
      vertex 0.4650000000 0.1650350000 0.1241510000
      vertex 0.4650000000 0.1941188680 0.1443374058
      vertex 0.5000000000 0.1941188680 0.1443374058
    endloop
  endfacet
  facet normal 0.0000001878 -0.4263531853 -0.9045567762
    outer loop
      vertex 0.5000000000 0.1900350000 -0.0808493927
      vertex 0.4650000000 0.1900350000 -0.0808494000
      vertex 0.5000000000 0.2500000000 -0.1091132557
    endloop
  endfacet
  facet normal 0.0000000795 -0.4263531336 -0.9045568006
    outer loop
      vertex 0.4650000000 0.1900350000 -0.0808494000
      vertex 0.4650000000 0.2500000000 -0.1091132588
      vertex 0.5000000000 0.2500000000 -0.1091132557
    endloop
  endfacet
  facet normal 1.0000000000 0.0000000000 0.0000000000
    outer loop
      vertex 0.4650000000 -0.2500000000 0.1443374058
      vertex 0.4650000000 -0.2500000000 0.1091132588
      vertex 0.4650000000 -0.1941188680 0.1443374058
    endloop
  endfacet
  facet normal 1.0000000000 0.0000000000 0.0000000000
    outer loop
      vertex 0.4650000000 -0.2500000000 0.1091132588
      vertex 0.4650000000 -0.1900350000 0.0808494000
      vertex 0.4650000000 -0.1941188680 0.1443374058
    endloop
  endfacet
  facet normal 1.0000000000 0.0000000000 0.0000000000
    outer loop
      vertex 0.4650000000 -0.1941188680 0.1443374058
      vertex 0.4650000000 -0.1900350000 0.0808494000
      vertex 0.4650000000 -0.1650350000 0.1241510000
    endloop
  endfacet
  facet normal 0.0000000000 -0.4263531336 -0.9045568006
    outer loop
      vertex 0.1750000000 0.1900350000 -0.0808494000
      vertex -0.1750000000 0.1900350000 -0.0808494000
      vertex 0.1750000000 0.2500000000 -0.1091132588
    endloop
  endfacet
  facet normal -0.0000000000 -0.4263531336 -0.9045568006
    outer loop
      vertex -0.1750000000 0.1900350000 -0.0808494000
      vertex -0.1750000000 0.2500000000 -0.1091132588
      vertex 0.1750000000 0.2500000000 -0.1091132588
    endloop
  endfacet
  facet normal -0.0000000000 -0.8660270528 0.4999971438
    outer loop
      vertex 0.4650000000 -0.1650350000 0.1241510000
      vertex 0.4650000000 -0.1900350000 0.0808494000
      vertex 0.5000000000 -0.1650350000 0.1241510000
    endloop
  endfacet
  facet normal 0.0000001038 -0.8660270891 0.4999970809
    outer loop
      vertex 0.4650000000 -0.1900350000 0.0808494000
      vertex 0.5000000000 -0.1900350000 0.0808493927
      vertex 0.5000000000 -0.1650350000 0.1241510000
    endloop
  endfacet
  facet normal 1.0000000000 0.0000000000 0.0000000000
    outer loop
      vertex -0.1750000000 0.2500000000 -0.1443374058
      vertex -0.1750000000 0.2500000000 -0.1091132588
      vertex -0.1750000000 0.1941188680 -0.1443374058
    endloop
  endfacet
  facet normal 1.0000000000 0.0000000000 -0.0000000000
    outer loop
      vertex -0.1750000000 0.2500000000 -0.1091132588
      vertex -0.1750000000 0.1900350000 -0.0808494000
      vertex -0.1750000000 0.1941188680 -0.1443374058
    endloop
  endfacet
  facet normal 1.0000000000 -0.0000000000 0.0000000000
    outer loop
      vertex -0.1750000000 0.1941188680 -0.1443374058
      vertex -0.1750000000 0.1900350000 -0.0808494000
      vertex -0.1750000000 0.1650350000 -0.1241510000
    endloop
  endfacet
  facet normal 0.0000000000 0.5701914169 0.8215118673
    outer loop
      vertex 0.5000000000 0.1650350000 -0.1241510000
      vertex 0.5000000000 0.1941188680 -0.1443374058
      vertex 0.4650000000 0.1650350000 -0.1241510000
    endloop
  endfacet
  facet normal 0.0000000000 0.5701914169 0.8215118673
    outer loop
      vertex 0.5000000000 0.1941188680 -0.1443374058
      vertex 0.4650000000 0.1941188680 -0.1443374058
      vertex 0.4650000000 0.1650350000 -0.1241510000
    endloop
  endfacet
  facet normal 0.0000001878 0.4263531336 0.9045568006
    outer loop
      vertex 0.4650000000 -0.1900350000 0.0808494000
      vertex 0.4650000000 -0.2500000000 0.1091132588
      vertex 0.5000000000 -0.1900350000 0.0808493927
    endloop
  endfacet
  facet normal 0.0000000795 0.4263531853 0.9045567762
    outer loop
      vertex 0.4650000000 -0.2500000000 0.1091132588
      vertex 0.5000000000 -0.2500000000 0.1091132557
      vertex 0.5000000000 -0.1900350000 0.0808493927
    endloop
  endfacet
  facet normal 1.0000000000 -0.0000000000 0.0000000000
    outer loop
      vertex 0.5000000000 0.2500000000 -0.1091132557
      vertex 0.5000000000 0.2500000000 0.1091132557
      vertex 0.5000000000 0.1900350000 -0.0808493927
    endloop
  endfacet
  facet normal 1.0000000000 0.0000000000 0.0000000000
    outer loop
      vertex 0.5000000000 0.2500000000 0.1091132557
      vertex 0.5000000000 0.1900350000 0.0808493927
      vertex 0.5000000000 0.1900350000 -0.0808493927
    endloop
  endfacet
  facet normal 1.0000000000 0.0000000000 0.0000000000
    outer loop
      vertex 0.5000000000 0.1900350000 -0.0808493927
      vertex 0.5000000000 0.1900350000 0.0808493927
      vertex 0.5000000000 0.1650350000 -0.1241510000
    endloop
  endfacet
  facet normal 1.0000000000 0.0000000000 0.0000000000
    outer loop
      vertex 0.5000000000 -0.2500000000 0.1091132557
      vertex 0.5000000000 -0.2500000000 -0.1091132557
      vertex 0.5000000000 -0.1900350000 0.0808493927
    endloop
  endfacet
  facet normal 1.0000000000 0.0000000000 0.0000000000
    outer loop
      vertex 0.5000000000 -0.2500000000 -0.1091132557
      vertex 0.5000000000 -0.1900350000 -0.0808493927
      vertex 0.5000000000 -0.1900350000 0.0808493927
    endloop
  endfacet
  facet normal 1.0000000000 0.0000000000 0.0000000000
    outer loop
      vertex 0.5000000000 -0.1900350000 0.0808493927
      vertex 0.5000000000 -0.1900350000 -0.0808493927
      vertex 0.5000000000 -0.1650350000 0.1241510000
    endloop
  endfacet
  facet normal 1.0000000000 0.0000000000 -0.0000000000
    outer loop
      vertex 0.5000000000 0.1941188680 0.1443374058
      vertex 0.5000000000 -0.1941188680 0.1443374058
      vertex 0.5000000000 0.1650350000 0.1241510000
    endloop
  endfacet
  facet normal 1.0000000000 0.0000000000 0.0000000000
    outer loop
      vertex 0.5000000000 -0.1941188680 0.1443374058
      vertex 0.5000000000 -0.1650350000 0.1241510000
      vertex 0.5000000000 0.1650350000 0.1241510000
    endloop
  endfacet
  facet normal 1.0000000000 0.0000000000 0.0000000000
    outer loop
      vertex 0.5000000000 0.1650350000 0.1241510000
      vertex 0.5000000000 -0.1650350000 0.1241510000
      vertex 0.5000000000 0.1900350000 0.0808493927
    endloop
  endfacet
  facet normal 1.0000000000 0.0000000000 0.0000000000
    outer loop
      vertex 0.5000000000 -0.1650350000 0.1241510000
      vertex 0.5000000000 -0.1900350000 -0.0808493927
      vertex 0.5000000000 0.1900350000 0.0808493927
    endloop
  endfacet
  facet normal 1.0000000000 0.0000000000 -0.0000000000
    outer loop
      vertex 0.5000000000 0.1900350000 0.0808493927
      vertex 0.5000000000 -0.1900350000 -0.0808493927
      vertex 0.5000000000 0.1650350000 -0.1241510000
    endloop
  endfacet
  facet normal 1.0000000000 0.0000000000 0.0000000000
    outer loop
      vertex 0.5000000000 -0.1900350000 -0.0808493927
      vertex 0.5000000000 -0.1650350000 -0.1241510000
      vertex 0.5000000000 0.1650350000 -0.1241510000
    endloop
  endfacet
  facet normal 1.0000000000 0.0000000000 0.0000000000
    outer loop
      vertex 0.5000000000 0.1650350000 -0.1241510000
      vertex 0.5000000000 -0.1650350000 -0.1241510000
      vertex 0.5000000000 0.1941188680 -0.1443374058
    endloop
  endfacet
  facet normal 1.0000000000 0.0000000000 0.0000000000
    outer loop
      vertex 0.5000000000 -0.1650350000 -0.1241510000
      vertex 0.5000000000 -0.1941188680 -0.1443374058
      vertex 0.5000000000 0.1941188680 -0.1443374058
    endloop
  endfacet
  facet normal -1.0000000000 0.0000000000 0.0000000000
    outer loop
      vertex -0.4650000000 0.2500000000 0.1443374058
      vertex -0.4650000000 0.2500000000 0.1091132588
      vertex -0.4650000000 0.1941188680 0.1443374058
    endloop
  endfacet
  facet normal -1.0000000000 0.0000000000 -0.0000000000
    outer loop
      vertex -0.4650000000 0.2500000000 0.1091132588
      vertex -0.4650000000 0.1900350000 0.0808494000
      vertex -0.4650000000 0.1941188680 0.1443374058
    endloop
  endfacet
  facet normal -1.0000000000 0.0000000000 0.0000000000
    outer loop
      vertex -0.4650000000 0.1941188680 0.1443374058
      vertex -0.4650000000 0.1900350000 0.0808494000
      vertex -0.4650000000 0.1650350000 0.1241510000
    endloop
  endfacet
  facet normal -0.0000000000 0.5701914169 -0.8215118673
    outer loop
      vertex -0.4650000000 0.1650350000 0.1241510000
      vertex -0.5000000000 0.1650350000 0.1241510000
      vertex -0.4650000000 0.1941188680 0.1443374058
    endloop
  endfacet
  facet normal -0.0000000000 0.5701914169 -0.8215118673
    outer loop
      vertex -0.5000000000 0.1650350000 0.1241510000
      vertex -0.5000000000 0.1941188680 0.1443374058
      vertex -0.4650000000 0.1941188680 0.1443374058
    endloop
  endfacet
  facet normal -0.0000001878 -0.4263531853 0.9045567762
    outer loop
      vertex -0.5000000000 0.1900350000 0.0808493927
      vertex -0.4650000000 0.1900350000 0.0808494000
      vertex -0.5000000000 0.2500000000 0.1091132557
    endloop
  endfacet
  facet normal -0.0000000795 -0.4263531336 0.9045568006
    outer loop
      vertex -0.4650000000 0.1900350000 0.0808494000
      vertex -0.4650000000 0.2500000000 0.1091132588
      vertex -0.5000000000 0.2500000000 0.1091132557
    endloop
  endfacet
  facet normal -1.0000000000 0.0000000000 0.0000000000
    outer loop
      vertex -0.4650000000 -0.2500000000 -0.1443374058
      vertex -0.4650000000 -0.2500000000 -0.1091132588
      vertex -0.4650000000 -0.1941188680 -0.1443374058
    endloop
  endfacet
  facet normal -1.0000000000 0.0000000000 0.0000000000
    outer loop
      vertex -0.4650000000 -0.2500000000 -0.1091132588
      vertex -0.4650000000 -0.1900350000 -0.0808494000
      vertex -0.4650000000 -0.1941188680 -0.1443374058
    endloop
  endfacet
  facet normal -1.0000000000 -0.0000000000 0.0000000000
    outer loop
      vertex -0.4650000000 -0.1941188680 -0.1443374058
      vertex -0.4650000000 -0.1900350000 -0.0808494000
      vertex -0.4650000000 -0.1650350000 -0.1241510000
    endloop
  endfacet
  facet normal -0.0000001038 -0.8660270528 -0.4999971438
    outer loop
      vertex -0.4650000000 -0.1900350000 -0.0808494000
      vertex -0.5000000000 -0.1900350000 -0.0808493927
      vertex -0.4650000000 -0.1650350000 -0.1241510000
    endloop
  endfacet
  facet normal 0.0000000000 -0.8660270891 -0.4999970809
    outer loop
      vertex -0.5000000000 -0.1900350000 -0.0808493927
      vertex -0.5000000000 -0.1650350000 -0.1241510000
      vertex -0.4650000000 -0.1650350000 -0.1241510000
    endloop
  endfacet
  facet normal -1.0000000000 0.0000000000 0.0000000000
    outer loop
      vertex -0.5000000000 0.2500000000 0.1091132557
      vertex -0.5000000000 0.2500000000 -0.1091132557
      vertex -0.5000000000 0.1900350000 0.0808493927
    endloop
  endfacet
  facet normal -1.0000000000 0.0000000000 0.0000000000
    outer loop
      vertex -0.5000000000 0.2500000000 -0.1091132557
      vertex -0.5000000000 0.1900350000 -0.0808493927
      vertex -0.5000000000 0.1900350000 0.0808493927
    endloop
  endfacet
  facet normal -1.0000000000 0.0000000000 0.0000000000
    outer loop
      vertex -0.5000000000 0.1900350000 0.0808493927
      vertex -0.5000000000 0.1900350000 -0.0808493927
      vertex -0.5000000000 0.1650350000 0.1241510000
    endloop
  endfacet
  facet normal -1.0000000000 -0.0000000000 0.0000000000
    outer loop
      vertex -0.5000000000 -0.2500000000 -0.1091132557
      vertex -0.5000000000 -0.2500000000 0.1091132557
      vertex -0.5000000000 -0.1900350000 -0.0808493927
    endloop
  endfacet
  facet normal -1.0000000000 0.0000000000 0.0000000000
    outer loop
      vertex -0.5000000000 -0.2500000000 0.1091132557
      vertex -0.5000000000 -0.1900350000 0.0808493927
      vertex -0.5000000000 -0.1900350000 -0.0808493927
    endloop
  endfacet
  facet normal -1.0000000000 0.0000000000 0.0000000000
    outer loop
      vertex -0.5000000000 -0.1900350000 -0.0808493927
      vertex -0.5000000000 -0.1900350000 0.0808493927
      vertex -0.5000000000 -0.1650350000 -0.1241510000
    endloop
  endfacet
  facet normal -1.0000000000 0.0000000000 0.0000000000
    outer loop
      vertex -0.5000000000 -0.1941188680 0.1443374058
      vertex -0.5000000000 0.1941188680 0.1443374058
      vertex -0.5000000000 -0.1650350000 0.1241510000
    endloop
  endfacet
  facet normal -1.0000000000 0.0000000000 0.0000000000
    outer loop
      vertex -0.5000000000 0.1941188680 0.1443374058
      vertex -0.5000000000 0.1650350000 0.1241510000
      vertex -0.5000000000 -0.1650350000 0.1241510000
    endloop
  endfacet
  facet normal -1.0000000000 0.0000000000 0.0000000000
    outer loop
      vertex -0.5000000000 -0.1650350000 0.1241510000
      vertex -0.5000000000 0.1650350000 0.1241510000
      vertex -0.5000000000 -0.1900350000 0.0808493927
    endloop
  endfacet
  facet normal -1.0000000000 0.0000000000 0.0000000000
    outer loop
      vertex -0.5000000000 0.1650350000 0.1241510000
      vertex -0.5000000000 0.1900350000 -0.0808493927
      vertex -0.5000000000 -0.1900350000 0.0808493927
    endloop
  endfacet
  facet normal -1.0000000000 0.0000000000 0.0000000000
    outer loop
      vertex -0.5000000000 -0.1900350000 0.0808493927
      vertex -0.5000000000 0.1900350000 -0.0808493927
      vertex -0.5000000000 -0.1650350000 -0.1241510000
    endloop
  endfacet
  facet normal -1.0000000000 0.0000000000 0.0000000000
    outer loop
      vertex -0.5000000000 0.1900350000 -0.0808493927
      vertex -0.5000000000 0.1650350000 -0.1241510000
      vertex -0.5000000000 -0.1650350000 -0.1241510000
    endloop
  endfacet
  facet normal -1.0000000000 0.0000000000 0.0000000000
    outer loop
      vertex -0.5000000000 -0.1650350000 -0.1241510000
      vertex -0.5000000000 0.1650350000 -0.1241510000
      vertex -0.5000000000 -0.1941188680 -0.1443374058
    endloop
  endfacet
  facet normal -1.0000000000 0.0000000000 0.0000000000
    outer loop
      vertex -0.5000000000 0.1650350000 -0.1241510000
      vertex -0.5000000000 0.1941188680 -0.1443374058
      vertex -0.5000000000 -0.1941188680 -0.1443374058
    endloop
  endfacet
  facet normal 0.0000000000 0.8660270528 -0.4999971438
    outer loop
      vertex -0.4650000000 0.1650350000 -0.1241510000
      vertex -0.5000000000 0.1650350000 -0.1241510000
      vertex -0.4650000000 0.1900350000 -0.0808494000
    endloop
  endfacet
  facet normal -0.0000001038 0.8660270891 -0.4999970809
    outer loop
      vertex -0.5000000000 0.1650350000 -0.1241510000
      vertex -0.5000000000 0.1900350000 -0.0808493927
      vertex -0.4650000000 0.1900350000 -0.0808494000
    endloop
  endfacet
  facet normal 0.0000000000 -0.5701914169 -0.8215118673
    outer loop
      vertex 0.4650000000 -0.1650350000 0.1241510000
      vertex 0.5000000000 -0.1650350000 0.1241510000
      vertex 0.4650000000 -0.1941188680 0.1443374058
    endloop
  endfacet
  facet normal 0.0000000000 -0.5701914169 -0.8215118673
    outer loop
      vertex 0.5000000000 -0.1650350000 0.1241510000
      vertex 0.5000000000 -0.1941188680 0.1443374058
      vertex 0.4650000000 -0.1941188680 0.1443374058
    endloop
  endfacet
  facet normal 0.0000000000 1.0000000000 -0.0000000000
    outer loop
      vertex 0.4650000000 0.2500000000 0.1091132588
      vertex 0.5000000000 0.2500000000 0.1091132557
      vertex 0.5000000000 0.2500000000 -0.1091132557
    endloop
  endfacet
  facet normal 0.0000000000 1.0000000000 0.0000000000
    outer loop
      vertex -0.4650000000 0.2500000000 -0.1091132588
      vertex -0.5000000000 0.2500000000 -0.1091132557
      vertex -0.5000000000 0.2500000000 0.1091132557
    endloop
  endfacet
  facet normal -0.0000000000 1.0000000000 0.0000000000
    outer loop
      vertex -0.1950000000 0.2500000000 0.1091132588
      vertex 0.4450000000 0.2500000000 -0.1091132588
      vertex -0.4450000000 0.2500000000 0.1091132588
    endloop
  endfacet
  facet normal 0.0000000000 1.0000000000 0.0000000000
    outer loop
      vertex 0.4450000000 0.2500000000 -0.1091132588
      vertex 0.1950000000 0.2500000000 -0.1091132588
      vertex -0.4450000000 0.2500000000 0.1091132588
    endloop
  endfacet
  facet normal 0.0000000000 1.0000000000 -0.0000000000
    outer loop
      vertex 0.1750000000 0.2500000000 0.1091132588
      vertex 0.5000000000 0.2500000000 -0.1091132557
      vertex -0.1750000000 0.2500000000 0.1091132588
    endloop
  endfacet
  facet normal 0.0000000000 1.0000000000 -0.0000000000
    outer loop
      vertex 0.5000000000 0.2500000000 -0.1091132557
      vertex 0.4650000000 0.2500000000 -0.1091132588
      vertex -0.1750000000 0.2500000000 0.1091132588
    endloop
  endfacet
  facet normal 0.0000000000 1.0000000000 -0.0000000000
    outer loop
      vertex 0.4450000000 0.2500000000 0.1091132588
      vertex 0.4450000000 0.2500000000 0.1443374058
      vertex 0.4650000000 0.2500000000 0.1443374058
    endloop
  endfacet
  facet normal 0.0000000000 1.0000000000 0.0000000000
    outer loop
      vertex -0.1750000000 0.2500000000 -0.1091132588
      vertex -0.5000000000 0.2500000000 0.1091132557
      vertex 0.1750000000 0.2500000000 -0.1091132588
    endloop
  endfacet
  facet normal -0.0000000000 1.0000000000 0.0000000000
    outer loop
      vertex -0.5000000000 0.2500000000 0.1091132557
      vertex -0.4650000000 0.2500000000 0.1091132588
      vertex 0.1750000000 0.2500000000 -0.1091132588
    endloop
  endfacet
  facet normal -0.0000000000 1.0000000000 0.0000000000
    outer loop
      vertex -0.4450000000 0.2500000000 -0.1091132588
      vertex -0.4450000000 0.2500000000 -0.1443374058
      vertex -0.4650000000 0.2500000000 -0.1443374058
    endloop
  endfacet
  facet normal -0.0000000000 1.0000000000 0.0000000000
    outer loop
      vertex 0.4650000000 0.2500000000 0.1443374058
      vertex 0.4650000000 0.2500000000 0.1091132588
      vertex 0.4450000000 0.2500000000 0.1091132588
    endloop
  endfacet
  facet normal -0.0000000000 1.0000000000 0.0000000000
    outer loop
      vertex 0.4650000000 0.2500000000 0.1091132588
      vertex 0.5000000000 0.2500000000 -0.1091132557
      vertex 0.4450000000 0.2500000000 0.1091132588
    endloop
  endfacet
  facet normal -0.0000000000 1.0000000000 0.0000000000
    outer loop
      vertex 0.4450000000 0.2500000000 0.1091132588
      vertex 0.5000000000 0.2500000000 -0.1091132557
      vertex 0.1950000000 0.2500000000 0.1091132588
    endloop
  endfacet
  facet normal 0.0000000000 1.0000000000 0.0000000000
    outer loop
      vertex 0.5000000000 0.2500000000 -0.1091132557
      vertex 0.1750000000 0.2500000000 0.1091132588
      vertex 0.1950000000 0.2500000000 0.1091132588
    endloop
  endfacet
  facet normal 0.0000000000 1.0000000000 0.0000000000
    outer loop
      vertex 0.1950000000 0.2500000000 0.1091132588
      vertex 0.1750000000 0.2500000000 0.1091132588
      vertex 0.1950000000 0.2500000000 0.1443374058
    endloop
  endfacet
  facet normal 0.0000000000 1.0000000000 0.0000000000
    outer loop
      vertex 0.1750000000 0.2500000000 0.1091132588
      vertex 0.1750000000 0.2500000000 0.1443374058
      vertex 0.1950000000 0.2500000000 0.1443374058
    endloop
  endfacet
  facet normal 0.0000000000 1.0000000000 -0.0000000000
    outer loop
      vertex -0.4650000000 0.2500000000 -0.1443374058
      vertex -0.4650000000 0.2500000000 -0.1091132588
      vertex -0.4450000000 0.2500000000 -0.1091132588
    endloop
  endfacet
  facet normal 0.0000000000 1.0000000000 0.0000000000
    outer loop
      vertex -0.4650000000 0.2500000000 -0.1091132588
      vertex -0.5000000000 0.2500000000 0.1091132557
      vertex -0.4450000000 0.2500000000 -0.1091132588
    endloop
  endfacet
  facet normal 0.0000000000 1.0000000000 0.0000000000
    outer loop
      vertex -0.4450000000 0.2500000000 -0.1091132588
      vertex -0.5000000000 0.2500000000 0.1091132557
      vertex -0.1950000000 0.2500000000 -0.1091132588
    endloop
  endfacet
  facet normal -0.0000000000 1.0000000000 -0.0000000000
    outer loop
      vertex -0.5000000000 0.2500000000 0.1091132557
      vertex -0.1750000000 0.2500000000 -0.1091132588
      vertex -0.1950000000 0.2500000000 -0.1091132588
    endloop
  endfacet
  facet normal -0.0000000000 1.0000000000 0.0000000000
    outer loop
      vertex -0.1950000000 0.2500000000 -0.1091132588
      vertex -0.1750000000 0.2500000000 -0.1091132588
      vertex -0.1950000000 0.2500000000 -0.1443374058
    endloop
  endfacet
  facet normal 0.0000000000 1.0000000000 -0.0000000000
    outer loop
      vertex -0.1750000000 0.2500000000 -0.1091132588
      vertex -0.1750000000 0.2500000000 -0.1443374058
      vertex -0.1950000000 0.2500000000 -0.1443374058
    endloop
  endfacet
  facet normal 0.0000000000 1.0000000000 -0.0000000000
    outer loop
      vertex 0.4650000000 0.2500000000 -0.1443374058
      vertex 0.4450000000 0.2500000000 -0.1443374058
      vertex 0.4650000000 0.2500000000 -0.1091132588
    endloop
  endfacet
  facet normal 0.0000000000 1.0000000000 0.0000000000
    outer loop
      vertex 0.4450000000 0.2500000000 -0.1443374058
      vertex 0.4450000000 0.2500000000 -0.1091132588
      vertex 0.4650000000 0.2500000000 -0.1091132588
    endloop
  endfacet
  facet normal 0.0000000000 1.0000000000 -0.0000000000
    outer loop
      vertex 0.4650000000 0.2500000000 -0.1091132588
      vertex 0.4450000000 0.2500000000 -0.1091132588
      vertex -0.1750000000 0.2500000000 0.1091132588
    endloop
  endfacet
  facet normal -0.0000000000 1.0000000000 -0.0000000000
    outer loop
      vertex 0.4450000000 0.2500000000 -0.1091132588
      vertex -0.1950000000 0.2500000000 0.1091132588
      vertex -0.1750000000 0.2500000000 0.1091132588
    endloop
  endfacet
  facet normal -0.0000000000 1.0000000000 0.0000000000
    outer loop
      vertex -0.1750000000 0.2500000000 0.1091132588
      vertex -0.1950000000 0.2500000000 0.1091132588
      vertex -0.1750000000 0.2500000000 0.1443374058
    endloop
  endfacet
  facet normal 0.0000000000 1.0000000000 0.0000000000
    outer loop
      vertex -0.1950000000 0.2500000000 0.1091132588
      vertex -0.1950000000 0.2500000000 0.1443374058
      vertex -0.1750000000 0.2500000000 0.1443374058
    endloop
  endfacet
  facet normal -0.0000000000 1.0000000000 0.0000000000
    outer loop
      vertex -0.4650000000 0.2500000000 0.1443374058
      vertex -0.4450000000 0.2500000000 0.1443374058
      vertex -0.4650000000 0.2500000000 0.1091132588
    endloop
  endfacet
  facet normal 0.0000000000 1.0000000000 -0.0000000000
    outer loop
      vertex -0.4450000000 0.2500000000 0.1443374058
      vertex -0.4450000000 0.2500000000 0.1091132588
      vertex -0.4650000000 0.2500000000 0.1091132588
    endloop
  endfacet
  facet normal 0.0000000000 1.0000000000 0.0000000000
    outer loop
      vertex -0.4650000000 0.2500000000 0.1091132588
      vertex -0.4450000000 0.2500000000 0.1091132588
      vertex 0.1750000000 0.2500000000 -0.1091132588
    endloop
  endfacet
  facet normal 0.0000000000 1.0000000000 0.0000000000
    outer loop
      vertex -0.4450000000 0.2500000000 0.1091132588
      vertex 0.1950000000 0.2500000000 -0.1091132588
      vertex 0.1750000000 0.2500000000 -0.1091132588
    endloop
  endfacet
  facet normal 0.0000000000 1.0000000000 -0.0000000000
    outer loop
      vertex 0.1750000000 0.2500000000 -0.1091132588
      vertex 0.1950000000 0.2500000000 -0.1091132588
      vertex 0.1750000000 0.2500000000 -0.1443374058
    endloop
  endfacet
  facet normal 0.0000000000 1.0000000000 0.0000000000
    outer loop
      vertex 0.1950000000 0.2500000000 -0.1091132588
      vertex 0.1950000000 0.2500000000 -0.1443374058
      vertex 0.1750000000 0.2500000000 -0.1443374058
    endloop
  endfacet
  facet normal -0.0000001038 0.8660270528 0.4999971438
    outer loop
      vertex -0.4650000000 0.1900350000 0.0808494000
      vertex -0.5000000000 0.1900350000 0.0808493927
      vertex -0.4650000000 0.1650350000 0.1241510000
    endloop
  endfacet
  facet normal 0.0000000000 0.8660270891 0.4999970809
    outer loop
      vertex -0.5000000000 0.1900350000 0.0808493927
      vertex -0.5000000000 0.1650350000 0.1241510000
      vertex -0.4650000000 0.1650350000 0.1241510000
    endloop
  endfacet
  facet normal 1.0000000000 0.0000000000 0.0000000000
    outer loop
      vertex 0.4650000000 -0.1650350000 -0.1241510000
      vertex 0.4650000000 -0.1900350000 -0.0808494000
      vertex 0.4650000000 -0.1941188680 -0.1443374058
    endloop
  endfacet
  facet normal 1.0000000000 0.0000000000 -0.0000000000
    outer loop
      vertex 0.4650000000 -0.1900350000 -0.0808494000
      vertex 0.4650000000 -0.2500000000 -0.1091132588
      vertex 0.4650000000 -0.1941188680 -0.1443374058
    endloop
  endfacet
  facet normal 1.0000000000 0.0000000000 -0.0000000000
    outer loop
      vertex 0.4650000000 -0.1941188680 -0.1443374058
      vertex 0.4650000000 -0.2500000000 -0.1091132588
      vertex 0.4650000000 -0.2500000000 -0.1443374058
    endloop
  endfacet
  facet normal 0.0000000000 0.0000000000 -1.0000000000
    outer loop
      vertex -0.4450000000 -0.1941188680 -0.1443374058
      vertex -0.4450000000 -0.2500000000 -0.1443374058
      vertex -0.4650000000 -0.2500000000 -0.1443374058
    endloop
  endfacet
  facet normal -0.0000000000 0.0000000000 -1.0000000000
    outer loop
      vertex -0.1950000000 0.1941188680 -0.1443374058
      vertex -0.1950000000 0.2500000000 -0.1443374058
      vertex -0.1750000000 0.2500000000 -0.1443374058
    endloop
  endfacet
  facet normal 0.0000000000 0.0000000000 -1.0000000000
    outer loop
      vertex -0.1750000000 -0.1941188680 -0.1443374058
      vertex -0.1750000000 -0.2500000000 -0.1443374058
      vertex -0.1950000000 -0.2500000000 -0.1443374058
    endloop
  endfacet
  facet normal -0.0000000000 0.0000000000 -1.0000000000
    outer loop
      vertex 0.4450000000 0.1941188680 -0.1443374058
      vertex 0.4450000000 0.2500000000 -0.1443374058
      vertex 0.4650000000 0.2500000000 -0.1443374058
    endloop
  endfacet
  facet normal 0.0000000000 0.0000000000 -1.0000000000
    outer loop
      vertex 0.5000000000 0.1941188680 -0.1443374058
      vertex 0.5000000000 -0.1941188680 -0.1443374058
      vertex 0.4650000000 -0.1941188680 -0.1443374058
    endloop
  endfacet
  facet normal 0.0000000000 -0.0000000000 -1.0000000000
    outer loop
      vertex 0.5000000000 0.1941188680 -0.1443374058
      vertex -0.1950000000 -0.1941188680 -0.1443374058
      vertex 0.4650000000 0.1941188680 -0.1443374058
    endloop
  endfacet
  facet normal 0.0000000000 0.0000000000 -1.0000000000
    outer loop
      vertex -0.1950000000 -0.1941188680 -0.1443374058
      vertex -0.4450000000 -0.1941188680 -0.1443374058
      vertex 0.4650000000 0.1941188680 -0.1443374058
    endloop
  endfacet
  facet normal 0.0000000000 0.0000000000 -1.0000000000
    outer loop
      vertex 0.4650000000 0.1941188680 -0.1443374058
      vertex -0.4450000000 -0.1941188680 -0.1443374058
      vertex -0.4650000000 -0.1941188680 -0.1443374058
    endloop
  endfacet
  facet normal 0.0000000000 0.0000000000 -1.0000000000
    outer loop
      vertex -0.4450000000 -0.1941188680 -0.1443374058
      vertex -0.4650000000 -0.2500000000 -0.1443374058
      vertex -0.4650000000 -0.1941188680 -0.1443374058
    endloop
  endfacet
  facet normal 0.0000000000 0.0000000000 -1.0000000000
    outer loop
      vertex -0.5000000000 -0.1941188680 -0.1443374058
      vertex -0.5000000000 0.1941188680 -0.1443374058
      vertex -0.4650000000 0.1941188680 -0.1443374058
    endloop
  endfacet
  facet normal 0.0000000000 0.0000000000 -1.0000000000
    outer loop
      vertex 0.1750000000 0.2500000000 -0.1443374058
      vertex 0.1950000000 0.2500000000 -0.1443374058
      vertex 0.1750000000 0.1941188680 -0.1443374058
    endloop
  endfacet
  facet normal 0.0000000000 0.0000000000 -1.0000000000
    outer loop
      vertex 0.1950000000 0.2500000000 -0.1443374058
      vertex 0.1950000000 0.1941188680 -0.1443374058
      vertex 0.1750000000 0.1941188680 -0.1443374058
    endloop
  endfacet
  facet normal 0.0000000000 -0.0000000000 -1.0000000000
    outer loop
      vertex 0.4650000000 -0.2500000000 -0.1443374058
      vertex 0.4450000000 -0.2500000000 -0.1443374058
      vertex 0.4650000000 -0.1941188680 -0.1443374058
    endloop
  endfacet
  facet normal -0.0000000000 0.0000000000 -1.0000000000
    outer loop
      vertex 0.4450000000 -0.2500000000 -0.1443374058
      vertex 0.4450000000 -0.1941188680 -0.1443374058
      vertex 0.4650000000 -0.1941188680 -0.1443374058
    endloop
  endfacet
  facet normal 0.0000000000 0.0000000000 -1.0000000000
    outer loop
      vertex 0.4650000000 -0.1941188680 -0.1443374058
      vertex 0.4450000000 -0.1941188680 -0.1443374058
      vertex 0.5000000000 0.1941188680 -0.1443374058
    endloop
  endfacet
  facet normal 0.0000000000 0.0000000000 -1.0000000000
    outer loop
      vertex 0.4450000000 -0.1941188680 -0.1443374058
      vertex 0.1950000000 -0.1941188680 -0.1443374058
      vertex 0.5000000000 0.1941188680 -0.1443374058
    endloop
  endfacet
  facet normal 0.0000000000 -0.0000000000 -1.0000000000
    outer loop
      vertex 0.1950000000 -0.2500000000 -0.1443374058
      vertex 0.1750000000 -0.2500000000 -0.1443374058
      vertex 0.1950000000 -0.1941188680 -0.1443374058
    endloop
  endfacet
  facet normal -0.0000000000 0.0000000000 -1.0000000000
    outer loop
      vertex 0.1750000000 -0.2500000000 -0.1443374058
      vertex 0.1750000000 -0.1941188680 -0.1443374058
      vertex 0.1950000000 -0.1941188680 -0.1443374058
    endloop
  endfacet
  facet normal 0.0000000000 0.0000000000 -1.0000000000
    outer loop
      vertex 0.1950000000 -0.1941188680 -0.1443374058
      vertex 0.1750000000 -0.1941188680 -0.1443374058
      vertex 0.5000000000 0.1941188680 -0.1443374058
    endloop
  endfacet
  facet normal 0.0000000000 0.0000000000 -1.0000000000
    outer loop
      vertex 0.1750000000 -0.1941188680 -0.1443374058
      vertex -0.1750000000 -0.1941188680 -0.1443374058
      vertex 0.5000000000 0.1941188680 -0.1443374058
    endloop
  endfacet
  facet normal 0.0000000000 0.0000000000 -1.0000000000
    outer loop
      vertex 0.5000000000 0.1941188680 -0.1443374058
      vertex -0.1750000000 -0.1941188680 -0.1443374058
      vertex -0.1950000000 -0.1941188680 -0.1443374058
    endloop
  endfacet
  facet normal 0.0000000000 0.0000000000 -1.0000000000
    outer loop
      vertex -0.1750000000 -0.1941188680 -0.1443374058
      vertex -0.1950000000 -0.2500000000 -0.1443374058
      vertex -0.1950000000 -0.1941188680 -0.1443374058
    endloop
  endfacet
  facet normal 0.0000000000 0.0000000000 -1.0000000000
    outer loop
      vertex -0.1750000000 0.2500000000 -0.1443374058
      vertex -0.1750000000 0.1941188680 -0.1443374058
      vertex -0.1950000000 0.1941188680 -0.1443374058
    endloop
  endfacet
  facet normal 0.0000000000 -0.0000000000 -1.0000000000
    outer loop
      vertex -0.1750000000 0.1941188680 -0.1443374058
      vertex -0.5000000000 -0.1941188680 -0.1443374058
      vertex -0.1950000000 0.1941188680 -0.1443374058
    endloop
  endfacet
  facet normal 0.0000000000 -0.0000000000 -1.0000000000
    outer loop
      vertex -0.1950000000 0.1941188680 -0.1443374058
      vertex -0.5000000000 -0.1941188680 -0.1443374058
      vertex -0.4450000000 0.1941188680 -0.1443374058
    endloop
  endfacet
  facet normal -0.0000000000 0.0000000000 -1.0000000000
    outer loop
      vertex -0.5000000000 -0.1941188680 -0.1443374058
      vertex -0.4650000000 0.1941188680 -0.1443374058
      vertex -0.4450000000 0.1941188680 -0.1443374058
    endloop
  endfacet
  facet normal 0.0000000000 -0.0000000000 -1.0000000000
    outer loop
      vertex -0.4450000000 0.1941188680 -0.1443374058
      vertex -0.4650000000 0.1941188680 -0.1443374058
      vertex -0.4450000000 0.2500000000 -0.1443374058
    endloop
  endfacet
  facet normal 0.0000000000 0.0000000000 -1.0000000000
    outer loop
      vertex -0.4650000000 0.1941188680 -0.1443374058
      vertex -0.4650000000 0.2500000000 -0.1443374058
      vertex -0.4450000000 0.2500000000 -0.1443374058
    endloop
  endfacet
  facet normal 0.0000000000 0.0000000000 -1.0000000000
    outer loop
      vertex 0.4650000000 0.2500000000 -0.1443374058
      vertex 0.4650000000 0.1941188680 -0.1443374058
      vertex 0.4450000000 0.1941188680 -0.1443374058
    endloop
  endfacet
  facet normal 0.0000000000 -0.0000000000 -1.0000000000
    outer loop
      vertex 0.4650000000 0.1941188680 -0.1443374058
      vertex -0.4650000000 -0.1941188680 -0.1443374058
      vertex 0.4450000000 0.1941188680 -0.1443374058
    endloop
  endfacet
  facet normal 0.0000000000 -0.0000000000 -1.0000000000
    outer loop
      vertex 0.4450000000 0.1941188680 -0.1443374058
      vertex -0.4650000000 -0.1941188680 -0.1443374058
      vertex 0.1950000000 0.1941188680 -0.1443374058
    endloop
  endfacet
  facet normal 0.0000000000 0.0000000000 -1.0000000000
    outer loop
      vertex -0.4650000000 -0.1941188680 -0.1443374058
      vertex -0.5000000000 -0.1941188680 -0.1443374058
      vertex 0.1950000000 0.1941188680 -0.1443374058
    endloop
  endfacet
  facet normal 0.0000000000 -0.0000000000 -1.0000000000
    outer loop
      vertex 0.1950000000 0.1941188680 -0.1443374058
      vertex -0.5000000000 -0.1941188680 -0.1443374058
      vertex 0.1750000000 0.1941188680 -0.1443374058
    endloop
  endfacet
  facet normal -0.0000000000 0.0000000000 -1.0000000000
    outer loop
      vertex -0.5000000000 -0.1941188680 -0.1443374058
      vertex -0.1750000000 0.1941188680 -0.1443374058
      vertex 0.1750000000 0.1941188680 -0.1443374058
    endloop
  endfacet
  facet normal 0.0000000000 0.0000000000 1.0000000000
    outer loop
      vertex 0.5000000000 -0.1941188680 0.1443374058
      vertex 0.5000000000 0.1941188680 0.1443374058
      vertex 0.4650000000 -0.1941188680 0.1443374058
    endloop
  endfacet
  facet normal 0.0000000000 0.0000000000 1.0000000000
    outer loop
      vertex 0.5000000000 0.1941188680 0.1443374058
      vertex 0.4650000000 0.1941188680 0.1443374058
      vertex 0.4650000000 -0.1941188680 0.1443374058
    endloop
  endfacet
  facet normal 0.0000000000 0.0000000000 1.0000000000
    outer loop
      vertex -0.5000000000 0.1941188680 0.1443374058
      vertex -0.5000000000 -0.1941188680 0.1443374058
      vertex -0.4650000000 0.1941188680 0.1443374058
    endloop
  endfacet
  facet normal 0.0000000000 0.0000000000 1.0000000000
    outer loop
      vertex -0.5000000000 -0.1941188680 0.1443374058
      vertex -0.4650000000 -0.1941188680 0.1443374058
      vertex -0.4650000000 0.1941188680 0.1443374058
    endloop
  endfacet
  facet normal -0.0000000000 0.0000000000 1.0000000000
    outer loop
      vertex -0.4450000000 0.1941188680 0.1443374058
      vertex -0.4450000000 0.2500000000 0.1443374058
      vertex -0.4650000000 0.2500000000 0.1443374058
    endloop
  endfacet
  facet normal 0.0000000000 0.0000000000 1.0000000000
    outer loop
      vertex 0.1750000000 -0.1941188680 0.1443374058
      vertex 0.1750000000 -0.2500000000 0.1443374058
      vertex 0.1950000000 -0.2500000000 0.1443374058
    endloop
  endfacet
  facet normal 0.0000000000 -0.0000000000 1.0000000000
    outer loop
      vertex 0.4650000000 0.2500000000 0.1443374058
      vertex 0.4450000000 0.2500000000 0.1443374058
      vertex 0.4650000000 0.1941188680 0.1443374058
    endloop
  endfacet
  facet normal 0.0000000000 0.0000000000 1.0000000000
    outer loop
      vertex 0.4450000000 0.2500000000 0.1443374058
      vertex 0.4450000000 0.1941188680 0.1443374058
      vertex 0.4650000000 0.1941188680 0.1443374058
    endloop
  endfacet
  facet normal 0.0000000000 -0.0000000000 1.0000000000
    outer loop
      vertex 0.4650000000 0.1941188680 0.1443374058
      vertex 0.4450000000 0.1941188680 0.1443374058
      vertex 0.4650000000 -0.1941188680 0.1443374058
    endloop
  endfacet
  facet normal 0.0000000000 0.0000000000 1.0000000000
    outer loop
      vertex 0.4450000000 0.1941188680 0.1443374058
      vertex 0.1950000000 0.1941188680 0.1443374058
      vertex 0.4650000000 -0.1941188680 0.1443374058
    endloop
  endfacet
  facet normal 0.0000000000 0.0000000000 1.0000000000
    outer loop
      vertex -0.4650000000 -0.2500000000 0.1443374058
      vertex -0.4450000000 -0.2500000000 0.1443374058
      vertex -0.4650000000 -0.1941188680 0.1443374058
    endloop
  endfacet
  facet normal -0.0000000000 0.0000000000 1.0000000000
    outer loop
      vertex -0.4450000000 -0.2500000000 0.1443374058
      vertex -0.4450000000 -0.1941188680 0.1443374058
      vertex -0.4650000000 -0.1941188680 0.1443374058
    endloop
  endfacet
  facet normal 0.0000000000 0.0000000000 1.0000000000
    outer loop
      vertex -0.4650000000 -0.1941188680 0.1443374058
      vertex -0.4450000000 -0.1941188680 0.1443374058
      vertex -0.4650000000 0.1941188680 0.1443374058
    endloop
  endfacet
  facet normal 0.0000000000 0.0000000000 1.0000000000
    outer loop
      vertex -0.4450000000 -0.1941188680 0.1443374058
      vertex -0.1950000000 -0.1941188680 0.1443374058
      vertex -0.4650000000 0.1941188680 0.1443374058
    endloop
  endfacet
  facet normal 0.0000000000 0.0000000000 1.0000000000
    outer loop
      vertex -0.4650000000 0.1941188680 0.1443374058
      vertex 0.1950000000 -0.1941188680 0.1443374058
      vertex 0.4450000000 -0.1941188680 0.1443374058
    endloop
  endfacet
  facet normal 0.0000000000 0.0000000000 1.0000000000
    outer loop
      vertex 0.4450000000 -0.2500000000 0.1443374058
      vertex 0.4650000000 -0.2500000000 0.1443374058
      vertex 0.4450000000 -0.1941188680 0.1443374058
    endloop
  endfacet
  facet normal -0.0000000000 0.0000000000 1.0000000000
    outer loop
      vertex 0.4650000000 -0.2500000000 0.1443374058
      vertex 0.4650000000 -0.1941188680 0.1443374058
      vertex 0.4450000000 -0.1941188680 0.1443374058
    endloop
  endfacet
  facet normal 0.0000000000 0.0000000000 1.0000000000
    outer loop
      vertex 0.4450000000 -0.1941188680 0.1443374058
      vertex 0.4650000000 -0.1941188680 0.1443374058
      vertex -0.4650000000 0.1941188680 0.1443374058
    endloop
  endfacet
  facet normal 0.0000000000 -0.0000000000 1.0000000000
    outer loop
      vertex 0.1950000000 0.2500000000 0.1443374058
      vertex 0.1750000000 0.2500000000 0.1443374058
      vertex 0.1950000000 0.1941188680 0.1443374058
    endloop
  endfacet
  facet normal 0.0000000000 0.0000000000 1.0000000000
    outer loop
      vertex 0.1750000000 0.2500000000 0.1443374058
      vertex 0.1750000000 0.1941188680 0.1443374058
      vertex 0.1950000000 0.1941188680 0.1443374058
    endloop
  endfacet
  facet normal 0.0000000000 0.0000000000 1.0000000000
    outer loop
      vertex 0.1950000000 0.1941188680 0.1443374058
      vertex 0.1750000000 0.1941188680 0.1443374058
      vertex 0.4650000000 -0.1941188680 0.1443374058
    endloop
  endfacet
  facet normal 0.0000000000 0.0000000000 1.0000000000
    outer loop
      vertex 0.1750000000 0.1941188680 0.1443374058
      vertex -0.1750000000 0.1941188680 0.1443374058
      vertex 0.4650000000 -0.1941188680 0.1443374058
    endloop
  endfacet
  facet normal 0.0000000000 0.0000000000 1.0000000000
    outer loop
      vertex -0.1950000000 -0.2500000000 0.1443374058
      vertex -0.1750000000 -0.2500000000 0.1443374058
      vertex -0.1950000000 -0.1941188680 0.1443374058
    endloop
  endfacet
  facet normal -0.0000000000 0.0000000000 1.0000000000
    outer loop
      vertex -0.1750000000 -0.2500000000 0.1443374058
      vertex -0.1750000000 -0.1941188680 0.1443374058
      vertex -0.1950000000 -0.1941188680 0.1443374058
    endloop
  endfacet
  facet normal 0.0000000000 0.0000000000 1.0000000000
    outer loop
      vertex -0.1950000000 -0.1941188680 0.1443374058
      vertex -0.1750000000 -0.1941188680 0.1443374058
      vertex -0.4650000000 0.1941188680 0.1443374058
    endloop
  endfacet
  facet normal 0.0000000000 0.0000000000 1.0000000000
    outer loop
      vertex -0.1750000000 -0.1941188680 0.1443374058
      vertex 0.1750000000 -0.1941188680 0.1443374058
      vertex -0.4650000000 0.1941188680 0.1443374058
    endloop
  endfacet
  facet normal 0.0000000000 0.0000000000 1.0000000000
    outer loop
      vertex -0.4650000000 0.1941188680 0.1443374058
      vertex 0.1750000000 -0.1941188680 0.1443374058
      vertex 0.1950000000 -0.1941188680 0.1443374058
    endloop
  endfacet
  facet normal 0.0000000000 0.0000000000 1.0000000000
    outer loop
      vertex 0.1750000000 -0.1941188680 0.1443374058
      vertex 0.1950000000 -0.2500000000 0.1443374058
      vertex 0.1950000000 -0.1941188680 0.1443374058
    endloop
  endfacet
  facet normal 0.0000000000 -0.0000000000 1.0000000000
    outer loop
      vertex -0.1750000000 0.2500000000 0.1443374058
      vertex -0.1950000000 0.2500000000 0.1443374058
      vertex -0.1750000000 0.1941188680 0.1443374058
    endloop
  endfacet
  facet normal 0.0000000000 0.0000000000 1.0000000000
    outer loop
      vertex -0.1950000000 0.2500000000 0.1443374058
      vertex -0.1950000000 0.1941188680 0.1443374058
      vertex -0.1750000000 0.1941188680 0.1443374058
    endloop
  endfacet
  facet normal 0.0000000000 0.0000000000 1.0000000000
    outer loop
      vertex -0.1750000000 0.1941188680 0.1443374058
      vertex -0.1950000000 0.1941188680 0.1443374058
      vertex 0.4650000000 -0.1941188680 0.1443374058
    endloop
  endfacet
  facet normal 0.0000000000 0.0000000000 1.0000000000
    outer loop
      vertex -0.1950000000 0.1941188680 0.1443374058
      vertex -0.4450000000 0.1941188680 0.1443374058
      vertex 0.4650000000 -0.1941188680 0.1443374058
    endloop
  endfacet
  facet normal -0.0000000000 0.0000000000 1.0000000000
    outer loop
      vertex 0.4650000000 -0.1941188680 0.1443374058
      vertex -0.4450000000 0.1941188680 0.1443374058
      vertex -0.4650000000 0.1941188680 0.1443374058
    endloop
  endfacet
  facet normal 0.0000000000 0.0000000000 1.0000000000
    outer loop
      vertex -0.4450000000 0.1941188680 0.1443374058
      vertex -0.4650000000 0.2500000000 0.1443374058
      vertex -0.4650000000 0.1941188680 0.1443374058
    endloop
  endfacet
  facet normal -0.0000001878 0.4263531336 -0.9045568006
    outer loop
      vertex -0.4650000000 -0.1900350000 -0.0808494000
      vertex -0.4650000000 -0.2500000000 -0.1091132588
      vertex -0.5000000000 -0.1900350000 -0.0808493927
    endloop
  endfacet
  facet normal -0.0000000795 0.4263531853 -0.9045567762
    outer loop
      vertex -0.4650000000 -0.2500000000 -0.1091132588
      vertex -0.5000000000 -0.2500000000 -0.1091132557
      vertex -0.5000000000 -0.1900350000 -0.0808493927
    endloop
  endfacet
  facet normal 0.0000000000 -1.0000000000 0.0000000000
    outer loop
      vertex -0.4650000000 -0.2500000000 0.1091132588
      vertex -0.5000000000 -0.2500000000 0.1091132557
      vertex -0.5000000000 -0.2500000000 -0.1091132557
    endloop
  endfacet
  facet normal 0.0000000000 -1.0000000000 -0.0000000000
    outer loop
      vertex 0.4650000000 -0.2500000000 -0.1091132588
      vertex 0.5000000000 -0.2500000000 -0.1091132557
      vertex 0.5000000000 -0.2500000000 0.1091132557
    endloop
  endfacet
  facet normal -0.0000000000 -1.0000000000 0.0000000000
    outer loop
      vertex 0.1950000000 -0.2500000000 0.1091132588
      vertex -0.4450000000 -0.2500000000 -0.1091132588
      vertex 0.4450000000 -0.2500000000 0.1091132588
    endloop
  endfacet
  facet normal 0.0000000000 -1.0000000000 0.0000000000
    outer loop
      vertex -0.4450000000 -0.2500000000 -0.1091132588
      vertex -0.1950000000 -0.2500000000 -0.1091132588
      vertex 0.4450000000 -0.2500000000 0.1091132588
    endloop
  endfacet
  facet normal -0.0000000000 -1.0000000000 -0.0000000000
    outer loop
      vertex -0.4450000000 -0.2500000000 0.1091132588
      vertex -0.4450000000 -0.2500000000 0.1443374058
      vertex -0.4650000000 -0.2500000000 0.1443374058
    endloop
  endfacet
  facet normal -0.0000000000 -1.0000000000 -0.0000000000
    outer loop
      vertex -0.1750000000 -0.2500000000 0.1091132588
      vertex -0.5000000000 -0.2500000000 -0.1091132557
      vertex 0.1750000000 -0.2500000000 0.1091132588
    endloop
  endfacet
  facet normal -0.0000000000 -1.0000000000 -0.0000000000
    outer loop
      vertex -0.5000000000 -0.2500000000 -0.1091132557
      vertex -0.4650000000 -0.2500000000 -0.1091132588
      vertex 0.1750000000 -0.2500000000 0.1091132588
    endloop
  endfacet
  facet normal 0.0000000000 -1.0000000000 0.0000000000
    outer loop
      vertex 0.1750000000 -0.2500000000 -0.1091132588
      vertex 0.5000000000 -0.2500000000 0.1091132557
      vertex -0.1750000000 -0.2500000000 -0.1091132588
    endloop
  endfacet
  facet normal 0.0000000000 -1.0000000000 0.0000000000
    outer loop
      vertex 0.5000000000 -0.2500000000 0.1091132557
      vertex 0.4650000000 -0.2500000000 0.1091132588
      vertex -0.1750000000 -0.2500000000 -0.1091132588
    endloop
  endfacet
  facet normal 0.0000000000 -1.0000000000 0.0000000000
    outer loop
      vertex 0.4450000000 -0.2500000000 -0.1091132588
      vertex 0.4450000000 -0.2500000000 -0.1443374058
      vertex 0.4650000000 -0.2500000000 -0.1443374058
    endloop
  endfacet
  facet normal -0.0000000000 -1.0000000000 -0.0000000000
    outer loop
      vertex -0.4650000000 -0.2500000000 -0.1443374058
      vertex -0.4450000000 -0.2500000000 -0.1443374058
      vertex -0.4650000000 -0.2500000000 -0.1091132588
    endloop
  endfacet
  facet normal 0.0000000000 -1.0000000000 0.0000000000
    outer loop
      vertex -0.4450000000 -0.2500000000 -0.1443374058
      vertex -0.4450000000 -0.2500000000 -0.1091132588
      vertex -0.4650000000 -0.2500000000 -0.1091132588
    endloop
  endfacet
  facet normal 0.0000000000 -1.0000000000 -0.0000000000
    outer loop
      vertex -0.4650000000 -0.2500000000 -0.1091132588
      vertex -0.4450000000 -0.2500000000 -0.1091132588
      vertex 0.1750000000 -0.2500000000 0.1091132588
    endloop
  endfacet
  facet normal 0.0000000000 -1.0000000000 -0.0000000000
    outer loop
      vertex -0.4450000000 -0.2500000000 -0.1091132588
      vertex 0.1950000000 -0.2500000000 0.1091132588
      vertex 0.1750000000 -0.2500000000 0.1091132588
    endloop
  endfacet
  facet normal 0.0000000000 -1.0000000000 0.0000000000
    outer loop
      vertex 0.1750000000 -0.2500000000 0.1091132588
      vertex 0.1950000000 -0.2500000000 0.1091132588
      vertex 0.1750000000 -0.2500000000 0.1443374058
    endloop
  endfacet
  facet normal 0.0000000000 -1.0000000000 0.0000000000
    outer loop
      vertex 0.1950000000 -0.2500000000 0.1091132588
      vertex 0.1950000000 -0.2500000000 0.1443374058
      vertex 0.1750000000 -0.2500000000 0.1443374058
    endloop
  endfacet
  facet normal 0.0000000000 -1.0000000000 0.0000000000
    outer loop
      vertex -0.4650000000 -0.2500000000 0.1443374058
      vertex -0.4650000000 -0.2500000000 0.1091132588
      vertex -0.4450000000 -0.2500000000 0.1091132588
    endloop
  endfacet
  facet normal -0.0000000000 -1.0000000000 0.0000000000
    outer loop
      vertex -0.4650000000 -0.2500000000 0.1091132588
      vertex -0.5000000000 -0.2500000000 -0.1091132557
      vertex -0.4450000000 -0.2500000000 0.1091132588
    endloop
  endfacet
  facet normal -0.0000000000 -1.0000000000 0.0000000000
    outer loop
      vertex -0.4450000000 -0.2500000000 0.1091132588
      vertex -0.5000000000 -0.2500000000 -0.1091132557
      vertex -0.1950000000 -0.2500000000 0.1091132588
    endloop
  endfacet
  facet normal -0.0000000000 -1.0000000000 0.0000000000
    outer loop
      vertex -0.5000000000 -0.2500000000 -0.1091132557
      vertex -0.1750000000 -0.2500000000 0.1091132588
      vertex -0.1950000000 -0.2500000000 0.1091132588
    endloop
  endfacet
  facet normal -0.0000000000 -1.0000000000 -0.0000000000
    outer loop
      vertex -0.1950000000 -0.2500000000 0.1091132588
      vertex -0.1750000000 -0.2500000000 0.1091132588
      vertex -0.1950000000 -0.2500000000 0.1443374058
    endloop
  endfacet
  facet normal 0.0000000000 -1.0000000000 0.0000000000
    outer loop
      vertex -0.1750000000 -0.2500000000 0.1091132588
      vertex -0.1750000000 -0.2500000000 0.1443374058
      vertex -0.1950000000 -0.2500000000 0.1443374058
    endloop
  endfacet
  facet normal 0.0000000000 -1.0000000000 0.0000000000
    outer loop
      vertex -0.1950000000 -0.2500000000 -0.1443374058
      vertex -0.1750000000 -0.2500000000 -0.1443374058
      vertex -0.1950000000 -0.2500000000 -0.1091132588
    endloop
  endfacet
  facet normal -0.0000000000 -1.0000000000 -0.0000000000
    outer loop
      vertex -0.1750000000 -0.2500000000 -0.1443374058
      vertex -0.1750000000 -0.2500000000 -0.1091132588
      vertex -0.1950000000 -0.2500000000 -0.1091132588
    endloop
  endfacet
  facet normal -0.0000000000 -1.0000000000 0.0000000000
    outer loop
      vertex -0.1950000000 -0.2500000000 -0.1091132588
      vertex -0.1750000000 -0.2500000000 -0.1091132588
      vertex 0.4450000000 -0.2500000000 0.1091132588
    endloop
  endfacet
  facet normal 0.0000000000 -1.0000000000 0.0000000000
    outer loop
      vertex -0.1750000000 -0.2500000000 -0.1091132588
      vertex 0.4650000000 -0.2500000000 0.1091132588
      vertex 0.4450000000 -0.2500000000 0.1091132588
    endloop
  endfacet
  facet normal 0.0000000000 -1.0000000000 -0.0000000000
    outer loop
      vertex 0.4450000000 -0.2500000000 0.1091132588
      vertex 0.4650000000 -0.2500000000 0.1091132588
      vertex 0.4450000000 -0.2500000000 0.1443374058
    endloop
  endfacet
  facet normal 0.0000000000 -1.0000000000 0.0000000000
    outer loop
      vertex 0.4650000000 -0.2500000000 0.1091132588
      vertex 0.4650000000 -0.2500000000 0.1443374058
      vertex 0.4450000000 -0.2500000000 0.1443374058
    endloop
  endfacet
  facet normal 0.0000000000 -1.0000000000 -0.0000000000
    outer loop
      vertex 0.4650000000 -0.2500000000 -0.1443374058
      vertex 0.4650000000 -0.2500000000 -0.1091132588
      vertex 0.4450000000 -0.2500000000 -0.1091132588
    endloop
  endfacet
  facet normal 0.0000000000 -1.0000000000 0.0000000000
    outer loop
      vertex 0.4650000000 -0.2500000000 -0.1091132588
      vertex 0.5000000000 -0.2500000000 0.1091132557
      vertex 0.4450000000 -0.2500000000 -0.1091132588
    endloop
  endfacet
  facet normal 0.0000000000 -1.0000000000 0.0000000000
    outer loop
      vertex 0.4450000000 -0.2500000000 -0.1091132588
      vertex 0.5000000000 -0.2500000000 0.1091132557
      vertex 0.1950000000 -0.2500000000 -0.1091132588
    endloop
  endfacet
  facet normal 0.0000000000 -1.0000000000 -0.0000000000
    outer loop
      vertex 0.5000000000 -0.2500000000 0.1091132557
      vertex 0.1750000000 -0.2500000000 -0.1091132588
      vertex 0.1950000000 -0.2500000000 -0.1091132588
    endloop
  endfacet
  facet normal 0.0000000000 -1.0000000000 0.0000000000
    outer loop
      vertex 0.1950000000 -0.2500000000 -0.1091132588
      vertex 0.1750000000 -0.2500000000 -0.1091132588
      vertex 0.1950000000 -0.2500000000 -0.1443374058
    endloop
  endfacet
  facet normal -0.0000000000 -1.0000000000 -0.0000000000
    outer loop
      vertex 0.1750000000 -0.2500000000 -0.1091132588
      vertex 0.1750000000 -0.2500000000 -0.1443374058
      vertex 0.1950000000 -0.2500000000 -0.1443374058
    endloop
  endfacet
  facet normal -0.0000001878 0.4263531853 0.9045567762
    outer loop
      vertex -0.5000000000 -0.1900350000 0.0808493927
      vertex -0.5000000000 -0.2500000000 0.1091132557
      vertex -0.4650000000 -0.1900350000 0.0808494000
    endloop
  endfacet
  facet normal -0.0000000795 0.4263531336 0.9045568006
    outer loop
      vertex -0.5000000000 -0.2500000000 0.1091132557
      vertex -0.4650000000 -0.2500000000 0.1091132588
      vertex -0.4650000000 -0.1900350000 0.0808494000
    endloop
  endfacet
  facet normal -0.0000000000 -0.5701914169 -0.8215118673
    outer loop
      vertex -0.5000000000 -0.1650350000 0.1241510000
      vertex -0.4650000000 -0.1650350000 0.1241510000
      vertex -0.5000000000 -0.1941188680 0.1443374058
    endloop
  endfacet
  facet normal -0.0000000000 -0.5701914169 -0.8215118673
    outer loop
      vertex -0.4650000000 -0.1650350000 0.1241510000
      vertex -0.4650000000 -0.1941188680 0.1443374058
      vertex -0.5000000000 -0.1941188680 0.1443374058
    endloop
  endfacet
  facet normal -0.0000000000 0.5701914169 0.8215118673
    outer loop
      vertex -0.4650000000 0.1650350000 -0.1241510000
      vertex -0.4650000000 0.1941188680 -0.1443374058
      vertex -0.5000000000 0.1650350000 -0.1241510000
    endloop
  endfacet
  facet normal -0.0000000000 0.5701914169 0.8215118673
    outer loop
      vertex -0.4650000000 0.1941188680 -0.1443374058
      vertex -0.5000000000 0.1941188680 -0.1443374058
      vertex -0.5000000000 0.1650350000 -0.1241510000
    endloop
  endfacet
  facet normal -1.0000000000 0.0000000000 0.0000000000
    outer loop
      vertex -0.4650000000 -0.1650350000 0.1241510000
      vertex -0.4650000000 -0.1900350000 0.0808494000
      vertex -0.4650000000 -0.1941188680 0.1443374058
    endloop
  endfacet
  facet normal -1.0000000000 0.0000000000 -0.0000000000
    outer loop
      vertex -0.4650000000 -0.1900350000 0.0808494000
      vertex -0.4650000000 -0.2500000000 0.1091132588
      vertex -0.4650000000 -0.1941188680 0.1443374058
    endloop
  endfacet
  facet normal -1.0000000000 0.0000000000 -0.0000000000
    outer loop
      vertex -0.4650000000 -0.1941188680 0.1443374058
      vertex -0.4650000000 -0.2500000000 0.1091132588
      vertex -0.4650000000 -0.2500000000 0.1443374058
    endloop
  endfacet
  facet normal -0.0000001878 -0.4263531336 -0.9045568006
    outer loop
      vertex -0.4650000000 0.1900350000 -0.0808494000
      vertex -0.5000000000 0.1900350000 -0.0808493927
      vertex -0.4650000000 0.2500000000 -0.1091132588
    endloop
  endfacet
  facet normal -0.0000000795 -0.4263531853 -0.9045567762
    outer loop
      vertex -0.5000000000 0.1900350000 -0.0808493927
      vertex -0.5000000000 0.2500000000 -0.1091132557
      vertex -0.4650000000 0.2500000000 -0.1091132588
    endloop
  endfacet
  facet normal 0.0000000000 -0.8660270528 0.4999971438
    outer loop
      vertex -0.4650000000 -0.1650350000 0.1241510000
      vertex -0.5000000000 -0.1650350000 0.1241510000
      vertex -0.4650000000 -0.1900350000 0.0808494000
    endloop
  endfacet
  facet normal -0.0000001038 -0.8660270891 0.4999970809
    outer loop
      vertex -0.5000000000 -0.1650350000 0.1241510000
      vertex -0.5000000000 -0.1900350000 0.0808493927
      vertex -0.4650000000 -0.1900350000 0.0808494000
    endloop
  endfacet
  facet normal -1.0000000000 0.0000000000 0.0000000000
    outer loop
      vertex -0.4650000000 0.1650350000 -0.1241510000
      vertex -0.4650000000 0.1900350000 -0.0808494000
      vertex -0.4650000000 0.1941188680 -0.1443374058
    endloop
  endfacet
  facet normal -1.0000000000 0.0000000000 0.0000000000
    outer loop
      vertex -0.4650000000 0.1900350000 -0.0808494000
      vertex -0.4650000000 0.2500000000 -0.1091132588
      vertex -0.4650000000 0.1941188680 -0.1443374058
    endloop
  endfacet
  facet normal -1.0000000000 0.0000000000 0.0000000000
    outer loop
      vertex -0.4650000000 0.1941188680 -0.1443374058
      vertex -0.4650000000 0.2500000000 -0.1091132588
      vertex -0.4650000000 0.2500000000 -0.1443374058
    endloop
  endfacet
  facet normal -0.0000000000 -0.5701914169 0.8215118673
    outer loop
      vertex -0.5000000000 -0.1650350000 -0.1241510000
      vertex -0.5000000000 -0.1941188680 -0.1443374058
      vertex -0.4650000000 -0.1650350000 -0.1241510000
    endloop
  endfacet
  facet normal -0.0000000000 -0.5701914169 0.8215118673
    outer loop
      vertex -0.5000000000 -0.1941188680 -0.1443374058
      vertex -0.4650000000 -0.1941188680 -0.1443374058
      vertex -0.4650000000 -0.1650350000 -0.1241510000
    endloop
  endfacet
  facet normal 0.0000001038 0.8660270528 0.4999971438
    outer loop
      vertex 0.4650000000 0.1900350000 0.0808494000
      vertex 0.4650000000 0.1650350000 0.1241510000
      vertex 0.5000000000 0.1900350000 0.0808493927
    endloop
  endfacet
  facet normal -0.0000000000 0.8660270891 0.4999970809
    outer loop
      vertex 0.4650000000 0.1650350000 0.1241510000
      vertex 0.5000000000 0.1650350000 0.1241510000
      vertex 0.5000000000 0.1900350000 0.0808493927
    endloop
  endfacet
  facet normal 1.0000000000 0.0000000000 0.0000000000
    outer loop
      vertex 0.4650000000 0.1650350000 0.1241510000
      vertex 0.4650000000 0.1900350000 0.0808494000
      vertex 0.4650000000 0.1941188680 0.1443374058
    endloop
  endfacet
  facet normal 1.0000000000 0.0000000000 0.0000000000
    outer loop
      vertex 0.4650000000 0.1900350000 0.0808494000
      vertex 0.4650000000 0.2500000000 0.1091132588
      vertex 0.4650000000 0.1941188680 0.1443374058
    endloop
  endfacet
  facet normal 1.0000000000 0.0000000000 0.0000000000
    outer loop
      vertex 0.4650000000 0.1941188680 0.1443374058
      vertex 0.4650000000 0.2500000000 0.1091132588
      vertex 0.4650000000 0.2500000000 0.1443374058
    endloop
  endfacet
  facet normal 0.0000000000 0.8660270528 -0.4999971438
    outer loop
      vertex 0.1950000000 0.1650350000 -0.1241510000
      vertex 0.1950000000 0.1900350000 -0.0808494000
      vertex 0.4450000000 0.1650350000 -0.1241510000
    endloop
  endfacet
  facet normal 0.0000000000 0.8660270528 -0.4999971438
    outer loop
      vertex 0.1950000000 0.1900350000 -0.0808494000
      vertex 0.4450000000 0.1900350000 -0.0808494000
      vertex 0.4450000000 0.1650350000 -0.1241510000
    endloop
  endfacet
  facet normal 0.0000000000 -0.4263531336 -0.9045568006
    outer loop
      vertex 0.4450000000 0.1900350000 -0.0808494000
      vertex 0.1950000000 0.1900350000 -0.0808494000
      vertex 0.4450000000 0.2500000000 -0.1091132588
    endloop
  endfacet
  facet normal -0.0000000000 -0.4263531336 -0.9045568006
    outer loop
      vertex 0.1950000000 0.1900350000 -0.0808494000
      vertex 0.1950000000 0.2500000000 -0.1091132588
      vertex 0.4450000000 0.2500000000 -0.1091132588
    endloop
  endfacet
  facet normal 1.0000000000 0.0000000000 0.0000000000
    outer loop
      vertex 0.1950000000 0.2500000000 -0.1443374058
      vertex 0.1950000000 0.2500000000 -0.1091132588
      vertex 0.1950000000 0.1941188680 -0.1443374058
    endloop
  endfacet
  facet normal 1.0000000000 0.0000000000 -0.0000000000
    outer loop
      vertex 0.1950000000 0.2500000000 -0.1091132588
      vertex 0.1950000000 0.1900350000 -0.0808494000
      vertex 0.1950000000 0.1941188680 -0.1443374058
    endloop
  endfacet
  facet normal 1.0000000000 -0.0000000000 0.0000000000
    outer loop
      vertex 0.1950000000 0.1941188680 -0.1443374058
      vertex 0.1950000000 0.1900350000 -0.0808494000
      vertex 0.1950000000 0.1650350000 -0.1241510000
    endloop
  endfacet
  facet normal -1.0000000000 0.0000000000 0.0000000000
    outer loop
      vertex 0.4450000000 0.1650350000 -0.1241510000
      vertex 0.4450000000 0.1900350000 -0.0808494000
      vertex 0.4450000000 0.1941188680 -0.1443374058
    endloop
  endfacet
  facet normal -1.0000000000 0.0000000000 0.0000000000
    outer loop
      vertex 0.4450000000 0.1900350000 -0.0808494000
      vertex 0.4450000000 0.2500000000 -0.1091132588
      vertex 0.4450000000 0.1941188680 -0.1443374058
    endloop
  endfacet
  facet normal -1.0000000000 0.0000000000 0.0000000000
    outer loop
      vertex 0.4450000000 0.1941188680 -0.1443374058
      vertex 0.4450000000 0.2500000000 -0.1091132588
      vertex 0.4450000000 0.2500000000 -0.1443374058
    endloop
  endfacet
  facet normal -0.0000000000 0.5701914169 0.8215118673
    outer loop
      vertex 0.4450000000 0.1650350000 -0.1241510000
      vertex 0.4450000000 0.1941188680 -0.1443374058
      vertex 0.1950000000 0.1650350000 -0.1241510000
    endloop
  endfacet
  facet normal 0.0000000000 0.5701914169 0.8215118673
    outer loop
      vertex 0.4450000000 0.1941188680 -0.1443374058
      vertex 0.1950000000 0.1941188680 -0.1443374058
      vertex 0.1950000000 0.1650350000 -0.1241510000
    endloop
  endfacet
  facet normal 0.0000000000 0.8660270528 -0.4999971438
    outer loop
      vertex -0.1750000000 0.1650350000 -0.1241510000
      vertex -0.1750000000 0.1900350000 -0.0808494000
      vertex 0.1750000000 0.1650350000 -0.1241510000
    endloop
  endfacet
  facet normal 0.0000000000 0.8660270528 -0.4999971438
    outer loop
      vertex -0.1750000000 0.1900350000 -0.0808494000
      vertex 0.1750000000 0.1900350000 -0.0808494000
      vertex 0.1750000000 0.1650350000 -0.1241510000
    endloop
  endfacet
  facet normal -1.0000000000 0.0000000000 0.0000000000
    outer loop
      vertex 0.1750000000 0.1650350000 -0.1241510000
      vertex 0.1750000000 0.1900350000 -0.0808494000
      vertex 0.1750000000 0.1941188680 -0.1443374058
    endloop
  endfacet
  facet normal -1.0000000000 0.0000000000 0.0000000000
    outer loop
      vertex 0.1750000000 0.1900350000 -0.0808494000
      vertex 0.1750000000 0.2500000000 -0.1091132588
      vertex 0.1750000000 0.1941188680 -0.1443374058
    endloop
  endfacet
  facet normal -1.0000000000 0.0000000000 0.0000000000
    outer loop
      vertex 0.1750000000 0.1941188680 -0.1443374058
      vertex 0.1750000000 0.2500000000 -0.1091132588
      vertex 0.1750000000 0.2500000000 -0.1443374058
    endloop
  endfacet
  facet normal -0.0000000000 0.5701914169 0.8215118673
    outer loop
      vertex 0.1750000000 0.1650350000 -0.1241510000
      vertex 0.1750000000 0.1941188680 -0.1443374058
      vertex -0.1750000000 0.1650350000 -0.1241510000
    endloop
  endfacet
  facet normal 0.0000000000 0.5701914169 0.8215118673
    outer loop
      vertex 0.1750000000 0.1941188680 -0.1443374058
      vertex -0.1750000000 0.1941188680 -0.1443374058
      vertex -0.1750000000 0.1650350000 -0.1241510000
    endloop
  endfacet
  facet normal -0.0000000000 0.5701914169 0.8215118673
    outer loop
      vertex -0.1950000000 0.1650350000 -0.1241510000
      vertex -0.1950000000 0.1941188680 -0.1443374058
      vertex -0.4450000000 0.1650350000 -0.1241510000
    endloop
  endfacet
  facet normal 0.0000000000 0.5701914169 0.8215118673
    outer loop
      vertex -0.1950000000 0.1941188680 -0.1443374058
      vertex -0.4450000000 0.1941188680 -0.1443374058
      vertex -0.4450000000 0.1650350000 -0.1241510000
    endloop
  endfacet
  facet normal 1.0000000000 0.0000000000 0.0000000000
    outer loop
      vertex -0.4450000000 0.2500000000 -0.1443374058
      vertex -0.4450000000 0.2500000000 -0.1091132588
      vertex -0.4450000000 0.1941188680 -0.1443374058
    endloop
  endfacet
  facet normal 1.0000000000 0.0000000000 -0.0000000000
    outer loop
      vertex -0.4450000000 0.2500000000 -0.1091132588
      vertex -0.4450000000 0.1900350000 -0.0808494000
      vertex -0.4450000000 0.1941188680 -0.1443374058
    endloop
  endfacet
  facet normal 1.0000000000 -0.0000000000 0.0000000000
    outer loop
      vertex -0.4450000000 0.1941188680 -0.1443374058
      vertex -0.4450000000 0.1900350000 -0.0808494000
      vertex -0.4450000000 0.1650350000 -0.1241510000
    endloop
  endfacet
  facet normal -1.0000000000 0.0000000000 0.0000000000
    outer loop
      vertex -0.1950000000 0.1650350000 -0.1241510000
      vertex -0.1950000000 0.1900350000 -0.0808494000
      vertex -0.1950000000 0.1941188680 -0.1443374058
    endloop
  endfacet
  facet normal -1.0000000000 0.0000000000 0.0000000000
    outer loop
      vertex -0.1950000000 0.1900350000 -0.0808494000
      vertex -0.1950000000 0.2500000000 -0.1091132588
      vertex -0.1950000000 0.1941188680 -0.1443374058
    endloop
  endfacet
  facet normal -1.0000000000 0.0000000000 0.0000000000
    outer loop
      vertex -0.1950000000 0.1941188680 -0.1443374058
      vertex -0.1950000000 0.2500000000 -0.1091132588
      vertex -0.1950000000 0.2500000000 -0.1443374058
    endloop
  endfacet
  facet normal 0.0000000000 0.8660270528 -0.4999971438
    outer loop
      vertex -0.4450000000 0.1650350000 -0.1241510000
      vertex -0.4450000000 0.1900350000 -0.0808494000
      vertex -0.1950000000 0.1650350000 -0.1241510000
    endloop
  endfacet
  facet normal 0.0000000000 0.8660270528 -0.4999971438
    outer loop
      vertex -0.4450000000 0.1900350000 -0.0808494000
      vertex -0.1950000000 0.1900350000 -0.0808494000
      vertex -0.1950000000 0.1650350000 -0.1241510000
    endloop
  endfacet
  facet normal 0.0000000000 -0.4263531336 -0.9045568006
    outer loop
      vertex -0.1950000000 0.1900350000 -0.0808494000
      vertex -0.4450000000 0.1900350000 -0.0808494000
      vertex -0.1950000000 0.2500000000 -0.1091132588
    endloop
  endfacet
  facet normal -0.0000000000 -0.4263531336 -0.9045568006
    outer loop
      vertex -0.4450000000 0.1900350000 -0.0808494000
      vertex -0.4450000000 0.2500000000 -0.1091132588
      vertex -0.1950000000 0.2500000000 -0.1091132588
    endloop
  endfacet
  facet normal -0.0000000000 0.8660270528 0.4999971438
    outer loop
      vertex -0.1950000000 0.1650350000 0.1241510000
      vertex -0.1950000000 0.1900350000 0.0808494000
      vertex -0.4450000000 0.1650350000 0.1241510000
    endloop
  endfacet
  facet normal 0.0000000000 0.8660270528 0.4999971438
    outer loop
      vertex -0.1950000000 0.1900350000 0.0808494000
      vertex -0.4450000000 0.1900350000 0.0808494000
      vertex -0.4450000000 0.1650350000 0.1241510000
    endloop
  endfacet
  facet normal 0.0000000000 -0.4263531336 0.9045568006
    outer loop
      vertex -0.4450000000 0.1900350000 0.0808494000
      vertex -0.1950000000 0.1900350000 0.0808494000
      vertex -0.4450000000 0.2500000000 0.1091132588
    endloop
  endfacet
  facet normal 0.0000000000 -0.4263531336 0.9045568006
    outer loop
      vertex -0.1950000000 0.1900350000 0.0808494000
      vertex -0.1950000000 0.2500000000 0.1091132588
      vertex -0.4450000000 0.2500000000 0.1091132588
    endloop
  endfacet
  facet normal -1.0000000000 0.0000000000 0.0000000000
    outer loop
      vertex -0.1950000000 0.2500000000 0.1443374058
      vertex -0.1950000000 0.2500000000 0.1091132588
      vertex -0.1950000000 0.1941188680 0.1443374058
    endloop
  endfacet
  facet normal -1.0000000000 0.0000000000 -0.0000000000
    outer loop
      vertex -0.1950000000 0.2500000000 0.1091132588
      vertex -0.1950000000 0.1900350000 0.0808494000
      vertex -0.1950000000 0.1941188680 0.1443374058
    endloop
  endfacet
  facet normal -1.0000000000 0.0000000000 0.0000000000
    outer loop
      vertex -0.1950000000 0.1941188680 0.1443374058
      vertex -0.1950000000 0.1900350000 0.0808494000
      vertex -0.1950000000 0.1650350000 0.1241510000
    endloop
  endfacet
  facet normal 1.0000000000 0.0000000000 0.0000000000
    outer loop
      vertex -0.4450000000 0.1650350000 0.1241510000
      vertex -0.4450000000 0.1900350000 0.0808494000
      vertex -0.4450000000 0.1941188680 0.1443374058
    endloop
  endfacet
  facet normal 1.0000000000 0.0000000000 0.0000000000
    outer loop
      vertex -0.4450000000 0.1900350000 0.0808494000
      vertex -0.4450000000 0.2500000000 0.1091132588
      vertex -0.4450000000 0.1941188680 0.1443374058
    endloop
  endfacet
  facet normal 1.0000000000 0.0000000000 0.0000000000
    outer loop
      vertex -0.4450000000 0.1941188680 0.1443374058
      vertex -0.4450000000 0.2500000000 0.1091132588
      vertex -0.4450000000 0.2500000000 0.1443374058
    endloop
  endfacet
  facet normal 0.0000000000 0.5701914169 -0.8215118673
    outer loop
      vertex -0.1950000000 0.1650350000 0.1241510000
      vertex -0.4450000000 0.1650350000 0.1241510000
      vertex -0.1950000000 0.1941188680 0.1443374058
    endloop
  endfacet
  facet normal 0.0000000000 0.5701914169 -0.8215118673
    outer loop
      vertex -0.4450000000 0.1650350000 0.1241510000
      vertex -0.4450000000 0.1941188680 0.1443374058
      vertex -0.1950000000 0.1941188680 0.1443374058
    endloop
  endfacet
  facet normal -0.0000000000 0.8660270528 0.4999971438
    outer loop
      vertex 0.1750000000 0.1650350000 0.1241510000
      vertex 0.1750000000 0.1900350000 0.0808494000
      vertex -0.1750000000 0.1650350000 0.1241510000
    endloop
  endfacet
  facet normal 0.0000000000 0.8660270528 0.4999971438
    outer loop
      vertex 0.1750000000 0.1900350000 0.0808494000
      vertex -0.1750000000 0.1900350000 0.0808494000
      vertex -0.1750000000 0.1650350000 0.1241510000
    endloop
  endfacet
  facet normal 0.0000000000 -0.4263531336 0.9045568006
    outer loop
      vertex -0.1750000000 0.1900350000 0.0808494000
      vertex 0.1750000000 0.1900350000 0.0808494000
      vertex -0.1750000000 0.2500000000 0.1091132588
    endloop
  endfacet
  facet normal 0.0000000000 -0.4263531336 0.9045568006
    outer loop
      vertex 0.1750000000 0.1900350000 0.0808494000
      vertex 0.1750000000 0.2500000000 0.1091132588
      vertex -0.1750000000 0.2500000000 0.1091132588
    endloop
  endfacet
  facet normal -1.0000000000 0.0000000000 0.0000000000
    outer loop
      vertex 0.1750000000 0.2500000000 0.1443374058
      vertex 0.1750000000 0.2500000000 0.1091132588
      vertex 0.1750000000 0.1941188680 0.1443374058
    endloop
  endfacet
  facet normal -1.0000000000 0.0000000000 -0.0000000000
    outer loop
      vertex 0.1750000000 0.2500000000 0.1091132588
      vertex 0.1750000000 0.1900350000 0.0808494000
      vertex 0.1750000000 0.1941188680 0.1443374058
    endloop
  endfacet
  facet normal -1.0000000000 0.0000000000 0.0000000000
    outer loop
      vertex 0.1750000000 0.1941188680 0.1443374058
      vertex 0.1750000000 0.1900350000 0.0808494000
      vertex 0.1750000000 0.1650350000 0.1241510000
    endloop
  endfacet
  facet normal 1.0000000000 0.0000000000 0.0000000000
    outer loop
      vertex -0.1750000000 0.1650350000 0.1241510000
      vertex -0.1750000000 0.1900350000 0.0808494000
      vertex -0.1750000000 0.1941188680 0.1443374058
    endloop
  endfacet
  facet normal 1.0000000000 0.0000000000 0.0000000000
    outer loop
      vertex -0.1750000000 0.1900350000 0.0808494000
      vertex -0.1750000000 0.2500000000 0.1091132588
      vertex -0.1750000000 0.1941188680 0.1443374058
    endloop
  endfacet
  facet normal 1.0000000000 0.0000000000 0.0000000000
    outer loop
      vertex -0.1750000000 0.1941188680 0.1443374058
      vertex -0.1750000000 0.2500000000 0.1091132588
      vertex -0.1750000000 0.2500000000 0.1443374058
    endloop
  endfacet
  facet normal 0.0000000000 0.5701914169 -0.8215118673
    outer loop
      vertex 0.1750000000 0.1650350000 0.1241510000
      vertex -0.1750000000 0.1650350000 0.1241510000
      vertex 0.1750000000 0.1941188680 0.1443374058
    endloop
  endfacet
  facet normal 0.0000000000 0.5701914169 -0.8215118673
    outer loop
      vertex -0.1750000000 0.1650350000 0.1241510000
      vertex -0.1750000000 0.1941188680 0.1443374058
      vertex 0.1750000000 0.1941188680 0.1443374058
    endloop
  endfacet
  facet normal -0.0000000000 0.8660270528 0.4999971438
    outer loop
      vertex 0.4450000000 0.1650350000 0.1241510000
      vertex 0.4450000000 0.1900350000 0.0808494000
      vertex 0.1950000000 0.1650350000 0.1241510000
    endloop
  endfacet
  facet normal 0.0000000000 0.8660270528 0.4999971438
    outer loop
      vertex 0.4450000000 0.1900350000 0.0808494000
      vertex 0.1950000000 0.1900350000 0.0808494000
      vertex 0.1950000000 0.1650350000 0.1241510000
    endloop
  endfacet
  facet normal -1.0000000000 0.0000000000 0.0000000000
    outer loop
      vertex 0.4450000000 0.2500000000 0.1443374058
      vertex 0.4450000000 0.2500000000 0.1091132588
      vertex 0.4450000000 0.1941188680 0.1443374058
    endloop
  endfacet
  facet normal -1.0000000000 0.0000000000 -0.0000000000
    outer loop
      vertex 0.4450000000 0.2500000000 0.1091132588
      vertex 0.4450000000 0.1900350000 0.0808494000
      vertex 0.4450000000 0.1941188680 0.1443374058
    endloop
  endfacet
  facet normal -1.0000000000 0.0000000000 0.0000000000
    outer loop
      vertex 0.4450000000 0.1941188680 0.1443374058
      vertex 0.4450000000 0.1900350000 0.0808494000
      vertex 0.4450000000 0.1650350000 0.1241510000
    endloop
  endfacet
  facet normal 1.0000000000 0.0000000000 0.0000000000
    outer loop
      vertex 0.1950000000 0.1650350000 0.1241510000
      vertex 0.1950000000 0.1900350000 0.0808494000
      vertex 0.1950000000 0.1941188680 0.1443374058
    endloop
  endfacet
  facet normal 1.0000000000 0.0000000000 0.0000000000
    outer loop
      vertex 0.1950000000 0.1900350000 0.0808494000
      vertex 0.1950000000 0.2500000000 0.1091132588
      vertex 0.1950000000 0.1941188680 0.1443374058
    endloop
  endfacet
  facet normal 1.0000000000 0.0000000000 0.0000000000
    outer loop
      vertex 0.1950000000 0.1941188680 0.1443374058
      vertex 0.1950000000 0.2500000000 0.1091132588
      vertex 0.1950000000 0.2500000000 0.1443374058
    endloop
  endfacet
  facet normal 0.0000000000 0.5701914169 -0.8215118673
    outer loop
      vertex 0.4450000000 0.1650350000 0.1241510000
      vertex 0.1950000000 0.1650350000 0.1241510000
      vertex 0.4450000000 0.1941188680 0.1443374058
    endloop
  endfacet
  facet normal 0.0000000000 0.5701914169 -0.8215118673
    outer loop
      vertex 0.1950000000 0.1650350000 0.1241510000
      vertex 0.1950000000 0.1941188680 0.1443374058
      vertex 0.4450000000 0.1941188680 0.1443374058
    endloop
  endfacet
  facet normal 0.0000000000 -0.4263531336 0.9045568006
    outer loop
      vertex 0.1950000000 0.1900350000 0.0808494000
      vertex 0.4450000000 0.1900350000 0.0808494000
      vertex 0.1950000000 0.2500000000 0.1091132588
    endloop
  endfacet
  facet normal 0.0000000000 -0.4263531336 0.9045568006
    outer loop
      vertex 0.4450000000 0.1900350000 0.0808494000
      vertex 0.4450000000 0.2500000000 0.1091132588
      vertex 0.1950000000 0.2500000000 0.1091132588
    endloop
  endfacet
  facet normal 0.0000000000 -0.8660270528 -0.4999971438
    outer loop
      vertex -0.1950000000 -0.1650350000 -0.1241510000
      vertex -0.1950000000 -0.1900350000 -0.0808494000
      vertex -0.4450000000 -0.1650350000 -0.1241510000
    endloop
  endfacet
  facet normal 0.0000000000 -0.8660270528 -0.4999971438
    outer loop
      vertex -0.1950000000 -0.1900350000 -0.0808494000
      vertex -0.4450000000 -0.1900350000 -0.0808494000
      vertex -0.4450000000 -0.1650350000 -0.1241510000
    endloop
  endfacet
  facet normal 0.0000000000 -0.5701914169 0.8215118673
    outer loop
      vertex -0.4450000000 -0.1650350000 -0.1241510000
      vertex -0.4450000000 -0.1941188680 -0.1443374058
      vertex -0.1950000000 -0.1650350000 -0.1241510000
    endloop
  endfacet
  facet normal 0.0000000000 -0.5701914169 0.8215118673
    outer loop
      vertex -0.4450000000 -0.1941188680 -0.1443374058
      vertex -0.1950000000 -0.1941188680 -0.1443374058
      vertex -0.1950000000 -0.1650350000 -0.1241510000
    endloop
  endfacet
  facet normal -1.0000000000 0.0000000000 0.0000000000
    outer loop
      vertex -0.1950000000 -0.2500000000 -0.1443374058
      vertex -0.1950000000 -0.2500000000 -0.1091132588
      vertex -0.1950000000 -0.1941188680 -0.1443374058
    endloop
  endfacet
  facet normal -1.0000000000 0.0000000000 0.0000000000
    outer loop
      vertex -0.1950000000 -0.2500000000 -0.1091132588
      vertex -0.1950000000 -0.1900350000 -0.0808494000
      vertex -0.1950000000 -0.1941188680 -0.1443374058
    endloop
  endfacet
  facet normal -1.0000000000 -0.0000000000 0.0000000000
    outer loop
      vertex -0.1950000000 -0.1941188680 -0.1443374058
      vertex -0.1950000000 -0.1900350000 -0.0808494000
      vertex -0.1950000000 -0.1650350000 -0.1241510000
    endloop
  endfacet
  facet normal 1.0000000000 0.0000000000 0.0000000000
    outer loop
      vertex -0.4450000000 -0.1650350000 -0.1241510000
      vertex -0.4450000000 -0.1900350000 -0.0808494000
      vertex -0.4450000000 -0.1941188680 -0.1443374058
    endloop
  endfacet
  facet normal 1.0000000000 0.0000000000 -0.0000000000
    outer loop
      vertex -0.4450000000 -0.1900350000 -0.0808494000
      vertex -0.4450000000 -0.2500000000 -0.1091132588
      vertex -0.4450000000 -0.1941188680 -0.1443374058
    endloop
  endfacet
  facet normal 1.0000000000 0.0000000000 0.0000000000
    outer loop
      vertex -0.4450000000 -0.1941188680 -0.1443374058
      vertex -0.4450000000 -0.2500000000 -0.1091132588
      vertex -0.4450000000 -0.2500000000 -0.1443374058
    endloop
  endfacet
  facet normal 0.0000000000 0.4263531336 -0.9045568006
    outer loop
      vertex -0.1950000000 -0.1900350000 -0.0808494000
      vertex -0.1950000000 -0.2500000000 -0.1091132588
      vertex -0.4450000000 -0.1900350000 -0.0808494000
    endloop
  endfacet
  facet normal 0.0000000000 0.4263531336 -0.9045568006
    outer loop
      vertex -0.1950000000 -0.2500000000 -0.1091132588
      vertex -0.4450000000 -0.2500000000 -0.1091132588
      vertex -0.4450000000 -0.1900350000 -0.0808494000
    endloop
  endfacet
  facet normal 0.0000000000 -0.8660270528 -0.4999971438
    outer loop
      vertex 0.1750000000 -0.1650350000 -0.1241510000
      vertex 0.1750000000 -0.1900350000 -0.0808494000
      vertex -0.1750000000 -0.1650350000 -0.1241510000
    endloop
  endfacet
  facet normal 0.0000000000 -0.8660270528 -0.4999971438
    outer loop
      vertex 0.1750000000 -0.1900350000 -0.0808494000
      vertex -0.1750000000 -0.1900350000 -0.0808494000
      vertex -0.1750000000 -0.1650350000 -0.1241510000
    endloop
  endfacet
  facet normal 0.0000000000 -0.5701914169 0.8215118673
    outer loop
      vertex -0.1750000000 -0.1650350000 -0.1241510000
      vertex -0.1750000000 -0.1941188680 -0.1443374058
      vertex 0.1750000000 -0.1650350000 -0.1241510000
    endloop
  endfacet
  facet normal 0.0000000000 -0.5701914169 0.8215118673
    outer loop
      vertex -0.1750000000 -0.1941188680 -0.1443374058
      vertex 0.1750000000 -0.1941188680 -0.1443374058
      vertex 0.1750000000 -0.1650350000 -0.1241510000
    endloop
  endfacet
  facet normal -1.0000000000 0.0000000000 0.0000000000
    outer loop
      vertex 0.1750000000 -0.2500000000 -0.1443374058
      vertex 0.1750000000 -0.2500000000 -0.1091132588
      vertex 0.1750000000 -0.1941188680 -0.1443374058
    endloop
  endfacet
  facet normal -1.0000000000 0.0000000000 0.0000000000
    outer loop
      vertex 0.1750000000 -0.2500000000 -0.1091132588
      vertex 0.1750000000 -0.1900350000 -0.0808494000
      vertex 0.1750000000 -0.1941188680 -0.1443374058
    endloop
  endfacet
  facet normal -1.0000000000 -0.0000000000 0.0000000000
    outer loop
      vertex 0.1750000000 -0.1941188680 -0.1443374058
      vertex 0.1750000000 -0.1900350000 -0.0808494000
      vertex 0.1750000000 -0.1650350000 -0.1241510000
    endloop
  endfacet
  facet normal 1.0000000000 0.0000000000 0.0000000000
    outer loop
      vertex -0.1750000000 -0.1650350000 -0.1241510000
      vertex -0.1750000000 -0.1900350000 -0.0808494000
      vertex -0.1750000000 -0.1941188680 -0.1443374058
    endloop
  endfacet
  facet normal 1.0000000000 0.0000000000 -0.0000000000
    outer loop
      vertex -0.1750000000 -0.1900350000 -0.0808494000
      vertex -0.1750000000 -0.2500000000 -0.1091132588
      vertex -0.1750000000 -0.1941188680 -0.1443374058
    endloop
  endfacet
  facet normal 1.0000000000 0.0000000000 -0.0000000000
    outer loop
      vertex -0.1750000000 -0.1941188680 -0.1443374058
      vertex -0.1750000000 -0.2500000000 -0.1091132588
      vertex -0.1750000000 -0.2500000000 -0.1443374058
    endloop
  endfacet
  facet normal 0.0000000000 0.4263531336 -0.9045568006
    outer loop
      vertex 0.1750000000 -0.1900350000 -0.0808494000
      vertex 0.1750000000 -0.2500000000 -0.1091132588
      vertex -0.1750000000 -0.1900350000 -0.0808494000
    endloop
  endfacet
  facet normal 0.0000000000 0.4263531336 -0.9045568006
    outer loop
      vertex 0.1750000000 -0.2500000000 -0.1091132588
      vertex -0.1750000000 -0.2500000000 -0.1091132588
      vertex -0.1750000000 -0.1900350000 -0.0808494000
    endloop
  endfacet
endsolid automaticSTL