solid Onshape
  facet normal 0 -0.570192 -0.821511
    outer loop
      vertex -0.395 -0.165035 0.124151
      vertex -0.145 -0.165035 0.124151
      vertex -0.395 -0.577215 0.410235
    endloop
  endfacet
  facet normal 0 -0.570192 -0.821511
    outer loop
      vertex -0.145 -0.165035 0.124151
      vertex -0.145 -0.577215 0.410235
      vertex -0.395 -0.577215 0.410235
    endloop
  endfacet
  facet normal 0 -0.570192 -0.821511
    outer loop
      vertex -0.395 -0.577215 0.410235
      vertex -0.145 -0.577215 0.410235
      vertex -1.76436 -1.2339 0.866025
    endloop
  endfacet
  facet normal 0 -0.570192 -0.821511
    outer loop
      vertex -0.145 -0.577215 0.410235
      vertex -0.601453 -1.2339 0.866025
      vertex -1.76436 -1.2339 0.866025
    endloop
  endfacet
  facet normal -0.867655 0.430559 -0.248583
    outer loop
      vertex -0.145 -0.577215 0.410235
      vertex -0.145 -0.643881 0.294765
      vertex -0.601453 -1.2339 0.866025
    endloop
  endfacet
  facet normal -0.867655 0.430559 -0.248583
    outer loop
      vertex -0.145 -0.643881 0.294765
      vertex -0.685443 -1.5 0.698288
      vertex -0.601453 -1.2339 0.866025
    endloop
  endfacet
  facet normal -0.867655 0.430559 -0.248583
    outer loop
      vertex -0.601453 -1.2339 0.866025
      vertex -0.685443 -1.5 0.698288
      vertex -0.7335 -1.5 0.866025
    endloop
  endfacet
  facet normal -1 0 0
    outer loop
      vertex -0.145 -0.577215 0.410235
      vertex -0.145 -0.165035 0.124151
      vertex -0.145 -0.643881 0.294765
    endloop
  endfacet
  facet normal -1 0 0
    outer loop
      vertex -0.145 -0.165035 0.124151
      vertex -0.145 -0.190035 0.0808494
      vertex -0.145 -0.643881 0.294765
    endloop
  endfacet
  facet normal 0.502839 -0.748575 0.43219
    outer loop
      vertex -0.395 -0.643881 0.294765
      vertex -0.395 -0.577215 0.410235
      vertex -2.01633 -1.5 0.698288
    endloop
  endfacet
  facet normal 0.502839 -0.748575 0.43219
    outer loop
      vertex -0.395 -0.577215 0.410235
      vertex -1.76436 -1.2339 0.866025
      vertex -2.01633 -1.5 0.698288
    endloop
  endfacet
  facet normal 0.502839 -0.748575 0.43219
    outer loop
      vertex -2.01633 -1.5 0.698288
      vertex -1.76436 -1.2339 0.866025
      vertex -2.1605 -1.5 0.866025
    endloop
  endfacet
  facet normal 1 0 0
    outer loop
      vertex -0.395 -0.165035 0.124151
      vertex -0.395 -0.577215 0.410235
      vertex -0.395 -0.190035 0.0808494
    endloop
  endfacet
  facet normal 1 0 0
    outer loop
      vertex -0.395 -0.577215 0.410235
      vertex -0.395 -0.643881 0.294765
      vertex -0.395 -0.190035 0.0808494
    endloop
  endfacet
  facet normal 0 -0.866025 0.5
    outer loop
      vertex -0.395 -0.165035 0.124151
      vertex -0.395 -0.190035 0.0808494
      vertex -0.145 -0.165035 0.124151
    endloop
  endfacet
  facet normal 0 -0.866025 0.5
    outer loop
      vertex -0.395 -0.190035 0.0808494
      vertex -0.145 -0.190035 0.0808494
      vertex -0.145 -0.165035 0.124151
    endloop
  endfacet
  facet normal 0 0.426353 0.904557
    outer loop
      vertex -2.01633 -1.5 0.698288
      vertex -0.685443 -1.5 0.698288
      vertex -0.395 -0.643881 0.294765
    endloop
  endfacet
  facet normal 0 0.426353 0.904557
    outer loop
      vertex -0.685443 -1.5 0.698288
      vertex -0.145 -0.643881 0.294765
      vertex -0.395 -0.643881 0.294765
    endloop
  endfacet
  facet normal 0 0.426353 0.904557
    outer loop
      vertex -0.395 -0.643881 0.294765
      vertex -0.145 -0.643881 0.294765
      vertex -0.395 -0.190035 0.0808494
    endloop
  endfacet
  facet normal 0 0.426353 0.904557
    outer loop
      vertex -0.145 -0.643881 0.294765
      vertex -0.145 -0.190035 0.0808494
      vertex -0.395 -0.190035 0.0808494
    endloop
  endfacet
  facet normal 0 -0.570192 -0.821511
    outer loop
      vertex -0.125 -0.165035 0.124151
      vertex 0.125 -0.165035 0.124151
      vertex -0.125 -0.577215 0.410235
    endloop
  endfacet
  facet normal 0 -0.570192 -0.821511
    outer loop
      vertex 0.125 -0.165035 0.124151
      vertex 0.125 -0.577215 0.410235
      vertex -0.125 -0.577215 0.410235
    endloop
  endfacet
  facet normal 0 -0.570192 -0.821511
    outer loop
      vertex -0.125 -0.577215 0.410235
      vertex 0.125 -0.577215 0.410235
      vertex -0.581453 -1.2339 0.866025
    endloop
  endfacet
  facet normal 0 -0.570192 -0.821511
    outer loop
      vertex 0.125 -0.577215 0.410235
      vertex 0.581453 -1.2339 0.866025
      vertex -0.581453 -1.2339 0.866025
    endloop
  endfacet
  facet normal -0.867655 -0.430559 0.248583
    outer loop
      vertex 0.125 -0.577215 0.410235
      vertex 0.125 -0.643881 0.294765
      vertex 0.581453 -1.2339 0.866025
    endloop
  endfacet
  facet normal -0.867655 -0.430559 0.248583
    outer loop
      vertex 0.125 -0.643881 0.294765
      vertex 0.665443 -1.5 0.698288
      vertex 0.581453 -1.2339 0.866025
    endloop
  endfacet
  facet normal -0.867655 -0.430559 0.248583
    outer loop
      vertex 0.581453 -1.2339 0.866025
      vertex 0.665443 -1.5 0.698288
      vertex 0.7135 -1.5 0.866025
    endloop
  endfacet
  facet normal 0.867655 -0.430559 0.248583
    outer loop
      vertex -0.7135 -1.5 0.866025
      vertex -0.665443 -1.5 0.698288
      vertex -0.581453 -1.2339 0.866025
    endloop
  endfacet
  facet normal 0.867655 -0.430559 0.248583
    outer loop
      vertex -0.665443 -1.5 0.698288
      vertex -0.125 -0.643881 0.294765
      vertex -0.581453 -1.2339 0.866025
    endloop
  endfacet
  facet normal 0.867655 -0.430559 0.248583
    outer loop
      vertex -0.581453 -1.2339 0.866025
      vertex -0.125 -0.643881 0.294765
      vertex -0.125 -0.577215 0.410235
    endloop
  endfacet
  facet normal 0 0.426353 0.904557
    outer loop
      vertex -0.665443 -1.5 0.698288
      vertex 0.665443 -1.5 0.698288
      vertex -0.125 -0.643881 0.294765
    endloop
  endfacet
  facet normal 0 0.426353 0.904557
    outer loop
      vertex 0.665443 -1.5 0.698288
      vertex 0.125 -0.643881 0.294765
      vertex -0.125 -0.643881 0.294765
    endloop
  endfacet
  facet normal 0 0.426353 0.904557
    outer loop
      vertex -0.125 -0.643881 0.294765
      vertex 0.125 -0.643881 0.294765
      vertex -0.125 -0.190035 0.0808494
    endloop
  endfacet
  facet normal 0 0.426353 0.904557
    outer loop
      vertex 0.125 -0.643881 0.294765
      vertex 0.125 -0.190035 0.0808494
      vertex -0.125 -0.190035 0.0808494
    endloop
  endfacet
  facet normal 1 0 0
    outer loop
      vertex -0.125 -0.165035 0.124151
      vertex -0.125 -0.577215 0.410235
      vertex -0.125 -0.190035 0.0808494
    endloop
  endfacet
  facet normal 1 0 0
    outer loop
      vertex -0.125 -0.577215 0.410235
      vertex -0.125 -0.643881 0.294765
      vertex -0.125 -0.190035 0.0808494
    endloop
  endfacet
  facet normal 0 -0.866025 0.5
    outer loop
      vertex -0.125 -0.165035 0.124151
      vertex -0.125 -0.190035 0.0808494
      vertex 0.125 -0.165035 0.124151
    endloop
  endfacet
  facet normal 0 -0.866025 0.5
    outer loop
      vertex -0.125 -0.190035 0.0808494
      vertex 0.125 -0.190035 0.0808494
      vertex 0.125 -0.165035 0.124151
    endloop
  endfacet
  facet normal -1 0 0
    outer loop
      vertex 0.125 -0.165035 0.124151
      vertex 0.125 -0.190035 0.0808494
      vertex 0.125 -0.577215 0.410235
    endloop
  endfacet
  facet normal -1 0 0
    outer loop
      vertex 0.125 -0.190035 0.0808494
      vertex 0.125 -0.643881 0.294765
      vertex 0.125 -0.577215 0.410235
    endloop
  endfacet
  facet normal 0 -0.570192 -0.821511
    outer loop
      vertex 1.76436 -1.2339 0.866025
      vertex 0.601453 -1.2339 0.866025
      vertex 0.395 -0.577215 0.410235
    endloop
  endfacet
  facet normal 0 -0.570192 -0.821511
    outer loop
      vertex 0.601453 -1.2339 0.866025
      vertex 0.145 -0.577215 0.410235
      vertex 0.395 -0.577215 0.410235
    endloop
  endfacet
  facet normal 0 -0.570192 -0.821511
    outer loop
      vertex 0.395 -0.577215 0.410235
      vertex 0.145 -0.577215 0.410235
      vertex 0.395 -0.165035 0.124151
    endloop
  endfacet
  facet normal 0 -0.570192 -0.821511
    outer loop
      vertex 0.145 -0.577215 0.410235
      vertex 0.145 -0.165035 0.124151
      vertex 0.395 -0.165035 0.124151
    endloop
  endfacet
  facet normal -0.502839 -0.748575 0.43219
    outer loop
      vertex 0.395 -0.577215 0.410235
      vertex 0.395 -0.643881 0.294765
      vertex 1.76436 -1.2339 0.866025
    endloop
  endfacet
  facet normal -0.502839 -0.748575 0.43219
    outer loop
      vertex 0.395 -0.643881 0.294765
      vertex 2.01633 -1.5 0.698288
      vertex 1.76436 -1.2339 0.866025
    endloop
  endfacet
  facet normal -0.502839 -0.748575 0.43219
    outer loop
      vertex 1.76436 -1.2339 0.866025
      vertex 2.01633 -1.5 0.698288
      vertex 2.1605 -1.5 0.866025
    endloop
  endfacet
  facet normal 0.867655 0.430559 -0.248583
    outer loop
      vertex 0.7335 -1.5 0.866025
      vertex 0.685443 -1.5 0.698288
      vertex 0.601453 -1.2339 0.866025
    endloop
  endfacet
  facet normal 0.867655 0.430559 -0.248583
    outer loop
      vertex 0.685443 -1.5 0.698288
      vertex 0.145 -0.643881 0.294765
      vertex 0.601453 -1.2339 0.866025
    endloop
  endfacet
  facet normal 0.867655 0.430559 -0.248583
    outer loop
      vertex 0.601453 -1.2339 0.866025
      vertex 0.145 -0.643881 0.294765
      vertex 0.145 -0.577215 0.410235
    endloop
  endfacet
  facet normal 0 0.426353 0.904557
    outer loop
      vertex 0.395 -0.190035 0.0808494
      vertex 0.145 -0.190035 0.0808494
      vertex 0.395 -0.643881 0.294765
    endloop
  endfacet
  facet normal 0 0.426353 0.904557
    outer loop
      vertex 0.145 -0.190035 0.0808494
      vertex 0.145 -0.643881 0.294765
      vertex 0.395 -0.643881 0.294765
    endloop
  endfacet
  facet normal 0 0.426353 0.904557
    outer loop
      vertex 0.395 -0.643881 0.294765
      vertex 0.145 -0.643881 0.294765
      vertex 2.01633 -1.5 0.698288
    endloop
  endfacet
  facet normal 0 0.426353 0.904557
    outer loop
      vertex 0.145 -0.643881 0.294765
      vertex 0.685443 -1.5 0.698288
      vertex 2.01633 -1.5 0.698288
    endloop
  endfacet
  facet normal 1 0 0
    outer loop
      vertex 0.145 -0.577215 0.410235
      vertex 0.145 -0.643881 0.294765
      vertex 0.145 -0.165035 0.124151
    endloop
  endfacet
  facet normal 1 0 0
    outer loop
      vertex 0.145 -0.643881 0.294765
      vertex 0.145 -0.190035 0.0808494
      vertex 0.145 -0.165035 0.124151
    endloop
  endfacet
  facet normal 0 -0.866025 0.5
    outer loop
      vertex 0.145 -0.165035 0.124151
      vertex 0.145 -0.190035 0.0808494
      vertex 0.395 -0.165035 0.124151
    endloop
  endfacet
  facet normal 0 -0.866025 0.5
    outer loop
      vertex 0.145 -0.190035 0.0808494
      vertex 0.395 -0.190035 0.0808494
      vertex 0.395 -0.165035 0.124151
    endloop
  endfacet
  facet normal -1 0 0
    outer loop
      vertex 0.395 -0.165035 0.124151
      vertex 0.395 -0.190035 0.0808494
      vertex 0.395 -0.577215 0.410235
    endloop
  endfacet
  facet normal -1 0 0
    outer loop
      vertex 0.395 -0.190035 0.0808494
      vertex 0.395 -0.643881 0.294765
      vertex 0.395 -0.577215 0.410235
    endloop
  endfacet
  facet normal 1 0 0
    outer loop
      vertex 0.145 -0.577215 -0.410235
      vertex 0.145 -0.165035 -0.124151
      vertex 0.145 -0.643881 -0.294765
    endloop
  endfacet
  facet normal 1 0 0
    outer loop
      vertex 0.145 -0.165035 -0.124151
      vertex 0.145 -0.190035 -0.0808494
      vertex 0.145 -0.643881 -0.294765
    endloop
  endfacet
  facet normal -1 0 0
    outer loop
      vertex 0.395 -0.165035 -0.124151
      vertex 0.395 -0.577215 -0.410235
      vertex 0.395 -0.190035 -0.0808494
    endloop
  endfacet
  facet normal -1 0 0
    outer loop
      vertex 0.395 -0.577215 -0.410235
      vertex 0.395 -0.643881 -0.294765
      vertex 0.395 -0.190035 -0.0808494
    endloop
  endfacet
  facet normal 0 -0.866025 -0.5
    outer loop
      vertex 0.395 -0.165035 -0.124151
      vertex 0.395 -0.190035 -0.0808494
      vertex 0.145 -0.165035 -0.124151
    endloop
  endfacet
  facet normal 0 -0.866025 -0.5
    outer loop
      vertex 0.395 -0.190035 -0.0808494
      vertex 0.145 -0.190035 -0.0808494
      vertex 0.145 -0.165035 -0.124151
    endloop
  endfacet
  facet normal 0 -0.570192 0.821511
    outer loop
      vertex 0.395 -0.165035 -0.124151
      vertex 0.145 -0.165035 -0.124151
      vertex 0.395 -0.577215 -0.410235
    endloop
  endfacet
  facet normal 0 -0.570192 0.821511
    outer loop
      vertex 0.145 -0.165035 -0.124151
      vertex 0.145 -0.577215 -0.410235
      vertex 0.395 -0.577215 -0.410235
    endloop
  endfacet
  facet normal 0 -0.570192 0.821511
    outer loop
      vertex 0.395 -0.577215 -0.410235
      vertex 0.145 -0.577215 -0.410235
      vertex 1.76436 -1.2339 -0.866025
    endloop
  endfacet
  facet normal 0 -0.570192 0.821511
    outer loop
      vertex 0.145 -0.577215 -0.410235
      vertex 0.601453 -1.2339 -0.866025
      vertex 1.76436 -1.2339 -0.866025
    endloop
  endfacet
  facet normal 0.867655 0.430559 0.248583
    outer loop
      vertex 0.145 -0.577215 -0.410235
      vertex 0.145 -0.643881 -0.294765
      vertex 0.601453 -1.2339 -0.866025
    endloop
  endfacet
  facet normal 0.867655 0.430559 0.248583
    outer loop
      vertex 0.145 -0.643881 -0.294765
      vertex 0.685443 -1.5 -0.698288
      vertex 0.601453 -1.2339 -0.866025
    endloop
  endfacet
  facet normal 0.867655 0.430559 0.248583
    outer loop
      vertex 0.601453 -1.2339 -0.866025
      vertex 0.685443 -1.5 -0.698288
      vertex 0.7335 -1.5 -0.866025
    endloop
  endfacet
  facet normal -0.502839 -0.748575 -0.43219
    outer loop
      vertex 0.395 -0.643881 -0.294765
      vertex 0.395 -0.577215 -0.410235
      vertex 2.01633 -1.5 -0.698288
    endloop
  endfacet
  facet normal -0.502839 -0.748575 -0.43219
    outer loop
      vertex 0.395 -0.577215 -0.410235
      vertex 1.76436 -1.2339 -0.866025
      vertex 2.01633 -1.5 -0.698288
    endloop
  endfacet
  facet normal -0.502839 -0.748575 -0.43219
    outer loop
      vertex 2.01633 -1.5 -0.698288
      vertex 1.76436 -1.2339 -0.866025
      vertex 2.1605 -1.5 -0.866025
    endloop
  endfacet
  facet normal 0 0.426353 -0.904557
    outer loop
      vertex 2.01633 -1.5 -0.698288
      vertex 0.685443 -1.5 -0.698288
      vertex 0.395 -0.643881 -0.294765
    endloop
  endfacet
  facet normal 0 0.426353 -0.904557
    outer loop
      vertex 0.685443 -1.5 -0.698288
      vertex 0.145 -0.643881 -0.294765
      vertex 0.395 -0.643881 -0.294765
    endloop
  endfacet
  facet normal 0 0.426353 -0.904557
    outer loop
      vertex 0.395 -0.643881 -0.294765
      vertex 0.145 -0.643881 -0.294765
      vertex 0.395 -0.190035 -0.0808494
    endloop
  endfacet
  facet normal 0 0.426353 -0.904557
    outer loop
      vertex 0.145 -0.643881 -0.294765
      vertex 0.145 -0.190035 -0.0808494
      vertex 0.395 -0.190035 -0.0808494
    endloop
  endfacet
  facet normal 0 0.426353 -0.904557
    outer loop
      vertex -0.125 -0.190035 -0.0808494
      vertex 0.125 -0.190035 -0.0808494
      vertex -0.125 -0.643881 -0.294765
    endloop
  endfacet
  facet normal 0 0.426353 -0.904557
    outer loop
      vertex 0.125 -0.190035 -0.0808494
      vertex 0.125 -0.643881 -0.294765
      vertex -0.125 -0.643881 -0.294765
    endloop
  endfacet
  facet normal 0 0.426353 -0.904557
    outer loop
      vertex -0.125 -0.643881 -0.294765
      vertex 0.125 -0.643881 -0.294765
      vertex -0.665443 -1.5 -0.698288
    endloop
  endfacet
  facet normal 0 0.426353 -0.904557
    outer loop
      vertex 0.125 -0.643881 -0.294765
      vertex 0.665443 -1.5 -0.698288
      vertex -0.665443 -1.5 -0.698288
    endloop
  endfacet
  facet normal 0.867655 -0.430559 -0.248583
    outer loop
      vertex -0.125 -0.577215 -0.410235
      vertex -0.125 -0.643881 -0.294765
      vertex -0.581453 -1.2339 -0.866025
    endloop
  endfacet
  facet normal 0.867655 -0.430559 -0.248583
    outer loop
      vertex -0.125 -0.643881 -0.294765
      vertex -0.665443 -1.5 -0.698288
      vertex -0.581453 -1.2339 -0.866025
    endloop
  endfacet
  facet normal 0.867655 -0.430559 -0.248583
    outer loop
      vertex -0.581453 -1.2339 -0.866025
      vertex -0.665443 -1.5 -0.698288
      vertex -0.7135 -1.5 -0.866025
    endloop
  endfacet
  facet normal -0.867655 -0.430559 -0.248583
    outer loop
      vertex 0.7135 -1.5 -0.866025
      vertex 0.665443 -1.5 -0.698288
      vertex 0.581453 -1.2339 -0.866025
    endloop
  endfacet
  facet normal -0.867655 -0.430559 -0.248583
    outer loop
      vertex 0.665443 -1.5 -0.698288
      vertex 0.125 -0.643881 -0.294765
      vertex 0.581453 -1.2339 -0.866025
    endloop
  endfacet
  facet normal -0.867655 -0.430559 -0.248583
    outer loop
      vertex 0.581453 -1.2339 -0.866025
      vertex 0.125 -0.643881 -0.294765
      vertex 0.125 -0.577215 -0.410235
    endloop
  endfacet
  facet normal 0 -0.570192 0.821511
    outer loop
      vertex -0.581453 -1.2339 -0.866025
      vertex 0.581453 -1.2339 -0.866025
      vertex -0.125 -0.577215 -0.410235
    endloop
  endfacet
  facet normal 0 -0.570192 0.821511
    outer loop
      vertex 0.581453 -1.2339 -0.866025
      vertex 0.125 -0.577215 -0.410235
      vertex -0.125 -0.577215 -0.410235
    endloop
  endfacet
  facet normal 0 -0.570192 0.821511
    outer loop
      vertex -0.125 -0.577215 -0.410235
      vertex 0.125 -0.577215 -0.410235
      vertex -0.125 -0.165035 -0.124151
    endloop
  endfacet
  facet normal 0 -0.570192 0.821511
    outer loop
      vertex 0.125 -0.577215 -0.410235
      vertex 0.125 -0.165035 -0.124151
      vertex -0.125 -0.165035 -0.124151
    endloop
  endfacet
  facet normal 1 0 0
    outer loop
      vertex -0.125 -0.165035 -0.124151
      vertex -0.125 -0.190035 -0.0808494
      vertex -0.125 -0.577215 -0.410235
    endloop
  endfacet
  facet normal 1 0 0
    outer loop
      vertex -0.125 -0.190035 -0.0808494
      vertex -0.125 -0.643881 -0.294765
      vertex -0.125 -0.577215 -0.410235
    endloop
  endfacet
  facet normal 0 -0.866025 -0.5
    outer loop
      vertex 0.125 -0.165035 -0.124151
      vertex 0.125 -0.190035 -0.0808494
      vertex -0.125 -0.165035 -0.124151
    endloop
  endfacet
  facet normal 0 -0.866025 -0.5
    outer loop
      vertex 0.125 -0.190035 -0.0808494
      vertex -0.125 -0.190035 -0.0808494
      vertex -0.125 -0.165035 -0.124151
    endloop
  endfacet
  facet normal -1 0 0
    outer loop
      vertex 0.125 -0.165035 -0.124151
      vertex 0.125 -0.577215 -0.410235
      vertex 0.125 -0.190035 -0.0808494
    endloop
  endfacet
  facet normal -1 0 0
    outer loop
      vertex 0.125 -0.577215 -0.410235
      vertex 0.125 -0.643881 -0.294765
      vertex 0.125 -0.190035 -0.0808494
    endloop
  endfacet
  facet normal 0 0.426353 -0.904557
    outer loop
      vertex -0.395 -0.190035 -0.0808494
      vertex -0.145 -0.190035 -0.0808494
      vertex -0.395 -0.643881 -0.294765
    endloop
  endfacet
  facet normal 0 0.426353 -0.904557
    outer loop
      vertex -0.145 -0.190035 -0.0808494
      vertex -0.145 -0.643881 -0.294765
      vertex -0.395 -0.643881 -0.294765
    endloop
  endfacet
  facet normal 0 0.426353 -0.904557
    outer loop
      vertex -0.395 -0.643881 -0.294765
      vertex -0.145 -0.643881 -0.294765
      vertex -2.01633 -1.5 -0.698288
    endloop
  endfacet
  facet normal 0 0.426353 -0.904557
    outer loop
      vertex -0.145 -0.643881 -0.294765
      vertex -0.685443 -1.5 -0.698288
      vertex -2.01633 -1.5 -0.698288
    endloop
  endfacet
  facet normal 0.502839 -0.748575 -0.43219
    outer loop
      vertex -0.395 -0.577215 -0.410235
      vertex -0.395 -0.643881 -0.294765
      vertex -1.76436 -1.2339 -0.866025
    endloop
  endfacet
  facet normal 0.502839 -0.748575 -0.43219
    outer loop
      vertex -0.395 -0.643881 -0.294765
      vertex -2.01633 -1.5 -0.698288
      vertex -1.76436 -1.2339 -0.866025
    endloop
  endfacet
  facet normal 0.502839 -0.748575 -0.43219
    outer loop
      vertex -1.76436 -1.2339 -0.866025
      vertex -2.01633 -1.5 -0.698288
      vertex -2.1605 -1.5 -0.866025
    endloop
  endfacet
  facet normal -0.867655 0.430559 0.248583
    outer loop
      vertex -0.7335 -1.5 -0.866025
      vertex -0.685443 -1.5 -0.698288
      vertex -0.601453 -1.2339 -0.866025
    endloop
  endfacet
  facet normal -0.867655 0.430559 0.248583
    outer loop
      vertex -0.685443 -1.5 -0.698288
      vertex -0.145 -0.643881 -0.294765
      vertex -0.601453 -1.2339 -0.866025
    endloop
  endfacet
  facet normal -0.867655 0.430559 0.248583
    outer loop
      vertex -0.601453 -1.2339 -0.866025
      vertex -0.145 -0.643881 -0.294765
      vertex -0.145 -0.577215 -0.410235
    endloop
  endfacet
  facet normal 0 -0.570192 0.821511
    outer loop
      vertex -1.76436 -1.2339 -0.866025
      vertex -0.601453 -1.2339 -0.866025
      vertex -0.395 -0.577215 -0.410235
    endloop
  endfacet
  facet normal 0 -0.570192 0.821511
    outer loop
      vertex -0.601453 -1.2339 -0.866025
      vertex -0.145 -0.577215 -0.410235
      vertex -0.395 -0.577215 -0.410235
    endloop
  endfacet
  facet normal 0 -0.570192 0.821511
    outer loop
      vertex -0.395 -0.577215 -0.410235
      vertex -0.145 -0.577215 -0.410235
      vertex -0.395 -0.165035 -0.124151
    endloop
  endfacet
  facet normal 0 -0.570192 0.821511
    outer loop
      vertex -0.145 -0.577215 -0.410235
      vertex -0.145 -0.165035 -0.124151
      vertex -0.395 -0.165035 -0.124151
    endloop
  endfacet
  facet normal 1 0 0
    outer loop
      vertex -0.395 -0.165035 -0.124151
      vertex -0.395 -0.190035 -0.0808494
      vertex -0.395 -0.577215 -0.410235
    endloop
  endfacet
  facet normal 1 0 0
    outer loop
      vertex -0.395 -0.190035 -0.0808494
      vertex -0.395 -0.643881 -0.294765
      vertex -0.395 -0.577215 -0.410235
    endloop
  endfacet
  facet normal 0 -0.866025 -0.5
    outer loop
      vertex -0.145 -0.165035 -0.124151
      vertex -0.145 -0.190035 -0.0808494
      vertex -0.395 -0.165035 -0.124151
    endloop
  endfacet
  facet normal 0 -0.866025 -0.5
    outer loop
      vertex -0.145 -0.190035 -0.0808494
      vertex -0.395 -0.190035 -0.0808494
      vertex -0.395 -0.165035 -0.124151
    endloop
  endfacet
  facet normal -1 0 0
    outer loop
      vertex -0.145 -0.577215 -0.410235
      vertex -0.145 -0.643881 -0.294765
      vertex -0.145 -0.165035 -0.124151
    endloop
  endfacet
  facet normal -1 0 0
    outer loop
      vertex -0.145 -0.643881 -0.294765
      vertex -0.145 -0.190035 -0.0808494
      vertex -0.145 -0.165035 -0.124151
    endloop
  endfacet
  facet normal 0 -0.426353 0.904557
    outer loop
      vertex 2.01633 1.5 0.698288
      vertex 0.685443 1.5 0.698288
      vertex 0.395 0.643881 0.294765
    endloop
  endfacet
  facet normal 0 -0.426353 0.904557
    outer loop
      vertex 0.685443 1.5 0.698288
      vertex 0.145 0.643881 0.294765
      vertex 0.395 0.643881 0.294765
    endloop
  endfacet
  facet normal 0 -0.426353 0.904557
    outer loop
      vertex 0.395 0.643881 0.294765
      vertex 0.145 0.643881 0.294765
      vertex 0.395 0.190035 0.0808494
    endloop
  endfacet
  facet normal 0 -0.426353 0.904557
    outer loop
      vertex 0.145 0.643881 0.294765
      vertex 0.145 0.190035 0.0808494
      vertex 0.395 0.190035 0.0808494
    endloop
  endfacet
  facet normal 0 0.570192 -0.821511
    outer loop
      vertex 0.395 0.165035 0.124151
      vertex 0.145 0.165035 0.124151
      vertex 0.395 0.577215 0.410235
    endloop
  endfacet
  facet normal 0 0.570192 -0.821511
    outer loop
      vertex 0.145 0.165035 0.124151
      vertex 0.145 0.577215 0.410235
      vertex 0.395 0.577215 0.410235
    endloop
  endfacet
  facet normal 0 0.570192 -0.821511
    outer loop
      vertex 0.395 0.577215 0.410235
      vertex 0.145 0.577215 0.410235
      vertex 1.76436 1.2339 0.866025
    endloop
  endfacet
  facet normal 0 0.570192 -0.821511
    outer loop
      vertex 0.145 0.577215 0.410235
      vertex 0.601453 1.2339 0.866025
      vertex 1.76436 1.2339 0.866025
    endloop
  endfacet
  facet normal 0.867655 -0.430559 -0.248583
    outer loop
      vertex 0.145 0.577215 0.410235
      vertex 0.145 0.643881 0.294765
      vertex 0.601453 1.2339 0.866025
    endloop
  endfacet
  facet normal 0.867655 -0.430559 -0.248583
    outer loop
      vertex 0.145 0.643881 0.294765
      vertex 0.685443 1.5 0.698288
      vertex 0.601453 1.2339 0.866025
    endloop
  endfacet
  facet normal 0.867655 -0.430559 -0.248583
    outer loop
      vertex 0.601453 1.2339 0.866025
      vertex 0.685443 1.5 0.698288
      vertex 0.7335 1.5 0.866025
    endloop
  endfacet
  facet normal 1 0 0
    outer loop
      vertex 0.145 0.577215 0.410235
      vertex 0.145 0.165035 0.124151
      vertex 0.145 0.643881 0.294765
    endloop
  endfacet
  facet normal 1 0 0
    outer loop
      vertex 0.145 0.165035 0.124151
      vertex 0.145 0.190035 0.0808494
      vertex 0.145 0.643881 0.294765
    endloop
  endfacet
  facet normal -0.502839 0.748575 0.43219
    outer loop
      vertex 0.395 0.643881 0.294765
      vertex 0.395 0.577215 0.410235
      vertex 2.01633 1.5 0.698288
    endloop
  endfacet
  facet normal -0.502839 0.748575 0.43219
    outer loop
      vertex 0.395 0.577215 0.410235
      vertex 1.76436 1.2339 0.866025
      vertex 2.01633 1.5 0.698288
    endloop
  endfacet
  facet normal -0.502839 0.748575 0.43219
    outer loop
      vertex 2.01633 1.5 0.698288
      vertex 1.76436 1.2339 0.866025
      vertex 2.1605 1.5 0.866025
    endloop
  endfacet
  facet normal -1 0 0
    outer loop
      vertex 0.395 0.165035 0.124151
      vertex 0.395 0.577215 0.410235
      vertex 0.395 0.190035 0.0808494
    endloop
  endfacet
  facet normal -1 0 0
    outer loop
      vertex 0.395 0.577215 0.410235
      vertex 0.395 0.643881 0.294765
      vertex 0.395 0.190035 0.0808494
    endloop
  endfacet
  facet normal 0 0.866025 0.5
    outer loop
      vertex 0.395 0.165035 0.124151
      vertex 0.395 0.190035 0.0808494
      vertex 0.145 0.165035 0.124151
    endloop
  endfacet
  facet normal 0 0.866025 0.5
    outer loop
      vertex 0.395 0.190035 0.0808494
      vertex 0.145 0.190035 0.0808494
      vertex 0.145 0.165035 0.124151
    endloop
  endfacet
  facet normal 0 0.570192 -0.821511
    outer loop
      vertex 0.125 0.165035 0.124151
      vertex -0.125 0.165035 0.124151
      vertex 0.125 0.577215 0.410235
    endloop
  endfacet
  facet normal 0 0.570192 -0.821511
    outer loop
      vertex -0.125 0.165035 0.124151
      vertex -0.125 0.577215 0.410235
      vertex 0.125 0.577215 0.410235
    endloop
  endfacet
  facet normal 0 0.570192 -0.821511
    outer loop
      vertex 0.125 0.577215 0.410235
      vertex -0.125 0.577215 0.410235
      vertex 0.581453 1.2339 0.866025
    endloop
  endfacet
  facet normal 0 0.570192 -0.821511
    outer loop
      vertex -0.125 0.577215 0.410235
      vertex -0.581453 1.2339 0.866025
      vertex 0.581453 1.2339 0.866025
    endloop
  endfacet
  facet normal 0.867655 0.430559 0.248583
    outer loop
      vertex -0.125 0.577215 0.410235
      vertex -0.125 0.643881 0.294765
      vertex -0.581453 1.2339 0.866025
    endloop
  endfacet
  facet normal 0.867655 0.430559 0.248583
    outer loop
      vertex -0.125 0.643881 0.294765
      vertex -0.665443 1.5 0.698288
      vertex -0.581453 1.2339 0.866025
    endloop
  endfacet
  facet normal 0.867655 0.430559 0.248583
    outer loop
      vertex -0.581453 1.2339 0.866025
      vertex -0.665443 1.5 0.698288
      vertex -0.7135 1.5 0.866025
    endloop
  endfacet
  facet normal -0.867655 0.430559 0.248583
    outer loop
      vertex 0.7135 1.5 0.866025
      vertex 0.665443 1.5 0.698288
      vertex 0.581453 1.2339 0.866025
    endloop
  endfacet
  facet normal -0.867655 0.430559 0.248583
    outer loop
      vertex 0.665443 1.5 0.698288
      vertex 0.125 0.643881 0.294765
      vertex 0.581453 1.2339 0.866025
    endloop
  endfacet
  facet normal -0.867655 0.430559 0.248583
    outer loop
      vertex 0.581453 1.2339 0.866025
      vertex 0.125 0.643881 0.294765
      vertex 0.125 0.577215 0.410235
    endloop
  endfacet
  facet normal 0.502839 -0.748575 0.43219
    outer loop
      vertex 0.415 0.643881 -0.294765
      vertex 0.415 0.577215 -0.410235
      vertex 2.03633 1.5 -0.698288
    endloop
  endfacet
  facet normal 0.502839 -0.748575 0.43219
    outer loop
      vertex 0.415 0.577215 -0.410235
      vertex 1.78436 1.2339 -0.866025
      vertex 2.03633 1.5 -0.698288
    endloop
  endfacet
  facet normal 0.502839 -0.748575 0.43219
    outer loop
      vertex 2.03633 1.5 -0.698288
      vertex 1.78436 1.2339 -0.866025
      vertex 2.1805 1.5 -0.866025
    endloop
  endfacet
  facet normal 1 0 0
    outer loop
      vertex 0.415 0.577215 -0.410235
      vertex 0.415 0.643881 -0.294765
      vertex 0.415 0.165035 -0.124151
    endloop
  endfacet
  facet normal 1 0 0
    outer loop
      vertex 0.415 0.643881 -0.294765
      vertex 0.415 0.190035 -0.0808494
      vertex 0.415 0.165035 -0.124151
    endloop
  endfacet
  facet normal 0 -0.866025 0.5
    outer loop
      vertex 0.415 -0.165035 0.124151
      vertex 0.415 -0.190035 0.0808494
      vertex 2.5 -0.165035 0.124151
    endloop
  endfacet
  facet normal 0 -0.866025 0.5
    outer loop
      vertex 0.415 -0.190035 0.0808494
      vertex 2.5 -0.190035 0.0808494
      vertex 2.5 -0.165035 0.124151
    endloop
  endfacet
  facet normal 0 0.426353 0.904557
    outer loop
      vertex 0.415 -0.190035 0.0808494
      vertex 0.415 -0.643881 0.294765
      vertex 2.5 -0.190035 0.0808494
    endloop
  endfacet
  facet normal -6.18051e-9 0.426353 0.904557
    outer loop
      vertex 0.415 -0.643881 0.294765
      vertex 2.03633 -1.5 0.698288
      vertex 2.5 -0.190035 0.0808494
    endloop
  endfacet
  facet normal 0 0.426353 0.904557
    outer loop
      vertex 2.5 -0.190035 0.0808494
      vertex 2.03633 -1.5 0.698288
      vertex 2.5 -1.5 0.698288
    endloop
  endfacet
  facet normal -1 0 0
    outer loop
      vertex 0.395 0.165035 -0.124151
      vertex 0.395 0.190035 -0.0808494
      vertex 0.395 0.577215 -0.410235
    endloop
  endfacet
  facet normal -1 0 0
    outer loop
      vertex 0.395 0.190035 -0.0808494
      vertex 0.395 0.643881 -0.294765
      vertex 0.395 0.577215 -0.410235
    endloop
  endfacet
  facet normal 3.81461e-8 -0.570192 -0.821511
    outer loop
      vertex 0.415 -0.577215 0.410235
      vertex 0.415 -0.165035 0.124151
      vertex 1.78436 -1.2339 0.866025
    endloop
  endfacet
  facet normal 0 -0.570192 -0.821511
    outer loop
      vertex 0.415 -0.165035 0.124151
      vertex 2.5 -0.165035 0.124151
      vertex 1.78436 -1.2339 0.866025
    endloop
  endfacet
  facet normal 0 -0.570192 -0.821511
    outer loop
      vertex 1.78436 -1.2339 0.866025
      vertex 2.5 -0.165035 0.124151
      vertex 2.5 -1.2339 0.866025
    endloop
  endfacet
  facet normal 0 0.866025 -0.5
    outer loop
      vertex -0.395 0.165035 -0.124151
      vertex -0.395 0.190035 -0.0808494
      vertex -0.145 0.165035 -0.124151
    endloop
  endfacet
  facet normal 0 0.866025 -0.5
    outer loop
      vertex -0.395 0.190035 -0.0808494
      vertex -0.145 0.190035 -0.0808494
      vertex -0.145 0.165035 -0.124151
    endloop
  endfacet
  facet normal 3.81461e-8 0.570192 0.821511
    outer loop
      vertex 0.415 0.577215 -0.410235
      vertex 0.415 0.165035 -0.124151
      vertex 1.78436 1.2339 -0.866025
    endloop
  endfacet
  facet normal 0 0.570192 0.821511
    outer loop
      vertex 0.415 0.165035 -0.124151
      vertex 2.5 0.165035 -0.124151
      vertex 1.78436 1.2339 -0.866025
    endloop
  endfacet
  facet normal 0 0.570192 0.821511
    outer loop
      vertex 1.78436 1.2339 -0.866025
      vertex 2.5 0.165035 -0.124151
      vertex 2.5 1.2339 -0.866025
    endloop
  endfacet
  facet normal -0.502839 -0.748575 -0.43219
    outer loop
      vertex -0.415 0.643881 0.294765
      vertex -0.415 0.577215 0.410235
      vertex -2.03633 1.5 0.698288
    endloop
  endfacet
  facet normal -0.502839 -0.748575 -0.43219
    outer loop
      vertex -0.415 0.577215 0.410235
      vertex -1.78436 1.2339 0.866025
      vertex -2.03633 1.5 0.698288
    endloop
  endfacet
  facet normal -0.502839 -0.748575 -0.43219
    outer loop
      vertex -2.03633 1.5 0.698288
      vertex -1.78436 1.2339 0.866025
      vertex -2.1805 1.5 0.866025
    endloop
  endfacet
  facet normal 1 0 0
    outer loop
      vertex 0.415 -0.577215 0.410235
      vertex 0.415 -0.643881 0.294765
      vertex 0.415 -0.165035 0.124151
    endloop
  endfacet
  facet normal 1 0 0
    outer loop
      vertex 0.415 -0.643881 0.294765
      vertex 0.415 -0.190035 0.0808494
      vertex 0.415 -0.165035 0.124151
    endloop
  endfacet
  facet normal -2.11734e-8 0.426353 -0.904557
    outer loop
      vertex 0.415 -0.643881 -0.294765
      vertex 0.415 -0.190035 -0.0808494
      vertex 2.03633 -1.5 -0.698288
    endloop
  endfacet
  facet normal 2.35221e-9 0.426353 -0.904557
    outer loop
      vertex 0.415 -0.190035 -0.0808494
      vertex 2.5 -0.190035 -0.0808493
      vertex 2.03633 -1.5 -0.698288
    endloop
  endfacet
  facet normal 0 0.426353 -0.904557
    outer loop
      vertex 2.03633 -1.5 -0.698288
      vertex 2.5 -0.190035 -0.0808493
      vertex 2.5 -1.5 -0.698288
    endloop
  endfacet
  facet normal 0 -0.426353 -0.904557
    outer loop
      vertex 0.415 0.190035 -0.0808494
      vertex 0.415 0.643881 -0.294765
      vertex 2.5 0.190035 -0.0808494
    endloop
  endfacet
  facet normal -6.18051e-9 -0.426353 -0.904557
    outer loop
      vertex 0.415 0.643881 -0.294765
      vertex 2.03633 1.5 -0.698288
      vertex 2.5 0.190035 -0.0808494
    endloop
  endfacet
  facet normal 0 -0.426353 -0.904557
    outer loop
      vertex 2.5 0.190035 -0.0808494
      vertex 2.03633 1.5 -0.698288
      vertex 2.5 1.5 -0.698288
    endloop
  endfacet
  facet normal -0.867655 -0.430559 -0.248583
    outer loop
      vertex -0.7335 1.5 0.866025
      vertex -0.685443 1.5 0.698288
      vertex -0.601453 1.2339 0.866025
    endloop
  endfacet
  facet normal -0.867655 -0.430559 -0.248583
    outer loop
      vertex -0.685443 1.5 0.698288
      vertex -0.145 0.643881 0.294765
      vertex -0.601453 1.2339 0.866025
    endloop
  endfacet
  facet normal -0.867655 -0.430559 -0.248583
    outer loop
      vertex -0.601453 1.2339 0.866025
      vertex -0.145 0.643881 0.294765
      vertex -0.145 0.577215 0.410235
    endloop
  endfacet
  facet normal 0 0.866025 0.5
    outer loop
      vertex -0.415 0.190035 0.0808494
      vertex -2.5 0.190035 0.0808494
      vertex -0.415 0.165035 0.124151
    endloop
  endfacet
  facet normal 0 0.866025 0.5
    outer loop
      vertex -2.5 0.190035 0.0808494
      vertex -2.5 0.165035 0.124151
      vertex -0.415 0.165035 0.124151
    endloop
  endfacet
  facet normal 1 0 0
    outer loop
      vertex -0.395 0.165035 -0.124151
      vertex -0.395 0.577215 -0.410235
      vertex -0.395 0.190035 -0.0808494
    endloop
  endfacet
  facet normal 1 0 0
    outer loop
      vertex -0.395 0.577215 -0.410235
      vertex -0.395 0.643881 -0.294765
      vertex -0.395 0.190035 -0.0808494
    endloop
  endfacet
  facet normal -0.502839 0.748575 0.43219
    outer loop
      vertex -0.415 -0.643881 -0.294765
      vertex -0.415 -0.577215 -0.410235
      vertex -2.03633 -1.5 -0.698288
    endloop
  endfacet
  facet normal -0.502839 0.748575 0.43219
    outer loop
      vertex -0.415 -0.577215 -0.410235
      vertex -1.78436 -1.2339 -0.866025
      vertex -2.03633 -1.5 -0.698288
    endloop
  endfacet
  facet normal -0.502839 0.748575 0.43219
    outer loop
      vertex -2.03633 -1.5 -0.698288
      vertex -1.78436 -1.2339 -0.866025
      vertex -2.1805 -1.5 -0.866025
    endloop
  endfacet
  facet normal 0.502839 0.748575 -0.43219
    outer loop
      vertex 0.415 -0.643881 0.294765
      vertex 0.415 -0.577215 0.410235
      vertex 2.03633 -1.5 0.698288
    endloop
  endfacet
  facet normal 0.502839 0.748575 -0.43219
    outer loop
      vertex 0.415 -0.577215 0.410235
      vertex 1.78436 -1.2339 0.866025
      vertex 2.03633 -1.5 0.698288
    endloop
  endfacet
  facet normal 0.502839 0.748575 -0.43219
    outer loop
      vertex 2.03633 -1.5 0.698288
      vertex 1.78436 -1.2339 0.866025
      vertex 2.1805 -1.5 0.866025
    endloop
  endfacet
  facet normal -3.81461e-8 -0.570192 0.821511
    outer loop
      vertex -0.415 -0.577215 -0.410235
      vertex -0.415 -0.165035 -0.124151
      vertex -1.78436 -1.2339 -0.866025
    endloop
  endfacet
  facet normal 0 -0.570192 0.821511
    outer loop
      vertex -0.415 -0.165035 -0.124151
      vertex -2.5 -0.165035 -0.124151
      vertex -1.78436 -1.2339 -0.866025
    endloop
  endfacet
  facet normal 0 -0.570192 0.821511
    outer loop
      vertex -1.78436 -1.2339 -0.866025
      vertex -2.5 -0.165035 -0.124151
      vertex -2.5 -1.2339 -0.866025
    endloop
  endfacet
  facet normal 0 0.426353 -0.904557
    outer loop
      vertex -0.415 -0.190035 -0.0808494
      vertex -0.415 -0.643881 -0.294765
      vertex -2.5 -0.190035 -0.0808494
    endloop
  endfacet
  facet normal 6.18051e-9 0.426353 -0.904557
    outer loop
      vertex -0.415 -0.643881 -0.294765
      vertex -2.03633 -1.5 -0.698288
      vertex -2.5 -0.190035 -0.0808494
    endloop
  endfacet
  facet normal 0 0.426353 -0.904557
    outer loop
      vertex -2.5 -0.190035 -0.0808494
      vertex -2.03633 -1.5 -0.698288
      vertex -2.5 -1.5 -0.698288
    endloop
  endfacet
  facet normal -1 0 0
    outer loop
      vertex -0.415 -0.577215 -0.410235
      vertex -0.415 -0.643881 -0.294765
      vertex -0.415 -0.165035 -0.124151
    endloop
  endfacet
  facet normal -1 0 0
    outer loop
      vertex -0.415 -0.643881 -0.294765
      vertex -0.415 -0.190035 -0.0808494
      vertex -0.415 -0.165035 -0.124151
    endloop
  endfacet
  facet normal -1 0 0
    outer loop
      vertex -2.5 1.5 0.698288
      vertex -2.5 1.5 -0.698288
      vertex -2.5 0.190035 0.0808494
    endloop
  endfacet
  facet normal -1 0 0
    outer loop
      vertex -2.5 1.5 -0.698288
      vertex -2.5 0.190035 -0.0808493
      vertex -2.5 0.190035 0.0808494
    endloop
  endfacet
  facet normal -1 0 0
    outer loop
      vertex -2.5 0.190035 0.0808494
      vertex -2.5 0.190035 -0.0808493
      vertex -2.5 0.165035 0.124151
    endloop
  endfacet
  facet normal -1 0 0
    outer loop
      vertex -2.5 -1.5 -0.698288
      vertex -2.5 -1.5 0.698288
      vertex -2.5 -0.190035 -0.0808494
    endloop
  endfacet
  facet normal -1 0 0
    outer loop
      vertex -2.5 -1.5 0.698288
      vertex -2.5 -0.190035 0.0808493
      vertex -2.5 -0.190035 -0.0808494
    endloop
  endfacet
  facet normal -1 0 0
    outer loop
      vertex -2.5 -0.190035 -0.0808494
      vertex -2.5 -0.190035 0.0808493
      vertex -2.5 -0.165035 -0.124151
    endloop
  endfacet
  facet normal -1 0 0
    outer loop
      vertex -2.5 -1.2339 0.866025
      vertex -2.5 1.2339 0.866025
      vertex -2.5 -0.165035 0.124151
    endloop
  endfacet
  facet normal -1 0 0
    outer loop
      vertex -2.5 1.2339 0.866025
      vertex -2.5 0.165035 0.124151
      vertex -2.5 -0.165035 0.124151
    endloop
  endfacet
  facet normal -1 0 0
    outer loop
      vertex -2.5 -0.165035 0.124151
      vertex -2.5 0.165035 0.124151
      vertex -2.5 -0.190035 0.0808493
    endloop
  endfacet
  facet normal -1 0 0
    outer loop
      vertex -2.5 0.165035 0.124151
      vertex -2.5 0.190035 -0.0808493
      vertex -2.5 -0.190035 0.0808493
    endloop
  endfacet
  facet normal -1 0 0
    outer loop
      vertex -2.5 -0.190035 0.0808493
      vertex -2.5 0.190035 -0.0808493
      vertex -2.5 -0.165035 -0.124151
    endloop
  endfacet
  facet normal -1 0 0
    outer loop
      vertex -2.5 0.190035 -0.0808493
      vertex -2.5 0.165035 -0.124151
      vertex -2.5 -0.165035 -0.124151
    endloop
  endfacet
  facet normal -1 0 0
    outer loop
      vertex -2.5 -0.165035 -0.124151
      vertex -2.5 0.165035 -0.124151
      vertex -2.5 -1.2339 -0.866025
    endloop
  endfacet
  facet normal -1 0 0
    outer loop
      vertex -2.5 0.165035 -0.124151
      vertex -2.5 1.2339 -0.866025
      vertex -2.5 -1.2339 -0.866025
    endloop
  endfacet
  facet normal 1 0 0
    outer loop
      vertex 2.5 1.5 -0.698288
      vertex 2.5 1.5 0.698288
      vertex 2.5 0.190035 -0.0808494
    endloop
  endfacet
  facet normal 1 0 0
    outer loop
      vertex 2.5 1.5 0.698288
      vertex 2.5 0.190035 0.0808493
      vertex 2.5 0.190035 -0.0808494
    endloop
  endfacet
  facet normal 1 0 0
    outer loop
      vertex 2.5 0.190035 -0.0808494
      vertex 2.5 0.190035 0.0808493
      vertex 2.5 0.165035 -0.124151
    endloop
  endfacet
  facet normal 1 0 0
    outer loop
      vertex 2.5 -1.5 0.698288
      vertex 2.5 -1.5 -0.698288
      vertex 2.5 -0.190035 0.0808494
    endloop
  endfacet
  facet normal 1 0 0
    outer loop
      vertex 2.5 -1.5 -0.698288
      vertex 2.5 -0.190035 -0.0808493
      vertex 2.5 -0.190035 0.0808494
    endloop
  endfacet
  facet normal 1 0 0
    outer loop
      vertex 2.5 -0.190035 0.0808494
      vertex 2.5 -0.190035 -0.0808493
      vertex 2.5 -0.165035 0.124151
    endloop
  endfacet
  facet normal 1 0 0
    outer loop
      vertex 2.5 1.2339 0.866025
      vertex 2.5 -1.2339 0.866025
      vertex 2.5 0.165035 0.124151
    endloop
  endfacet
  facet normal 1 0 0
    outer loop
      vertex 2.5 -1.2339 0.866025
      vertex 2.5 -0.165035 0.124151
      vertex 2.5 0.165035 0.124151
    endloop
  endfacet
  facet normal 1 0 0
    outer loop
      vertex 2.5 0.165035 0.124151
      vertex 2.5 -0.165035 0.124151
      vertex 2.5 0.190035 0.0808493
    endloop
  endfacet
  facet normal 1 0 0
    outer loop
      vertex 2.5 -0.165035 0.124151
      vertex 2.5 -0.190035 -0.0808493
      vertex 2.5 0.190035 0.0808493
    endloop
  endfacet
  facet normal 1 0 0
    outer loop
      vertex 2.5 0.190035 0.0808493
      vertex 2.5 -0.190035 -0.0808493
      vertex 2.5 0.165035 -0.124151
    endloop
  endfacet
  facet normal 1 0 0
    outer loop
      vertex 2.5 -0.190035 -0.0808493
      vertex 2.5 -0.165035 -0.124151
      vertex 2.5 0.165035 -0.124151
    endloop
  endfacet
  facet normal 1 0 0
    outer loop
      vertex 2.5 0.165035 -0.124151
      vertex 2.5 -0.165035 -0.124151
      vertex 2.5 1.2339 -0.866025
    endloop
  endfacet
  facet normal 1 0 0
    outer loop
      vertex 2.5 -0.165035 -0.124151
      vertex 2.5 -1.2339 -0.866025
      vertex 2.5 1.2339 -0.866025
    endloop
  endfacet
  facet normal -1 0 0
    outer loop
      vertex 0.125 0.165035 0.124151
      vertex 0.125 0.577215 0.410235
      vertex 0.125 0.190035 0.0808494
    endloop
  endfacet
  facet normal -1 0 0
    outer loop
      vertex 0.125 0.577215 0.410235
      vertex 0.125 0.643881 0.294765
      vertex 0.125 0.190035 0.0808494
    endloop
  endfacet
  facet normal 0 1 0
    outer loop
      vertex 0.685443 1.5 -0.698288
      vertex 0.7335 1.5 -0.866025
      vertex 0.7135 1.5 -0.866025
    endloop
  endfacet
  facet normal 0 1 0
    outer loop
      vertex 0.665443 1.5 0.698288
      vertex 0.7135 1.5 0.866025
      vertex 0.7335 1.5 0.866025
    endloop
  endfacet
  facet normal 0 1 0
    outer loop
      vertex 2.1605 1.5 0.866025
      vertex 2.1805 1.5 0.866025
      vertex 2.01633 1.5 0.698288
    endloop
  endfacet
  facet normal 0 1 0
    outer loop
      vertex 2.1805 1.5 0.866025
      vertex 2.03633 1.5 0.698288
      vertex 2.01633 1.5 0.698288
    endloop
  endfacet
  facet normal 0 1 0
    outer loop
      vertex -2.1605 1.5 -0.866025
      vertex -2.1805 1.5 -0.866025
      vertex -2.01633 1.5 -0.698288
    endloop
  endfacet
  facet normal 0 1 0
    outer loop
      vertex -2.1805 1.5 -0.866025
      vertex -2.03633 1.5 -0.698288
      vertex -2.01633 1.5 -0.698288
    endloop
  endfacet
  facet normal 0 1 0
    outer loop
      vertex -2.01633 1.5 -0.698288
      vertex -2.03633 1.5 -0.698288
      vertex 0.685443 1.5 0.698288
    endloop
  endfacet
  facet normal 0 1 0
    outer loop
      vertex 2.5 1.5 0.698288
      vertex 2.5 1.5 -0.698288
      vertex 2.03633 1.5 0.698288
    endloop
  endfacet
  facet normal 0 1 0
    outer loop
      vertex 2.5 1.5 -0.698288
      vertex 2.03633 1.5 -0.698288
      vertex 2.03633 1.5 0.698288
    endloop
  endfacet
  facet normal 0 1 0
    outer loop
      vertex 2.03633 1.5 0.698288
      vertex 2.03633 1.5 -0.698288
      vertex 2.01633 1.5 0.698288
    endloop
  endfacet
  facet normal 0 1 0
    outer loop
      vertex 2.03633 1.5 -0.698288
      vertex 0.685443 1.5 0.698288
      vertex 2.01633 1.5 0.698288
    endloop
  endfacet
  facet normal 0 1 0
    outer loop
      vertex -0.7135 1.5 -0.866025
      vertex -0.7335 1.5 -0.866025
      vertex -0.665443 1.5 -0.698288
    endloop
  endfacet
  facet normal 0 1 0
    outer loop
      vertex -0.7335 1.5 -0.866025
      vertex -0.685443 1.5 -0.698288
      vertex -0.665443 1.5 -0.698288
    endloop
  endfacet
  facet normal 0 1 0
    outer loop
      vertex -2.5 1.5 0.698288
      vertex -2.03633 1.5 0.698288
      vertex -2.5 1.5 -0.698288
    endloop
  endfacet
  facet normal 0 1 0
    outer loop
      vertex -2.03633 1.5 0.698288
      vertex -2.03633 1.5 -0.698288
      vertex -2.5 1.5 -0.698288
    endloop
  endfacet
  facet normal 0 1 0
    outer loop
      vertex -2.1805 1.5 0.866025
      vertex -2.1605 1.5 0.866025
      vertex -2.03633 1.5 0.698288
    endloop
  endfacet
  facet normal 0 1 0
    outer loop
      vertex -2.1605 1.5 0.866025
      vertex -2.01633 1.5 0.698288
      vertex -2.03633 1.5 0.698288
    endloop
  endfacet
  facet normal 0 1 0
    outer loop
      vertex -2.03633 1.5 0.698288
      vertex -2.01633 1.5 0.698288
      vertex -2.03633 1.5 -0.698288
    endloop
  endfacet
  facet normal 0 1 0
    outer loop
      vertex -2.01633 1.5 0.698288
      vertex -0.685443 1.5 0.698288
      vertex -2.03633 1.5 -0.698288
    endloop
  endfacet
  facet normal 0 1 0
    outer loop
      vertex -0.7335 1.5 0.866025
      vertex -0.7135 1.5 0.866025
      vertex -0.685443 1.5 0.698288
    endloop
  endfacet
  facet normal 0 1 0
    outer loop
      vertex -0.7135 1.5 0.866025
      vertex -0.665443 1.5 0.698288
      vertex -0.685443 1.5 0.698288
    endloop
  endfacet
  facet normal 0 1 0
    outer loop
      vertex -0.685443 1.5 0.698288
      vertex -0.665443 1.5 0.698288
      vertex -2.03633 1.5 -0.698288
    endloop
  endfacet
  facet normal 0 1 0
    outer loop
      vertex -0.665443 1.5 0.698288
      vertex 0.665443 1.5 0.698288
      vertex -2.03633 1.5 -0.698288
    endloop
  endfacet
  facet normal 0 1 0
    outer loop
      vertex -2.03633 1.5 -0.698288
      vertex 0.665443 1.5 0.698288
      vertex 0.685443 1.5 0.698288
    endloop
  endfacet
  facet normal 0 1 0
    outer loop
      vertex 0.665443 1.5 0.698288
      vertex 0.7335 1.5 0.866025
      vertex 0.685443 1.5 0.698288
    endloop
  endfacet
  facet normal 0 1 0
    outer loop
      vertex 0.665443 1.5 -0.698288
      vertex -0.665443 1.5 -0.698288
      vertex 0.685443 1.5 0.698288
    endloop
  endfacet
  facet normal 0 1 0
    outer loop
      vertex -0.665443 1.5 -0.698288
      vertex -0.685443 1.5 -0.698288
      vertex 0.685443 1.5 0.698288
    endloop
  endfacet
  facet normal 0 1 0
    outer loop
      vertex 0.685443 1.5 0.698288
      vertex -0.685443 1.5 -0.698288
      vertex -2.01633 1.5 -0.698288
    endloop
  endfacet
  facet normal 0 1 0
    outer loop
      vertex 0.7135 1.5 -0.866025
      vertex 0.665443 1.5 -0.698288
      vertex 0.685443 1.5 -0.698288
    endloop
  endfacet
  facet normal 0 1 0
    outer loop
      vertex 0.665443 1.5 -0.698288
      vertex 0.685443 1.5 0.698288
      vertex 0.685443 1.5 -0.698288
    endloop
  endfacet
  facet normal 0 1 0
    outer loop
      vertex 0.685443 1.5 -0.698288
      vertex 0.685443 1.5 0.698288
      vertex 2.01633 1.5 -0.698288
    endloop
  endfacet
  facet normal 0 1 0
    outer loop
      vertex 0.685443 1.5 0.698288
      vertex 2.03633 1.5 -0.698288
      vertex 2.01633 1.5 -0.698288
    endloop
  endfacet
  facet normal 0 1 0
    outer loop
      vertex 2.01633 1.5 -0.698288
      vertex 2.03633 1.5 -0.698288
      vertex 2.1605 1.5 -0.866025
    endloop
  endfacet
  facet normal 0 1 0
    outer loop
      vertex 2.03633 1.5 -0.698288
      vertex 2.1805 1.5 -0.866025
      vertex 2.1605 1.5 -0.866025
    endloop
  endfacet
  facet normal 0.502839 -0.748575 -0.43219
    outer loop
      vertex 0.415 0.577215 0.410235
      vertex 0.415 0.643881 0.294765
      vertex 1.78436 1.2339 0.866025
    endloop
  endfacet
  facet normal 0.502839 -0.748575 -0.43219
    outer loop
      vertex 0.415 0.643881 0.294765
      vertex 2.03633 1.5 0.698288
      vertex 1.78436 1.2339 0.866025
    endloop
  endfacet
  facet normal 0.502839 -0.748575 -0.43219
    outer loop
      vertex 1.78436 1.2339 0.866025
      vertex 2.03633 1.5 0.698288
      vertex 2.1805 1.5 0.866025
    endloop
  endfacet
  facet normal -0.502839 -0.748575 0.43219
    outer loop
      vertex -0.415 0.577215 -0.410235
      vertex -0.415 0.643881 -0.294765
      vertex -1.78436 1.2339 -0.866025
    endloop
  endfacet
  facet normal -0.502839 -0.748575 0.43219
    outer loop
      vertex -0.415 0.643881 -0.294765
      vertex -2.03633 1.5 -0.698288
      vertex -1.78436 1.2339 -0.866025
    endloop
  endfacet
  facet normal -0.502839 -0.748575 0.43219
    outer loop
      vertex -1.78436 1.2339 -0.866025
      vertex -2.03633 1.5 -0.698288
      vertex -2.1805 1.5 -0.866025
    endloop
  endfacet
  facet normal 0 0.866025 0.5
    outer loop
      vertex 0.125 0.165035 0.124151
      vertex 0.125 0.190035 0.0808494
      vertex -0.125 0.165035 0.124151
    endloop
  endfacet
  facet normal 0 0.866025 0.5
    outer loop
      vertex 0.125 0.190035 0.0808494
      vertex -0.125 0.190035 0.0808494
      vertex -0.125 0.165035 0.124151
    endloop
  endfacet
  facet normal 0 0 -1
    outer loop
      vertex -0.601453 1.2339 -0.866025
      vertex -0.7335 1.5 -0.866025
      vertex -0.7135 1.5 -0.866025
    endloop
  endfacet
  facet normal 0 0 -1
    outer loop
      vertex -0.581453 -1.2339 -0.866025
      vertex -0.7135 -1.5 -0.866025
      vertex -0.7335 -1.5 -0.866025
    endloop
  endfacet
  facet normal 0 0 -1
    outer loop
      vertex 0.7135 1.5 -0.866025
      vertex 0.7335 1.5 -0.866025
      vertex 0.581453 1.2339 -0.866025
    endloop
  endfacet
  facet normal 0 0 -1
    outer loop
      vertex 0.7335 1.5 -0.866025
      vertex 0.601453 1.2339 -0.866025
      vertex 0.581453 1.2339 -0.866025
    endloop
  endfacet
  facet normal 0 0 -1
    outer loop
      vertex 2.1605 1.5 -0.866025
      vertex 2.1805 1.5 -0.866025
      vertex 1.76436 1.2339 -0.866025
    endloop
  endfacet
  facet normal 0 0 -1
    outer loop
      vertex 2.1805 1.5 -0.866025
      vertex 1.78436 1.2339 -0.866025
      vertex 1.76436 1.2339 -0.866025
    endloop
  endfacet
  facet normal 0 0 -1
    outer loop
      vertex 1.76436 1.2339 -0.866025
      vertex 1.78436 1.2339 -0.866025
      vertex -2.5 -1.2339 -0.866025
    endloop
  endfacet
  facet normal 0 0 -1
    outer loop
      vertex 1.78436 1.2339 -0.866025
      vertex -1.78436 -1.2339 -0.866025
      vertex -2.5 -1.2339 -0.866025
    endloop
  endfacet
  facet normal 0 0 -1
    outer loop
      vertex 2.5 1.2339 -0.866025
      vertex -0.601453 -1.2339 -0.866025
      vertex -1.76436 -1.2339 -0.866025
    endloop
  endfacet
  facet normal 0 0 -1
    outer loop
      vertex -2.1605 -1.5 -0.866025
      vertex -2.1805 -1.5 -0.866025
      vertex -1.76436 -1.2339 -0.866025
    endloop
  endfacet
  facet normal 0 0 -1
    outer loop
      vertex -2.1805 -1.5 -0.866025
      vertex -1.78436 -1.2339 -0.866025
      vertex -1.76436 -1.2339 -0.866025
    endloop
  endfacet
  facet normal 0 0 -1
    outer loop
      vertex -1.76436 -1.2339 -0.866025
      vertex -1.78436 -1.2339 -0.866025
      vertex 2.5 1.2339 -0.866025
    endloop
  endfacet
  facet normal 0 0 -1
    outer loop
      vertex -1.78436 -1.2339 -0.866025
      vertex 1.78436 1.2339 -0.866025
      vertex 2.5 1.2339 -0.866025
    endloop
  endfacet
  facet normal 0 0 -1
    outer loop
      vertex -0.581453 1.2339 -0.866025
      vertex 0.581453 1.2339 -0.866025
      vertex -2.5 -1.2339 -0.866025
    endloop
  endfacet
  facet normal 0 0 -1
    outer loop
      vertex 0.581453 1.2339 -0.866025
      vertex 0.601453 1.2339 -0.866025
      vertex -2.5 -1.2339 -0.866025
    endloop
  endfacet
  facet normal 0 0 -1
    outer loop
      vertex -2.5 -1.2339 -0.866025
      vertex 0.601453 1.2339 -0.866025
      vertex 1.76436 1.2339 -0.866025
    endloop
  endfacet
  facet normal 0 0 -1
    outer loop
      vertex -2.5 -1.2339 -0.866025
      vertex -2.5 1.2339 -0.866025
      vertex -1.78436 1.2339 -0.866025
    endloop
  endfacet
  facet normal 0 0 -1
    outer loop
      vertex -2.1805 1.5 -0.866025
      vertex -2.1605 1.5 -0.866025
      vertex -1.78436 1.2339 -0.866025
    endloop
  endfacet
  facet normal 0 0 -1
    outer loop
      vertex -2.1605 1.5 -0.866025
      vertex -1.76436 1.2339 -0.866025
      vertex -1.78436 1.2339 -0.866025
    endloop
  endfacet
  facet normal 0 0 -1
    outer loop
      vertex -1.78436 1.2339 -0.866025
      vertex -1.76436 1.2339 -0.866025
      vertex -2.5 -1.2339 -0.866025
    endloop
  endfacet
  facet normal 0 0 -1
    outer loop
      vertex -1.76436 1.2339 -0.866025
      vertex -0.601453 1.2339 -0.866025
      vertex -2.5 -1.2339 -0.866025
    endloop
  endfacet
  facet normal 0 0 -1
    outer loop
      vertex -2.5 -1.2339 -0.866025
      vertex -0.601453 1.2339 -0.866025
      vertex -0.581453 1.2339 -0.866025
    endloop
  endfacet
  facet normal 0 0 -1
    outer loop
      vertex -0.601453 1.2339 -0.866025
      vertex -0.7135 1.5 -0.866025
      vertex -0.581453 1.2339 -0.866025
    endloop
  endfacet
  facet normal 0 0 -1
    outer loop
      vertex 2.5 1.2339 -0.866025
      vertex 2.5 -1.2339 -0.866025
      vertex 1.78436 -1.2339 -0.866025
    endloop
  endfacet
  facet normal 0 0 -1
    outer loop
      vertex 2.1805 -1.5 -0.866025
      vertex 2.1605 -1.5 -0.866025
      vertex 1.78436 -1.2339 -0.866025
    endloop
  endfacet
  facet normal 0 0 -1
    outer loop
      vertex 2.1605 -1.5 -0.866025
      vertex 1.76436 -1.2339 -0.866025
      vertex 1.78436 -1.2339 -0.866025
    endloop
  endfacet
  facet normal 0 0 -1
    outer loop
      vertex 1.78436 -1.2339 -0.866025
      vertex 1.76436 -1.2339 -0.866025
      vertex 2.5 1.2339 -0.866025
    endloop
  endfacet
  facet normal 0 0 -1
    outer loop
      vertex 1.76436 -1.2339 -0.866025
      vertex 0.601453 -1.2339 -0.866025
      vertex 2.5 1.2339 -0.866025
    endloop
  endfacet
  facet normal 0 0 -1
    outer loop
      vertex 0.7335 -1.5 -0.866025
      vertex 0.7135 -1.5 -0.866025
      vertex 0.601453 -1.2339 -0.866025
    endloop
  endfacet
  facet normal 0 0 -1
    outer loop
      vertex 0.7135 -1.5 -0.866025
      vertex 0.581453 -1.2339 -0.866025
      vertex 0.601453 -1.2339 -0.866025
    endloop
  endfacet
  facet normal 0 0 -1
    outer loop
      vertex 0.601453 -1.2339 -0.866025
      vertex 0.581453 -1.2339 -0.866025
      vertex 2.5 1.2339 -0.866025
    endloop
  endfacet
  facet normal 0 0 -1
    outer loop
      vertex 0.581453 -1.2339 -0.866025
      vertex -0.581453 -1.2339 -0.866025
      vertex 2.5 1.2339 -0.866025
    endloop
  endfacet
  facet normal 0 0 -1
    outer loop
      vertex 2.5 1.2339 -0.866025
      vertex -0.581453 -1.2339 -0.866025
      vertex -0.601453 -1.2339 -0.866025
    endloop
  endfacet
  facet normal 0 0 -1
    outer loop
      vertex -0.581453 -1.2339 -0.866025
      vertex -0.7335 -1.5 -0.866025
      vertex -0.601453 -1.2339 -0.866025
    endloop
  endfacet
  facet normal 0 -0.866025 -0.5
    outer loop
      vertex -0.415 -0.190035 -0.0808494
      vertex -2.5 -0.190035 -0.0808494
      vertex -0.415 -0.165035 -0.124151
    endloop
  endfacet
  facet normal 0 -0.866025 -0.5
    outer loop
      vertex -2.5 -0.190035 -0.0808494
      vertex -2.5 -0.165035 -0.124151
      vertex -0.415 -0.165035 -0.124151
    endloop
  endfacet
  facet normal 2.11734e-8 0.426353 0.904557
    outer loop
      vertex -0.415 -0.643881 0.294765
      vertex -0.415 -0.190035 0.0808494
      vertex -2.03633 -1.5 0.698288
    endloop
  endfacet
  facet normal -2.35221e-9 0.426353 0.904557
    outer loop
      vertex -0.415 -0.190035 0.0808494
      vertex -2.5 -0.190035 0.0808493
      vertex -2.03633 -1.5 0.698288
    endloop
  endfacet
  facet normal 0 0.426353 0.904557
    outer loop
      vertex -2.03633 -1.5 0.698288
      vertex -2.5 -0.190035 0.0808493
      vertex -2.5 -1.5 0.698288
    endloop
  endfacet
  facet normal 0 0.866025 -0.5
    outer loop
      vertex -0.415 0.165035 -0.124151
      vertex -2.5 0.165035 -0.124151
      vertex -0.415 0.190035 -0.0808494
    endloop
  endfacet
  facet normal -1.01259e-7 0.866028 -0.499996
    outer loop
      vertex -2.5 0.165035 -0.124151
      vertex -2.5 0.190035 -0.0808493
      vertex -0.415 0.190035 -0.0808494
    endloop
  endfacet
  facet normal 0 -0.426353 0.904557
    outer loop
      vertex -0.415 0.190035 0.0808494
      vertex -0.415 0.643881 0.294765
      vertex -2.5 0.190035 0.0808494
    endloop
  endfacet
  facet normal 6.18051e-9 -0.426353 0.904557
    outer loop
      vertex -0.415 0.643881 0.294765
      vertex -2.03633 1.5 0.698288
      vertex -2.5 0.190035 0.0808494
    endloop
  endfacet
  facet normal 0 -0.426353 0.904557
    outer loop
      vertex -2.5 0.190035 0.0808494
      vertex -2.03633 1.5 0.698288
      vertex -2.5 1.5 0.698288
    endloop
  endfacet
  facet normal 0 0 1
    outer loop
      vertex 1.78436 -1.2339 0.866025
      vertex 2.5 -1.2339 0.866025
      vertex 2.5 1.2339 0.866025
    endloop
  endfacet
  facet normal 0 0 1
    outer loop
      vertex -1.78436 1.2339 0.866025
      vertex -2.5 1.2339 0.866025
      vertex -2.5 -1.2339 0.866025
    endloop
  endfacet
  facet normal 0 0 1
    outer loop
      vertex -1.76436 1.2339 0.866025
      vertex -2.1605 1.5 0.866025
      vertex -2.1805 1.5 0.866025
    endloop
  endfacet
  facet normal 0 0 1
    outer loop
      vertex 1.76436 -1.2339 0.866025
      vertex 2.1605 -1.5 0.866025
      vertex 2.1805 -1.5 0.866025
    endloop
  endfacet
  facet normal 0 0 1
    outer loop
      vertex -1.78436 -1.2339 0.866025
      vertex 2.5 1.2339 0.866025
      vertex -2.5 -1.2339 0.866025
    endloop
  endfacet
  facet normal 0 0 1
    outer loop
      vertex 2.5 1.2339 0.866025
      vertex 1.78436 1.2339 0.866025
      vertex -2.5 -1.2339 0.866025
    endloop
  endfacet
  facet normal 0 0 1
    outer loop
      vertex -0.601453 -1.2339 0.866025
      vertex -0.7335 -1.5 0.866025
      vertex -0.7135 -1.5 0.866025
    endloop
  endfacet
  facet normal 0 0 1
    outer loop
      vertex 0.601453 1.2339 0.866025
      vertex 0.7335 1.5 0.866025
      vertex 0.7135 1.5 0.866025
    endloop
  endfacet
  facet normal 0 0 1
    outer loop
      vertex -0.581453 -1.2339 0.866025
      vertex 0.581453 -1.2339 0.866025
      vertex 2.5 1.2339 0.866025
    endloop
  endfacet
  facet normal 0 0 1
    outer loop
      vertex 0.581453 1.2339 0.866025
      vertex -0.581453 1.2339 0.866025
      vertex -2.5 -1.2339 0.866025
    endloop
  endfacet
  facet normal 0 0 1
    outer loop
      vertex -0.7135 -1.5 0.866025
      vertex -0.581453 -1.2339 0.866025
      vertex -0.601453 -1.2339 0.866025
    endloop
  endfacet
  facet normal 0 0 1
    outer loop
      vertex -0.581453 -1.2339 0.866025
      vertex 2.5 1.2339 0.866025
      vertex -0.601453 -1.2339 0.866025
    endloop
  endfacet
  facet normal 0 0 1
    outer loop
      vertex -0.601453 -1.2339 0.866025
      vertex 2.5 1.2339 0.866025
      vertex -1.76436 -1.2339 0.866025
    endloop
  endfacet
  facet normal 0 0 1
    outer loop
      vertex 2.5 1.2339 0.866025
      vertex -1.78436 -1.2339 0.866025
      vertex -1.76436 -1.2339 0.866025
    endloop
  endfacet
  facet normal 0 0 1
    outer loop
      vertex -1.76436 -1.2339 0.866025
      vertex -1.78436 -1.2339 0.866025
      vertex -2.1605 -1.5 0.866025
    endloop
  endfacet
  facet normal 0 0 1
    outer loop
      vertex -1.78436 -1.2339 0.866025
      vertex -2.1805 -1.5 0.866025
      vertex -2.1605 -1.5 0.866025
    endloop
  endfacet
  facet normal 0 0 1
    outer loop
      vertex 0.7135 1.5 0.866025
      vertex 0.581453 1.2339 0.866025
      vertex 0.601453 1.2339 0.866025
    endloop
  endfacet
  facet normal 0 0 1
    outer loop
      vertex 0.581453 1.2339 0.866025
      vertex -2.5 -1.2339 0.866025
      vertex 0.601453 1.2339 0.866025
    endloop
  endfacet
  facet normal 0 0 1
    outer loop
      vertex 0.601453 1.2339 0.866025
      vertex -2.5 -1.2339 0.866025
      vertex 1.76436 1.2339 0.866025
    endloop
  endfacet
  facet normal 0 0 1
    outer loop
      vertex -2.5 -1.2339 0.866025
      vertex 1.78436 1.2339 0.866025
      vertex 1.76436 1.2339 0.866025
    endloop
  endfacet
  facet normal 0 0 1
    outer loop
      vertex 1.76436 1.2339 0.866025
      vertex 1.78436 1.2339 0.866025
      vertex 2.1605 1.5 0.866025
    endloop
  endfacet
  facet normal 0 0 1
    outer loop
      vertex 1.78436 1.2339 0.866025
      vertex 2.1805 1.5 0.866025
      vertex 2.1605 1.5 0.866025
    endloop
  endfacet
  facet normal 0 0 1
    outer loop
      vertex 0.7135 -1.5 0.866025
      vertex 0.7335 -1.5 0.866025
      vertex 0.581453 -1.2339 0.866025
    endloop
  endfacet
  facet normal 0 0 1
    outer loop
      vertex 0.7335 -1.5 0.866025
      vertex 0.601453 -1.2339 0.866025
      vertex 0.581453 -1.2339 0.866025
    endloop
  endfacet
  facet normal 0 0 1
    outer loop
      vertex 0.581453 -1.2339 0.866025
      vertex 0.601453 -1.2339 0.866025
      vertex 2.5 1.2339 0.866025
    endloop
  endfacet
  facet normal 0 0 1
    outer loop
      vertex 0.601453 -1.2339 0.866025
      vertex 1.76436 -1.2339 0.866025
      vertex 2.5 1.2339 0.866025
    endloop
  endfacet
  facet normal 0 0 1
    outer loop
      vertex 2.5 1.2339 0.866025
      vertex 1.76436 -1.2339 0.866025
      vertex 1.78436 -1.2339 0.866025
    endloop
  endfacet
  facet normal 0 0 1
    outer loop
      vertex 1.76436 -1.2339 0.866025
      vertex 2.1805 -1.5 0.866025
      vertex 1.78436 -1.2339 0.866025
    endloop
  endfacet
  facet normal 0 0 1
    outer loop
      vertex -0.7135 1.5 0.866025
      vertex -0.7335 1.5 0.866025
      vertex -0.581453 1.2339 0.866025
    endloop
  endfacet
  facet normal 0 0 1
    outer loop
      vertex -0.7335 1.5 0.866025
      vertex -0.601453 1.2339 0.866025
      vertex -0.581453 1.2339 0.866025
    endloop
  endfacet
  facet normal 0 0 1
    outer loop
      vertex -0.581453 1.2339 0.866025
      vertex -0.601453 1.2339 0.866025
      vertex -2.5 -1.2339 0.866025
    endloop
  endfacet
  facet normal 0 0 1
    outer loop
      vertex -0.601453 1.2339 0.866025
      vertex -1.76436 1.2339 0.866025
      vertex -2.5 -1.2339 0.866025
    endloop
  endfacet
  facet normal 0 0 1
    outer loop
      vertex -2.5 -1.2339 0.866025
      vertex -1.76436 1.2339 0.866025
      vertex -1.78436 1.2339 0.866025
    endloop
  endfacet
  facet normal 0 0 1
    outer loop
      vertex -1.76436 1.2339 0.866025
      vertex -2.1805 1.5 0.866025
      vertex -1.78436 1.2339 0.866025
    endloop
  endfacet
  facet normal 0 -1 0
    outer loop
      vertex 0.685443 -1.5 0.698288
      vertex 0.7335 -1.5 0.866025
      vertex 0.7135 -1.5 0.866025
    endloop
  endfacet
  facet normal 0 -1 0
    outer loop
      vertex -0.685443 -1.5 -0.698288
      vertex -0.7335 -1.5 -0.866025
      vertex -0.7135 -1.5 -0.866025
    endloop
  endfacet
  facet normal 0 -1 0
    outer loop
      vertex 2.1605 -1.5 -0.866025
      vertex 2.1805 -1.5 -0.866025
      vertex 2.01633 -1.5 -0.698288
    endloop
  endfacet
  facet normal 0 -1 0
    outer loop
      vertex 2.1805 -1.5 -0.866025
      vertex 2.03633 -1.5 -0.698288
      vertex 2.01633 -1.5 -0.698288
    endloop
  endfacet
  facet normal 0 -1 0
    outer loop
      vertex 2.5 -1.5 -0.698288
      vertex 2.5 -1.5 0.698288
      vertex 2.03633 -1.5 -0.698288
    endloop
  endfacet
  facet normal 0 -1 0
    outer loop
      vertex 2.5 -1.5 0.698288
      vertex 2.03633 -1.5 0.698288
      vertex 2.03633 -1.5 -0.698288
    endloop
  endfacet
  facet normal 0 -1 0
    outer loop
      vertex 2.03633 -1.5 -0.698288
      vertex 2.03633 -1.5 0.698288
      vertex 2.01633 -1.5 -0.698288
    endloop
  endfacet
  facet normal 0 -1 0
    outer loop
      vertex 2.03633 -1.5 0.698288
      vertex 0.685443 -1.5 -0.698288
      vertex 2.01633 -1.5 -0.698288
    endloop
  endfacet
  facet normal 0 -1 0
    outer loop
      vertex 0.7135 -1.5 -0.866025
      vertex 0.7335 -1.5 -0.866025
      vertex 0.665443 -1.5 -0.698288
    endloop
  endfacet
  facet normal 0 -1 0
    outer loop
      vertex 0.7335 -1.5 -0.866025
      vertex 0.685443 -1.5 -0.698288
      vertex 0.665443 -1.5 -0.698288
    endloop
  endfacet
  facet normal 0 -1 0
    outer loop
      vertex -0.7135 -1.5 0.866025
      vertex -0.7335 -1.5 0.866025
      vertex -0.665443 -1.5 0.698288
    endloop
  endfacet
  facet normal 0 -1 0
    outer loop
      vertex -0.7335 -1.5 0.866025
      vertex -0.685443 -1.5 0.698288
      vertex -0.665443 -1.5 0.698288
    endloop
  endfacet
  facet normal 0 -1 0
    outer loop
      vertex -2.1605 -1.5 0.866025
      vertex -2.1805 -1.5 0.866025
      vertex -2.01633 -1.5 0.698288
    endloop
  endfacet
  facet normal 0 -1 0
    outer loop
      vertex -2.1805 -1.5 0.866025
      vertex -2.03633 -1.5 0.698288
      vertex -2.01633 -1.5 0.698288
    endloop
  endfacet
  facet normal 0 -1 0
    outer loop
      vertex -0.665443 -1.5 -0.698288
      vertex 0.665443 -1.5 -0.698288
      vertex -2.03633 -1.5 0.698288
    endloop
  endfacet
  facet normal 0 -1 0
    outer loop
      vertex 0.665443 -1.5 -0.698288
      vertex 0.685443 -1.5 -0.698288
      vertex -2.03633 -1.5 0.698288
    endloop
  endfacet
  facet normal 0 -1 0
    outer loop
      vertex -2.03633 -1.5 0.698288
      vertex 0.685443 -1.5 -0.698288
      vertex -2.01633 -1.5 0.698288
    endloop
  endfacet
  facet normal 0 -1 0
    outer loop
      vertex -2.5 -1.5 -0.698288
      vertex -2.03633 -1.5 -0.698288
      vertex -2.5 -1.5 0.698288
    endloop
  endfacet
  facet normal 0 -1 0
    outer loop
      vertex -2.03633 -1.5 -0.698288
      vertex -2.03633 -1.5 0.698288
      vertex -2.5 -1.5 0.698288
    endloop
  endfacet
  facet normal 0 -1 0
    outer loop
      vertex -2.1805 -1.5 -0.866025
      vertex -2.1605 -1.5 -0.866025
      vertex -2.03633 -1.5 -0.698288
    endloop
  endfacet
  facet normal 0 -1 0
    outer loop
      vertex -2.1605 -1.5 -0.866025
      vertex -2.01633 -1.5 -0.698288
      vertex -2.03633 -1.5 -0.698288
    endloop
  endfacet
  facet normal 0 -1 0
    outer loop
      vertex -2.03633 -1.5 -0.698288
      vertex -2.01633 -1.5 -0.698288
      vertex -2.03633 -1.5 0.698288
    endloop
  endfacet
  facet normal 0 -1 0
    outer loop
      vertex -2.01633 -1.5 -0.698288
      vertex -0.685443 -1.5 -0.698288
      vertex -2.03633 -1.5 0.698288
    endloop
  endfacet
  facet normal 0 -1 0
    outer loop
      vertex -2.03633 -1.5 0.698288
      vertex -0.685443 -1.5 -0.698288
      vertex -0.665443 -1.5 -0.698288
    endloop
  endfacet
  facet normal 0 -1 0
    outer loop
      vertex -0.685443 -1.5 -0.698288
      vertex -0.7135 -1.5 -0.866025
      vertex -0.665443 -1.5 -0.698288
    endloop
  endfacet
  facet normal 0 -1 0
    outer loop
      vertex 0.665443 -1.5 0.698288
      vertex -0.665443 -1.5 0.698288
      vertex 0.685443 -1.5 -0.698288
    endloop
  endfacet
  facet normal 0 -1 0
    outer loop
      vertex -0.665443 -1.5 0.698288
      vertex -0.685443 -1.5 0.698288
      vertex 0.685443 -1.5 -0.698288
    endloop
  endfacet
  facet normal 0 -1 0
    outer loop
      vertex 0.685443 -1.5 -0.698288
      vertex -0.685443 -1.5 0.698288
      vertex -2.01633 -1.5 0.698288
    endloop
  endfacet
  facet normal 0 -1 0
    outer loop
      vertex 0.7135 -1.5 0.866025
      vertex 0.665443 -1.5 0.698288
      vertex 0.685443 -1.5 0.698288
    endloop
  endfacet
  facet normal 0 -1 0
    outer loop
      vertex 0.665443 -1.5 0.698288
      vertex 0.685443 -1.5 -0.698288
      vertex 0.685443 -1.5 0.698288
    endloop
  endfacet
  facet normal 0 -1 0
    outer loop
      vertex 0.685443 -1.5 0.698288
      vertex 0.685443 -1.5 -0.698288
      vertex 2.01633 -1.5 0.698288
    endloop
  endfacet
  facet normal 0 -1 0
    outer loop
      vertex 0.685443 -1.5 -0.698288
      vertex 2.03633 -1.5 0.698288
      vertex 2.01633 -1.5 0.698288
    endloop
  endfacet
  facet normal 0 -1 0
    outer loop
      vertex 2.01633 -1.5 0.698288
      vertex 2.03633 -1.5 0.698288
      vertex 2.1605 -1.5 0.866025
    endloop
  endfacet
  facet normal 0 -1 0
    outer loop
      vertex 2.03633 -1.5 0.698288
      vertex 2.1805 -1.5 0.866025
      vertex 2.1605 -1.5 0.866025
    endloop
  endfacet
  facet normal -3.81461e-8 0.570192 -0.821511
    outer loop
      vertex -0.415 0.577215 0.410235
      vertex -0.415 0.165035 0.124151
      vertex -1.78436 1.2339 0.866025
    endloop
  endfacet
  facet normal 0 0.570192 -0.821511
    outer loop
      vertex -0.415 0.165035 0.124151
      vertex -2.5 0.165035 0.124151
      vertex -1.78436 1.2339 0.866025
    endloop
  endfacet
  facet normal 0 0.570192 -0.821511
    outer loop
      vertex -1.78436 1.2339 0.866025
      vertex -2.5 0.165035 0.124151
      vertex -2.5 1.2339 0.866025
    endloop
  endfacet
  facet normal -1 0 0
    outer loop
      vertex -0.415 -0.577215 0.410235
      vertex -0.415 -0.165035 0.124151
      vertex -0.415 -0.643881 0.294765
    endloop
  endfacet
  facet normal -1 0 0
    outer loop
      vertex -0.415 -0.165035 0.124151
      vertex -0.415 -0.190035 0.0808494
      vertex -0.415 -0.643881 0.294765
    endloop
  endfacet
  facet normal -1 0 0
    outer loop
      vertex 0.125 0.165035 -0.124151
      vertex 0.125 0.190035 -0.0808494
      vertex 0.125 0.577215 -0.410235
    endloop
  endfacet
  facet normal -1 0 0
    outer loop
      vertex 0.125 0.190035 -0.0808494
      vertex 0.125 0.643881 -0.294765
      vertex 0.125 0.577215 -0.410235
    endloop
  endfacet
  facet normal 0 -0.866025 0.5
    outer loop
      vertex -0.415 -0.165035 0.124151
      vertex -2.5 -0.165035 0.124151
      vertex -0.415 -0.190035 0.0808494
    endloop
  endfacet
  facet normal -1.01259e-7 -0.866028 0.499996
    outer loop
      vertex -2.5 -0.165035 0.124151
      vertex -2.5 -0.190035 0.0808493
      vertex -0.415 -0.190035 0.0808494
    endloop
  endfacet
  facet normal -1 0 0
    outer loop
      vertex -0.415 0.577215 0.410235
      vertex -0.415 0.643881 0.294765
      vertex -0.415 0.165035 0.124151
    endloop
  endfacet
  facet normal -1 0 0
    outer loop
      vertex -0.415 0.643881 0.294765
      vertex -0.415 0.190035 0.0808494
      vertex -0.415 0.165035 0.124151
    endloop
  endfacet
  facet normal 2.11734e-8 -0.426353 -0.904557
    outer loop
      vertex -0.415 0.643881 -0.294765
      vertex -0.415 0.190035 -0.0808494
      vertex -2.03633 1.5 -0.698288
    endloop
  endfacet
  facet normal -2.35221e-9 -0.426353 -0.904557
    outer loop
      vertex -0.415 0.190035 -0.0808494
      vertex -2.5 0.190035 -0.0808493
      vertex -2.03633 1.5 -0.698288
    endloop
  endfacet
  facet normal 0 -0.426353 -0.904557
    outer loop
      vertex -2.03633 1.5 -0.698288
      vertex -2.5 0.190035 -0.0808493
      vertex -2.5 1.5 -0.698288
    endloop
  endfacet
  facet normal -1 0 0
    outer loop
      vertex -0.415 0.577215 -0.410235
      vertex -0.415 0.165035 -0.124151
      vertex -0.415 0.643881 -0.294765
    endloop
  endfacet
  facet normal -1 0 0
    outer loop
      vertex -0.415 0.165035 -0.124151
      vertex -0.415 0.190035 -0.0808494
      vertex -0.415 0.643881 -0.294765
    endloop
  endfacet
  facet normal -1 0 0
    outer loop
      vertex -0.145 0.577215 0.410235
      vertex -0.145 0.643881 0.294765
      vertex -0.145 0.165035 0.124151
    endloop
  endfacet
  facet normal -1 0 0
    outer loop
      vertex -0.145 0.643881 0.294765
      vertex -0.145 0.190035 0.0808494
      vertex -0.145 0.165035 0.124151
    endloop
  endfacet
  facet normal 0 0.866025 -0.5
    outer loop
      vertex 0.415 0.165035 -0.124151
      vertex 0.415 0.190035 -0.0808494
      vertex 2.5 0.165035 -0.124151
    endloop
  endfacet
  facet normal 0 0.866025 -0.5
    outer loop
      vertex 0.415 0.190035 -0.0808494
      vertex 2.5 0.190035 -0.0808494
      vertex 2.5 0.165035 -0.124151
    endloop
  endfacet
  facet normal -0.502839 0.748575 -0.43219
    outer loop
      vertex -0.415 -0.577215 0.410235
      vertex -0.415 -0.643881 0.294765
      vertex -1.78436 -1.2339 0.866025
    endloop
  endfacet
  facet normal -0.502839 0.748575 -0.43219
    outer loop
      vertex -0.415 -0.643881 0.294765
      vertex -2.03633 -1.5 0.698288
      vertex -1.78436 -1.2339 0.866025
    endloop
  endfacet
  facet normal -0.502839 0.748575 -0.43219
    outer loop
      vertex -1.78436 -1.2339 0.866025
      vertex -2.03633 -1.5 0.698288
      vertex -2.1805 -1.5 0.866025
    endloop
  endfacet
  facet normal -0.867655 0.430559 -0.248583
    outer loop
      vertex 0.125 0.577215 -0.410235
      vertex 0.125 0.643881 -0.294765
      vertex 0.581453 1.2339 -0.866025
    endloop
  endfacet
  facet normal -0.867655 0.430559 -0.248583
    outer loop
      vertex 0.125 0.643881 -0.294765
      vertex 0.665443 1.5 -0.698288
      vertex 0.581453 1.2339 -0.866025
    endloop
  endfacet
  facet normal -0.867655 0.430559 -0.248583
    outer loop
      vertex 0.581453 1.2339 -0.866025
      vertex 0.665443 1.5 -0.698288
      vertex 0.7135 1.5 -0.866025
    endloop
  endfacet
  facet normal 0 -0.570192 -0.821511
    outer loop
      vertex -0.415 -0.165035 0.124151
      vertex -0.415 -0.577215 0.410235
      vertex -2.5 -0.165035 0.124151
    endloop
  endfacet
  facet normal -1.11349e-8 -0.570192 -0.821511
    outer loop
      vertex -0.415 -0.577215 0.410235
      vertex -1.78436 -1.2339 0.866025
      vertex -2.5 -0.165035 0.124151
    endloop
  endfacet
  facet normal 0 -0.570192 -0.821511
    outer loop
      vertex -2.5 -0.165035 0.124151
      vertex -1.78436 -1.2339 0.866025
      vertex -2.5 -1.2339 0.866025
    endloop
  endfacet
  facet normal -0.867655 -0.430559 0.248583
    outer loop
      vertex -0.145 0.577215 -0.410235
      vertex -0.145 0.643881 -0.294765
      vertex -0.601453 1.2339 -0.866025
    endloop
  endfacet
  facet normal -0.867655 -0.430559 0.248583
    outer loop
      vertex -0.145 0.643881 -0.294765
      vertex -0.685443 1.5 -0.698288
      vertex -0.601453 1.2339 -0.866025
    endloop
  endfacet
  facet normal -0.867655 -0.430559 0.248583
    outer loop
      vertex -0.601453 1.2339 -0.866025
      vertex -0.685443 1.5 -0.698288
      vertex -0.7335 1.5 -0.866025
    endloop
  endfacet
  facet normal 0 0.570192 0.821511
    outer loop
      vertex -0.415 0.165035 -0.124151
      vertex -0.415 0.577215 -0.410235
      vertex -2.5 0.165035 -0.124151
    endloop
  endfacet
  facet normal -1.11349e-8 0.570192 0.821511
    outer loop
      vertex -0.415 0.577215 -0.410235
      vertex -1.78436 1.2339 -0.866025
      vertex -2.5 0.165035 -0.124151
    endloop
  endfacet
  facet normal 0 0.570192 0.821511
    outer loop
      vertex -2.5 0.165035 -0.124151
      vertex -1.78436 1.2339 -0.866025
      vertex -2.5 1.2339 -0.866025
    endloop
  endfacet
  facet normal 1 0 0
    outer loop
      vertex 0.415 -0.577215 -0.410235
      vertex 0.415 -0.165035 -0.124151
      vertex 0.415 -0.643881 -0.294765
    endloop
  endfacet
  facet normal 1 0 0
    outer loop
      vertex 0.415 -0.165035 -0.124151
      vertex 0.415 -0.190035 -0.0808494
      vertex 0.415 -0.643881 -0.294765
    endloop
  endfacet
  facet normal 0 -0.570192 0.821511
    outer loop
      vertex 0.415 -0.165035 -0.124151
      vertex 0.415 -0.577215 -0.410235
      vertex 2.5 -0.165035 -0.124151
    endloop
  endfacet
  facet normal 1.11349e-8 -0.570192 0.821511
    outer loop
      vertex 0.415 -0.577215 -0.410235
      vertex 1.78436 -1.2339 -0.866025
      vertex 2.5 -0.165035 -0.124151
    endloop
  endfacet
  facet normal 0 -0.570192 0.821511
    outer loop
      vertex 2.5 -0.165035 -0.124151
      vertex 1.78436 -1.2339 -0.866025
      vertex 2.5 -1.2339 -0.866025
    endloop
  endfacet
  facet normal 1.01259e-7 -0.866025 -0.5
    outer loop
      vertex 0.415 -0.190035 -0.0808494
      vertex 0.415 -0.165035 -0.124151
      vertex 2.5 -0.190035 -0.0808493
    endloop
  endfacet
  facet normal 0 -0.866028 -0.499996
    outer loop
      vertex 0.415 -0.165035 -0.124151
      vertex 2.5 -0.165035 -0.124151
      vertex 2.5 -0.190035 -0.0808493
    endloop
  endfacet
  facet normal 0.502839 0.748575 0.43219
    outer loop
      vertex 0.415 -0.577215 -0.410235
      vertex 0.415 -0.643881 -0.294765
      vertex 1.78436 -1.2339 -0.866025
    endloop
  endfacet
  facet normal 0.502839 0.748575 0.43219
    outer loop
      vertex 0.415 -0.643881 -0.294765
      vertex 2.03633 -1.5 -0.698288
      vertex 1.78436 -1.2339 -0.866025
    endloop
  endfacet
  facet normal 0.502839 0.748575 0.43219
    outer loop
      vertex 1.78436 -1.2339 -0.866025
      vertex 2.03633 -1.5 -0.698288
      vertex 2.1805 -1.5 -0.866025
    endloop
  endfacet
  facet normal 1 0 0
    outer loop
      vertex 0.415 0.577215 0.410235
      vertex 0.415 0.165035 0.124151
      vertex 0.415 0.643881 0.294765
    endloop
  endfacet
  facet normal 1 0 0
    outer loop
      vertex 0.415 0.165035 0.124151
      vertex 0.415 0.190035 0.0808494
      vertex 0.415 0.643881 0.294765
    endloop
  endfacet
  facet normal -2.11734e-8 -0.426353 0.904557
    outer loop
      vertex 0.415 0.643881 0.294765
      vertex 0.415 0.190035 0.0808494
      vertex 2.03633 1.5 0.698288
    endloop
  endfacet
  facet normal 2.35221e-9 -0.426353 0.904557
    outer loop
      vertex 0.415 0.190035 0.0808494
      vertex 2.5 0.190035 0.0808493
      vertex 2.03633 1.5 0.698288
    endloop
  endfacet
  facet normal 0 -0.426353 0.904557
    outer loop
      vertex 2.03633 1.5 0.698288
      vertex 2.5 0.190035 0.0808493
      vertex 2.5 1.5 0.698288
    endloop
  endfacet
  facet normal 0 0.570192 -0.821511
    outer loop
      vertex 0.415 0.165035 0.124151
      vertex 0.415 0.577215 0.410235
      vertex 2.5 0.165035 0.124151
    endloop
  endfacet
  facet normal 1.11349e-8 0.570192 -0.821511
    outer loop
      vertex 0.415 0.577215 0.410235
      vertex 1.78436 1.2339 0.866025
      vertex 2.5 0.165035 0.124151
    endloop
  endfacet
  facet normal 0 0.570192 -0.821511
    outer loop
      vertex 2.5 0.165035 0.124151
      vertex 1.78436 1.2339 0.866025
      vertex 2.5 1.2339 0.866025
    endloop
  endfacet
  facet normal 1.01259e-7 0.866025 0.5
    outer loop
      vertex 0.415 0.190035 0.0808494
      vertex 0.415 0.165035 0.124151
      vertex 2.5 0.190035 0.0808493
    endloop
  endfacet
  facet normal 0 0.866028 0.499996
    outer loop
      vertex 0.415 0.165035 0.124151
      vertex 2.5 0.165035 0.124151
      vertex 2.5 0.190035 0.0808493
    endloop
  endfacet
  facet normal 0 0.570192 0.821511
    outer loop
      vertex -0.395 0.165035 -0.124151
      vertex -0.145 0.165035 -0.124151
      vertex -0.395 0.577215 -0.410235
    endloop
  endfacet
  facet normal 0 0.570192 0.821511
    outer loop
      vertex -0.145 0.165035 -0.124151
      vertex -0.145 0.577215 -0.410235
      vertex -0.395 0.577215 -0.410235
    endloop
  endfacet
  facet normal 0 0.570192 0.821511
    outer loop
      vertex -0.395 0.577215 -0.410235
      vertex -0.145 0.577215 -0.410235
      vertex -1.76436 1.2339 -0.866025
    endloop
  endfacet
  facet normal 0 0.570192 0.821511
    outer loop
      vertex -0.145 0.577215 -0.410235
      vertex -0.601453 1.2339 -0.866025
      vertex -1.76436 1.2339 -0.866025
    endloop
  endfacet
  facet normal 0 0.866025 -0.5
    outer loop
      vertex 0.145 0.165035 -0.124151
      vertex 0.145 0.190035 -0.0808494
      vertex 0.395 0.165035 -0.124151
    endloop
  endfacet
  facet normal 0 0.866025 -0.5
    outer loop
      vertex 0.145 0.190035 -0.0808494
      vertex 0.395 0.190035 -0.0808494
      vertex 0.395 0.165035 -0.124151
    endloop
  endfacet
  facet normal 1 0 0
    outer loop
      vertex 0.145 0.577215 -0.410235
      vertex 0.145 0.643881 -0.294765
      vertex 0.145 0.165035 -0.124151
    endloop
  endfacet
  facet normal 1 0 0
    outer loop
      vertex 0.145 0.643881 -0.294765
      vertex 0.145 0.190035 -0.0808494
      vertex 0.145 0.165035 -0.124151
    endloop
  endfacet
  facet normal 0 -0.426353 -0.904557
    outer loop
      vertex 0.395 0.190035 -0.0808494
      vertex 0.145 0.190035 -0.0808494
      vertex 0.395 0.643881 -0.294765
    endloop
  endfacet
  facet normal 0 -0.426353 -0.904557
    outer loop
      vertex 0.145 0.190035 -0.0808494
      vertex 0.145 0.643881 -0.294765
      vertex 0.395 0.643881 -0.294765
    endloop
  endfacet
  facet normal 0 -0.426353 -0.904557
    outer loop
      vertex 0.395 0.643881 -0.294765
      vertex 0.145 0.643881 -0.294765
      vertex 2.01633 1.5 -0.698288
    endloop
  endfacet
  facet normal 0 -0.426353 -0.904557
    outer loop
      vertex 0.145 0.643881 -0.294765
      vertex 0.685443 1.5 -0.698288
      vertex 2.01633 1.5 -0.698288
    endloop
  endfacet
  facet normal 0.867655 -0.430559 0.248583
    outer loop
      vertex 0.7335 1.5 -0.866025
      vertex 0.685443 1.5 -0.698288
      vertex 0.601453 1.2339 -0.866025
    endloop
  endfacet
  facet normal 0.867655 -0.430559 0.248583
    outer loop
      vertex 0.685443 1.5 -0.698288
      vertex 0.145 0.643881 -0.294765
      vertex 0.601453 1.2339 -0.866025
    endloop
  endfacet
  facet normal 0.867655 -0.430559 0.248583
    outer loop
      vertex 0.601453 1.2339 -0.866025
      vertex 0.145 0.643881 -0.294765
      vertex 0.145 0.577215 -0.410235
    endloop
  endfacet
  facet normal -0.502839 0.748575 -0.43219
    outer loop
      vertex 0.395 0.577215 -0.410235
      vertex 0.395 0.643881 -0.294765
      vertex 1.76436 1.2339 -0.866025
    endloop
  endfacet
  facet normal -0.502839 0.748575 -0.43219
    outer loop
      vertex 0.395 0.643881 -0.294765
      vertex 2.01633 1.5 -0.698288
      vertex 1.76436 1.2339 -0.866025
    endloop
  endfacet
  facet normal -0.502839 0.748575 -0.43219
    outer loop
      vertex 1.76436 1.2339 -0.866025
      vertex 2.01633 1.5 -0.698288
      vertex 2.1605 1.5 -0.866025
    endloop
  endfacet
  facet normal 0 0.570192 0.821511
    outer loop
      vertex 1.76436 1.2339 -0.866025
      vertex 0.601453 1.2339 -0.866025
      vertex 0.395 0.577215 -0.410235
    endloop
  endfacet
  facet normal 0 0.570192 0.821511
    outer loop
      vertex 0.601453 1.2339 -0.866025
      vertex 0.145 0.577215 -0.410235
      vertex 0.395 0.577215 -0.410235
    endloop
  endfacet
  facet normal 0 0.570192 0.821511
    outer loop
      vertex 0.395 0.577215 -0.410235
      vertex 0.145 0.577215 -0.410235
      vertex 0.395 0.165035 -0.124151
    endloop
  endfacet
  facet normal 0 0.570192 0.821511
    outer loop
      vertex 0.145 0.577215 -0.410235
      vertex 0.145 0.165035 -0.124151
      vertex 0.395 0.165035 -0.124151
    endloop
  endfacet
  facet normal 0.502839 0.748575 0.43219
    outer loop
      vertex -0.395 0.577215 0.410235
      vertex -0.395 0.643881 0.294765
      vertex -1.76436 1.2339 0.866025
    endloop
  endfacet
  facet normal 0.502839 0.748575 0.43219
    outer loop
      vertex -0.395 0.643881 0.294765
      vertex -2.01633 1.5 0.698288
      vertex -1.76436 1.2339 0.866025
    endloop
  endfacet
  facet normal 0.502839 0.748575 0.43219
    outer loop
      vertex -1.76436 1.2339 0.866025
      vertex -2.01633 1.5 0.698288
      vertex -2.1605 1.5 0.866025
    endloop
  endfacet
  facet normal 0 0.866025 -0.5
    outer loop
      vertex -0.125 0.165035 -0.124151
      vertex -0.125 0.190035 -0.0808494
      vertex 0.125 0.165035 -0.124151
    endloop
  endfacet
  facet normal 0 0.866025 -0.5
    outer loop
      vertex -0.125 0.190035 -0.0808494
      vertex 0.125 0.190035 -0.0808494
      vertex 0.125 0.165035 -0.124151
    endloop
  endfacet
  facet normal 1 0 0
    outer loop
      vertex -0.125 0.165035 -0.124151
      vertex -0.125 0.577215 -0.410235
      vertex -0.125 0.190035 -0.0808494
    endloop
  endfacet
  facet normal 1 0 0
    outer loop
      vertex -0.125 0.577215 -0.410235
      vertex -0.125 0.643881 -0.294765
      vertex -0.125 0.190035 -0.0808494
    endloop
  endfacet
  facet normal 0 -0.426353 -0.904557
    outer loop
      vertex -0.665443 1.5 -0.698288
      vertex 0.665443 1.5 -0.698288
      vertex -0.125 0.643881 -0.294765
    endloop
  endfacet
  facet normal 0 -0.426353 -0.904557
    outer loop
      vertex 0.665443 1.5 -0.698288
      vertex 0.125 0.643881 -0.294765
      vertex -0.125 0.643881 -0.294765
    endloop
  endfacet
  facet normal 0 -0.426353 -0.904557
    outer loop
      vertex -0.125 0.643881 -0.294765
      vertex 0.125 0.643881 -0.294765
      vertex -0.125 0.190035 -0.0808494
    endloop
  endfacet
  facet normal 0 -0.426353 -0.904557
    outer loop
      vertex 0.125 0.643881 -0.294765
      vertex 0.125 0.190035 -0.0808494
      vertex -0.125 0.190035 -0.0808494
    endloop
  endfacet
  facet normal 1 0 0
    outer loop
      vertex -0.395 0.165035 0.124151
      vertex -0.395 0.190035 0.0808494
      vertex -0.395 0.577215 0.410235
    endloop
  endfacet
  facet normal 1 0 0
    outer loop
      vertex -0.395 0.190035 0.0808494
      vertex -0.395 0.643881 0.294765
      vertex -0.395 0.577215 0.410235
    endloop
  endfacet
  facet normal 0.867655 0.430559 -0.248583
    outer loop
      vertex -0.7135 1.5 -0.866025
      vertex -0.665443 1.5 -0.698288
      vertex -0.581453 1.2339 -0.866025
    endloop
  endfacet
  facet normal 0.867655 0.430559 -0.248583
    outer loop
      vertex -0.665443 1.5 -0.698288
      vertex -0.125 0.643881 -0.294765
      vertex -0.581453 1.2339 -0.866025
    endloop
  endfacet
  facet normal 0.867655 0.430559 -0.248583
    outer loop
      vertex -0.581453 1.2339 -0.866025
      vertex -0.125 0.643881 -0.294765
      vertex -0.125 0.577215 -0.410235
    endloop
  endfacet
  facet normal 0 0.570192 0.821511
    outer loop
      vertex -0.125 0.165035 -0.124151
      vertex 0.125 0.165035 -0.124151
      vertex -0.125 0.577215 -0.410235
    endloop
  endfacet
  facet normal 0 0.570192 0.821511
    outer loop
      vertex 0.125 0.165035 -0.124151
      vertex 0.125 0.577215 -0.410235
      vertex -0.125 0.577215 -0.410235
    endloop
  endfacet
  facet normal 0 0.570192 0.821511
    outer loop
      vertex -0.125 0.577215 -0.410235
      vertex 0.125 0.577215 -0.410235
      vertex -0.581453 1.2339 -0.866025
    endloop
  endfacet
  facet normal 0 0.570192 0.821511
    outer loop
      vertex 0.125 0.577215 -0.410235
      vertex 0.581453 1.2339 -0.866025
      vertex -0.581453 1.2339 -0.866025
    endloop
  endfacet
  facet normal 0.502839 0.748575 -0.43219
    outer loop
      vertex -0.395 0.643881 -0.294765
      vertex -0.395 0.577215 -0.410235
      vertex -2.01633 1.5 -0.698288
    endloop
  endfacet
  facet normal 0.502839 0.748575 -0.43219
    outer loop
      vertex -0.395 0.577215 -0.410235
      vertex -1.76436 1.2339 -0.866025
      vertex -2.01633 1.5 -0.698288
    endloop
  endfacet
  facet normal 0.502839 0.748575 -0.43219
    outer loop
      vertex -2.01633 1.5 -0.698288
      vertex -1.76436 1.2339 -0.866025
      vertex -2.1605 1.5 -0.866025
    endloop
  endfacet
  facet normal 0 0.866025 0.5
    outer loop
      vertex -0.145 0.165035 0.124151
      vertex -0.145 0.190035 0.0808494
      vertex -0.395 0.165035 0.124151
    endloop
  endfacet
  facet normal 0 0.866025 0.5
    outer loop
      vertex -0.145 0.190035 0.0808494
      vertex -0.395 0.190035 0.0808494
      vertex -0.395 0.165035 0.124151
    endloop
  endfacet
  facet normal -1 0 0
    outer loop
      vertex -0.145 0.577215 -0.410235
      vertex -0.145 0.165035 -0.124151
      vertex -0.145 0.643881 -0.294765
    endloop
  endfacet
  facet normal -1 0 0
    outer loop
      vertex -0.145 0.165035 -0.124151
      vertex -0.145 0.190035 -0.0808494
      vertex -0.145 0.643881 -0.294765
    endloop
  endfacet
  facet normal 0 -0.426353 -0.904557
    outer loop
      vertex -2.01633 1.5 -0.698288
      vertex -0.685443 1.5 -0.698288
      vertex -0.395 0.643881 -0.294765
    endloop
  endfacet
  facet normal 0 -0.426353 -0.904557
    outer loop
      vertex -0.685443 1.5 -0.698288
      vertex -0.145 0.643881 -0.294765
      vertex -0.395 0.643881 -0.294765
    endloop
  endfacet
  facet normal 0 -0.426353 -0.904557
    outer loop
      vertex -0.395 0.643881 -0.294765
      vertex -0.145 0.643881 -0.294765
      vertex -0.395 0.190035 -0.0808494
    endloop
  endfacet
  facet normal 0 -0.426353 -0.904557
    outer loop
      vertex -0.145 0.643881 -0.294765
      vertex -0.145 0.190035 -0.0808494
      vertex -0.395 0.190035 -0.0808494
    endloop
  endfacet
  facet normal 1 0 0
    outer loop
      vertex -0.125 0.165035 0.124151
      vertex -0.125 0.190035 0.0808494
      vertex -0.125 0.577215 0.410235
    endloop
  endfacet
  facet normal 1 0 0
    outer loop
      vertex -0.125 0.190035 0.0808494
      vertex -0.125 0.643881 0.294765
      vertex -0.125 0.577215 0.410235
    endloop
  endfacet
  facet normal 0 -0.426353 0.904557
    outer loop
      vertex -0.395 0.190035 0.0808494
      vertex -0.145 0.190035 0.0808494
      vertex -0.395 0.643881 0.294765
    endloop
  endfacet
  facet normal 0 -0.426353 0.904557
    outer loop
      vertex -0.145 0.190035 0.0808494
      vertex -0.145 0.643881 0.294765
      vertex -0.395 0.643881 0.294765
    endloop
  endfacet
  facet normal 0 -0.426353 0.904557
    outer loop
      vertex -0.395 0.643881 0.294765
      vertex -0.145 0.643881 0.294765
      vertex -2.01633 1.5 0.698288
    endloop
  endfacet
  facet normal 0 -0.426353 0.904557
    outer loop
      vertex -0.145 0.643881 0.294765
      vertex -0.685443 1.5 0.698288
      vertex -2.01633 1.5 0.698288
    endloop
  endfacet
  facet normal 0 0.570192 -0.821511
    outer loop
      vertex -1.76436 1.2339 0.866025
      vertex -0.601453 1.2339 0.866025
      vertex -0.395 0.577215 0.410235
    endloop
  endfacet
  facet normal 0 0.570192 -0.821511
    outer loop
      vertex -0.601453 1.2339 0.866025
      vertex -0.145 0.577215 0.410235
      vertex -0.395 0.577215 0.410235
    endloop
  endfacet
  facet normal 0 0.570192 -0.821511
    outer loop
      vertex -0.395 0.577215 0.410235
      vertex -0.145 0.577215 0.410235
      vertex -0.395 0.165035 0.124151
    endloop
  endfacet
  facet normal 0 0.570192 -0.821511
    outer loop
      vertex -0.145 0.577215 0.410235
      vertex -0.145 0.165035 0.124151
      vertex -0.395 0.165035 0.124151
    endloop
  endfacet
  facet normal 0 -0.426353 0.904557
    outer loop
      vertex -0.125 0.190035 0.0808494
      vertex 0.125 0.190035 0.0808494
      vertex -0.125 0.643881 0.294765
    endloop
  endfacet
  facet normal 0 -0.426353 0.904557
    outer loop
      vertex 0.125 0.190035 0.0808494
      vertex 0.125 0.643881 0.294765
      vertex -0.125 0.643881 0.294765
    endloop
  endfacet
  facet normal 0 -0.426353 0.904557
    outer loop
      vertex -0.125 0.643881 0.294765
      vertex 0.125 0.643881 0.294765
      vertex -0.665443 1.5 0.698288
    endloop
  endfacet
  facet normal 0 -0.426353 0.904557
    outer loop
      vertex 0.125 0.643881 0.294765
      vertex 0.665443 1.5 0.698288
      vertex -0.665443 1.5 0.698288
    endloop
  endfacet
endsolid Onshape
