solid automaticSTL
  facet normal 0.0000000000 -0.5701914169 -0.8215118673
    outer loop
      vertex -0.4450000000 -0.1650350000 0.1241510000
      vertex -0.1950000000 -0.1650350000 0.1241510000
      vertex -0.4450000000 -0.4852580000 0.3464100000
    endloop
  endfacet
  facet normal 0.0000000000 -0.5701914169 -0.8215118673
    outer loop
      vertex -0.1950000000 -0.1650350000 0.1241510000
      vertex -0.1950000000 -0.4852580000 0.3464100000
      vertex -0.4450000000 -0.4852580000 0.3464100000
    endloop
  endfacet
  facet normal -1.0000000000 0.0000000000 0.0000000000
    outer loop
      vertex -0.1950000000 -0.1650350000 0.1241510000
      vertex -0.1950000000 -0.1900350000 0.0808494000
      vertex -0.1950000000 -0.4852580000 0.3464100000
    endloop
  endfacet
  facet normal -1.0000000000 0.0000000000 -0.0000000000
    outer loop
      vertex -0.1950000000 -0.1900350000 0.0808494000
      vertex -0.1950000000 -0.6000000000 0.2740820000
      vertex -0.1950000000 -0.4852580000 0.3464100000
    endloop
  endfacet
  facet normal -1.0000000000 0.0000000000 0.0000000000
    outer loop
      vertex -0.1950000000 -0.4852580000 0.3464100000
      vertex -0.1950000000 -0.6000000000 0.2740820000
      vertex -0.1950000000 -0.6000000000 0.3464100000
    endloop
  endfacet
  facet normal 1.0000000000 0.0000000000 0.0000000000
    outer loop
      vertex -0.4450000000 -0.6000000000 0.3464100000
      vertex -0.4450000000 -0.6000000000 0.2740820000
      vertex -0.4450000000 -0.4852580000 0.3464100000
    endloop
  endfacet
  facet normal 1.0000000000 0.0000000000 0.0000000000
    outer loop
      vertex -0.4450000000 -0.6000000000 0.2740820000
      vertex -0.4450000000 -0.1900350000 0.0808494000
      vertex -0.4450000000 -0.4852580000 0.3464100000
    endloop
  endfacet
  facet normal 1.0000000000 0.0000000000 0.0000000000
    outer loop
      vertex -0.4450000000 -0.4852580000 0.3464100000
      vertex -0.4450000000 -0.1900350000 0.0808494000
      vertex -0.4450000000 -0.1650350000 0.1241510000
    endloop
  endfacet
  facet normal 0.0000000000 -0.8660270528 0.4999971438
    outer loop
      vertex -0.4450000000 -0.1650350000 0.1241510000
      vertex -0.4450000000 -0.1900350000 0.0808494000
      vertex -0.1950000000 -0.1650350000 0.1241510000
    endloop
  endfacet
  facet normal 0.0000000000 -0.8660270528 0.4999971438
    outer loop
      vertex -0.4450000000 -0.1900350000 0.0808494000
      vertex -0.1950000000 -0.1900350000 0.0808494000
      vertex -0.1950000000 -0.1650350000 0.1241510000
    endloop
  endfacet
  facet normal 0.0000000000 0.4263531336 0.9045568006
    outer loop
      vertex -0.4450000000 -0.1900350000 0.0808494000
      vertex -0.4450000000 -0.6000000000 0.2740820000
      vertex -0.1950000000 -0.1900350000 0.0808494000
    endloop
  endfacet
  facet normal 0.0000000000 0.4263531336 0.9045568006
    outer loop
      vertex -0.4450000000 -0.6000000000 0.2740820000
      vertex -0.1950000000 -0.6000000000 0.2740820000
      vertex -0.1950000000 -0.1900350000 0.0808494000
    endloop
  endfacet
  facet normal 0.0000000000 -0.5701914169 -0.8215118673
    outer loop
      vertex -0.1750000000 -0.1650350000 0.1241510000
      vertex 0.1750000000 -0.1650350000 0.1241510000
      vertex -0.1750000000 -0.4852580000 0.3464100000
    endloop
  endfacet
  facet normal 0.0000000000 -0.5701914169 -0.8215118673
    outer loop
      vertex 0.1750000000 -0.1650350000 0.1241510000
      vertex 0.1750000000 -0.4852580000 0.3464100000
      vertex -0.1750000000 -0.4852580000 0.3464100000
    endloop
  endfacet
  facet normal -1.0000000000 0.0000000000 0.0000000000
    outer loop
      vertex 0.1750000000 -0.1650350000 0.1241510000
      vertex 0.1750000000 -0.1900350000 0.0808494000
      vertex 0.1750000000 -0.4852580000 0.3464100000
    endloop
  endfacet
  facet normal -1.0000000000 0.0000000000 -0.0000000000
    outer loop
      vertex 0.1750000000 -0.1900350000 0.0808494000
      vertex 0.1750000000 -0.6000000000 0.2740820000
      vertex 0.1750000000 -0.4852580000 0.3464100000
    endloop
  endfacet
  facet normal -1.0000000000 0.0000000000 0.0000000000
    outer loop
      vertex 0.1750000000 -0.4852580000 0.3464100000
      vertex 0.1750000000 -0.6000000000 0.2740820000
      vertex 0.1750000000 -0.6000000000 0.3464100000
    endloop
  endfacet
  facet normal 1.0000000000 0.0000000000 0.0000000000
    outer loop
      vertex -0.1750000000 -0.6000000000 0.3464100000
      vertex -0.1750000000 -0.6000000000 0.2740820000
      vertex -0.1750000000 -0.4852580000 0.3464100000
    endloop
  endfacet
  facet normal 1.0000000000 0.0000000000 0.0000000000
    outer loop
      vertex -0.1750000000 -0.6000000000 0.2740820000
      vertex -0.1750000000 -0.1900350000 0.0808494000
      vertex -0.1750000000 -0.4852580000 0.3464100000
    endloop
  endfacet
  facet normal 1.0000000000 0.0000000000 0.0000000000
    outer loop
      vertex -0.1750000000 -0.4852580000 0.3464100000
      vertex -0.1750000000 -0.1900350000 0.0808494000
      vertex -0.1750000000 -0.1650350000 0.1241510000
    endloop
  endfacet
  facet normal 0.0000000000 0.4263531336 0.9045568006
    outer loop
      vertex -0.1750000000 -0.1900350000 0.0808494000
      vertex -0.1750000000 -0.6000000000 0.2740820000
      vertex 0.1750000000 -0.1900350000 0.0808494000
    endloop
  endfacet
  facet normal 0.0000000000 0.4263531336 0.9045568006
    outer loop
      vertex -0.1750000000 -0.6000000000 0.2740820000
      vertex 0.1750000000 -0.6000000000 0.2740820000
      vertex 0.1750000000 -0.1900350000 0.0808494000
    endloop
  endfacet
  facet normal 0.0000000000 -0.8660270528 0.4999971438
    outer loop
      vertex -0.1750000000 -0.1650350000 0.1241510000
      vertex -0.1750000000 -0.1900350000 0.0808494000
      vertex 0.1750000000 -0.1650350000 0.1241510000
    endloop
  endfacet
  facet normal 0.0000000000 -0.8660270528 0.4999971438
    outer loop
      vertex -0.1750000000 -0.1900350000 0.0808494000
      vertex 0.1750000000 -0.1900350000 0.0808494000
      vertex 0.1750000000 -0.1650350000 0.1241510000
    endloop
  endfacet
  facet normal 0.0000000000 -0.5701914169 -0.8215118673
    outer loop
      vertex 0.1950000000 -0.1650350000 0.1241510000
      vertex 0.4450000000 -0.1650350000 0.1241510000
      vertex 0.1950000000 -0.4852580000 0.3464100000
    endloop
  endfacet
  facet normal 0.0000000000 -0.5701914169 -0.8215118673
    outer loop
      vertex 0.4450000000 -0.1650350000 0.1241510000
      vertex 0.4450000000 -0.4852580000 0.3464100000
      vertex 0.1950000000 -0.4852580000 0.3464100000
    endloop
  endfacet
  facet normal -1.0000000000 0.0000000000 0.0000000000
    outer loop
      vertex 0.4450000000 -0.1650350000 0.1241510000
      vertex 0.4450000000 -0.1900350000 0.0808494000
      vertex 0.4450000000 -0.4852580000 0.3464100000
    endloop
  endfacet
  facet normal -1.0000000000 0.0000000000 -0.0000000000
    outer loop
      vertex 0.4450000000 -0.1900350000 0.0808494000
      vertex 0.4450000000 -0.6000000000 0.2740820000
      vertex 0.4450000000 -0.4852580000 0.3464100000
    endloop
  endfacet
  facet normal -1.0000000000 0.0000000000 0.0000000000
    outer loop
      vertex 0.4450000000 -0.4852580000 0.3464100000
      vertex 0.4450000000 -0.6000000000 0.2740820000
      vertex 0.4450000000 -0.6000000000 0.3464100000
    endloop
  endfacet
  facet normal 1.0000000000 0.0000000000 0.0000000000
    outer loop
      vertex 0.1950000000 -0.6000000000 0.3464100000
      vertex 0.1950000000 -0.6000000000 0.2740820000
      vertex 0.1950000000 -0.4852580000 0.3464100000
    endloop
  endfacet
  facet normal 1.0000000000 0.0000000000 0.0000000000
    outer loop
      vertex 0.1950000000 -0.6000000000 0.2740820000
      vertex 0.1950000000 -0.1900350000 0.0808494000
      vertex 0.1950000000 -0.4852580000 0.3464100000
    endloop
  endfacet
  facet normal 1.0000000000 0.0000000000 0.0000000000
    outer loop
      vertex 0.1950000000 -0.4852580000 0.3464100000
      vertex 0.1950000000 -0.1900350000 0.0808494000
      vertex 0.1950000000 -0.1650350000 0.1241510000
    endloop
  endfacet
  facet normal 0.0000000000 0.4263531336 0.9045568006
    outer loop
      vertex 0.1950000000 -0.1900350000 0.0808494000
      vertex 0.1950000000 -0.6000000000 0.2740820000
      vertex 0.4450000000 -0.1900350000 0.0808494000
    endloop
  endfacet
  facet normal 0.0000000000 0.4263531336 0.9045568006
    outer loop
      vertex 0.1950000000 -0.6000000000 0.2740820000
      vertex 0.4450000000 -0.6000000000 0.2740820000
      vertex 0.4450000000 -0.1900350000 0.0808494000
    endloop
  endfacet
  facet normal 0.0000000000 -0.8660270528 0.4999971438
    outer loop
      vertex 0.1950000000 -0.1650350000 0.1241510000
      vertex 0.1950000000 -0.1900350000 0.0808494000
      vertex 0.4450000000 -0.1650350000 0.1241510000
    endloop
  endfacet
  facet normal 0.0000000000 -0.8660270528 0.4999971438
    outer loop
      vertex 0.1950000000 -0.1900350000 0.0808494000
      vertex 0.4450000000 -0.1900350000 0.0808494000
      vertex 0.4450000000 -0.1650350000 0.1241510000
    endloop
  endfacet
  facet normal 0.0000000000 -0.8660270528 -0.4999971438
    outer loop
      vertex 0.4450000000 -0.1650350000 -0.1241510000
      vertex 0.4450000000 -0.1900350000 -0.0808494000
      vertex 0.1950000000 -0.1650350000 -0.1241510000
    endloop
  endfacet
  facet normal 0.0000000000 -0.8660270528 -0.4999971438
    outer loop
      vertex 0.4450000000 -0.1900350000 -0.0808494000
      vertex 0.1950000000 -0.1900350000 -0.0808494000
      vertex 0.1950000000 -0.1650350000 -0.1241510000
    endloop
  endfacet
  facet normal 0.0000000000 -0.5701914169 0.8215118673
    outer loop
      vertex 0.1950000000 -0.1650350000 -0.1241510000
      vertex 0.1950000000 -0.4852580000 -0.3464100000
      vertex 0.4450000000 -0.1650350000 -0.1241510000
    endloop
  endfacet
  facet normal 0.0000000000 -0.5701914169 0.8215118673
    outer loop
      vertex 0.1950000000 -0.4852580000 -0.3464100000
      vertex 0.4450000000 -0.4852580000 -0.3464100000
      vertex 0.4450000000 -0.1650350000 -0.1241510000
    endloop
  endfacet
  facet normal 1.0000000000 0.0000000000 0.0000000000
    outer loop
      vertex 0.1950000000 -0.1650350000 -0.1241510000
      vertex 0.1950000000 -0.1900350000 -0.0808494000
      vertex 0.1950000000 -0.4852580000 -0.3464100000
    endloop
  endfacet
  facet normal 1.0000000000 0.0000000000 -0.0000000000
    outer loop
      vertex 0.1950000000 -0.1900350000 -0.0808494000
      vertex 0.1950000000 -0.6000000000 -0.2740820000
      vertex 0.1950000000 -0.4852580000 -0.3464100000
    endloop
  endfacet
  facet normal 1.0000000000 0.0000000000 0.0000000000
    outer loop
      vertex 0.1950000000 -0.4852580000 -0.3464100000
      vertex 0.1950000000 -0.6000000000 -0.2740820000
      vertex 0.1950000000 -0.6000000000 -0.3464100000
    endloop
  endfacet
  facet normal -1.0000000000 0.0000000000 0.0000000000
    outer loop
      vertex 0.4450000000 -0.6000000000 -0.3464100000
      vertex 0.4450000000 -0.6000000000 -0.2740820000
      vertex 0.4450000000 -0.4852580000 -0.3464100000
    endloop
  endfacet
  facet normal -1.0000000000 0.0000000000 0.0000000000
    outer loop
      vertex 0.4450000000 -0.6000000000 -0.2740820000
      vertex 0.4450000000 -0.1900350000 -0.0808494000
      vertex 0.4450000000 -0.4852580000 -0.3464100000
    endloop
  endfacet
  facet normal -1.0000000000 -0.0000000000 0.0000000000
    outer loop
      vertex 0.4450000000 -0.4852580000 -0.3464100000
      vertex 0.4450000000 -0.1900350000 -0.0808494000
      vertex 0.4450000000 -0.1650350000 -0.1241510000
    endloop
  endfacet
  facet normal 0.0000000000 0.4263531336 -0.9045568006
    outer loop
      vertex 0.4450000000 -0.1900350000 -0.0808494000
      vertex 0.4450000000 -0.6000000000 -0.2740820000
      vertex 0.1950000000 -0.1900350000 -0.0808494000
    endloop
  endfacet
  facet normal 0.0000000000 0.4263531336 -0.9045568006
    outer loop
      vertex 0.4450000000 -0.6000000000 -0.2740820000
      vertex 0.1950000000 -0.6000000000 -0.2740820000
      vertex 0.1950000000 -0.1900350000 -0.0808494000
    endloop
  endfacet
  facet normal 0.0000000845 -0.4263531336 0.9045568006
    outer loop
      vertex 0.4650000000 0.1900350000 0.0808494000
      vertex 1.0000000000 0.1900350000 0.0808493500
      vertex 0.4650000000 0.6000000000 0.2740820000
    endloop
  endfacet
  facet normal 0.0000000000 -0.4263532239 0.9045567580
    outer loop
      vertex 1.0000000000 0.1900350000 0.0808493500
      vertex 1.0000000000 0.6000000000 0.2740820000
      vertex 0.4650000000 0.6000000000 0.2740820000
    endloop
  endfacet
  facet normal 0.0000000467 -0.8660270528 -0.4999971438
    outer loop
      vertex 0.4650000000 -0.1900350000 -0.0808494000
      vertex 0.4650000000 -0.1650350000 -0.1241510000
      vertex 1.0000000000 -0.1900350000 -0.0808493500
    endloop
  endfacet
  facet normal 0.0000000000 -0.8660273028 -0.4999967108
    outer loop
      vertex 0.4650000000 -0.1650350000 -0.1241510000
      vertex 1.0000000000 -0.1650350000 -0.1241510000
      vertex 1.0000000000 -0.1900350000 -0.0808493500
    endloop
  endfacet
  facet normal 0.0000000000 -0.5701914169 0.8215118673
    outer loop
      vertex 0.4650000000 -0.1650350000 -0.1241510000
      vertex 0.4650000000 -0.4852580000 -0.3464100000
      vertex 1.0000000000 -0.1650350000 -0.1241510000
    endloop
  endfacet
  facet normal 0.0000000000 -0.5701914169 0.8215118673
    outer loop
      vertex 0.4650000000 -0.4852580000 -0.3464100000
      vertex 1.0000000000 -0.4852580000 -0.3464100000
      vertex 1.0000000000 -0.1650350000 -0.1241510000
    endloop
  endfacet
  facet normal 0.0000000845 0.4263532239 -0.9045567580
    outer loop
      vertex 1.0000000000 -0.1900350000 -0.0808493500
      vertex 1.0000000000 -0.6000000000 -0.2740820000
      vertex 0.4650000000 -0.1900350000 -0.0808494000
    endloop
  endfacet
  facet normal 0.0000000000 0.4263531336 -0.9045568006
    outer loop
      vertex 1.0000000000 -0.6000000000 -0.2740820000
      vertex 0.4650000000 -0.6000000000 -0.2740820000
      vertex 0.4650000000 -0.1900350000 -0.0808494000
    endloop
  endfacet
  facet normal 1.0000000000 0.0000000000 0.0000000000
    outer loop
      vertex 0.4650000000 0.6000000000 -0.3464100000
      vertex 0.4650000000 0.6000000000 -0.2740820000
      vertex 0.4650000000 0.4852580000 -0.3464100000
    endloop
  endfacet
  facet normal 1.0000000000 0.0000000000 -0.0000000000
    outer loop
      vertex 0.4650000000 0.6000000000 -0.2740820000
      vertex 0.4650000000 0.1900350000 -0.0808494000
      vertex 0.4650000000 0.4852580000 -0.3464100000
    endloop
  endfacet
  facet normal 1.0000000000 -0.0000000000 0.0000000000
    outer loop
      vertex 0.4650000000 0.4852580000 -0.3464100000
      vertex 0.4650000000 0.1900350000 -0.0808494000
      vertex 0.4650000000 0.1650350000 -0.1241510000
    endloop
  endfacet
  facet normal 0.0000000000 0.8660270528 -0.4999971438
    outer loop
      vertex 0.4650000000 0.1650350000 -0.1241510000
      vertex 0.4650000000 0.1900350000 -0.0808494000
      vertex 1.0000000000 0.1650350000 -0.1241510000
    endloop
  endfacet
  facet normal 0.0000000467 0.8660273028 -0.4999967108
    outer loop
      vertex 0.4650000000 0.1900350000 -0.0808494000
      vertex 1.0000000000 0.1900350000 -0.0808493500
      vertex 1.0000000000 0.1650350000 -0.1241510000
    endloop
  endfacet
  facet normal 0.0000000000 0.5701914169 -0.8215118673
    outer loop
      vertex 1.0000000000 0.1650350000 0.1241510000
      vertex 0.4650000000 0.1650350000 0.1241510000
      vertex 1.0000000000 0.4852580000 0.3464100000
    endloop
  endfacet
  facet normal 0.0000000000 0.5701914169 -0.8215118673
    outer loop
      vertex 0.4650000000 0.1650350000 0.1241510000
      vertex 0.4650000000 0.4852580000 0.3464100000
      vertex 1.0000000000 0.4852580000 0.3464100000
    endloop
  endfacet
  facet normal 0.0000000845 -0.4263532239 -0.9045567580
    outer loop
      vertex 1.0000000000 0.1900350000 -0.0808493500
      vertex 0.4650000000 0.1900350000 -0.0808494000
      vertex 1.0000000000 0.6000000000 -0.2740820000
    endloop
  endfacet
  facet normal -0.0000000000 -0.4263531336 -0.9045568006
    outer loop
      vertex 0.4650000000 0.1900350000 -0.0808494000
      vertex 0.4650000000 0.6000000000 -0.2740820000
      vertex 1.0000000000 0.6000000000 -0.2740820000
    endloop
  endfacet
  facet normal 1.0000000000 0.0000000000 0.0000000000
    outer loop
      vertex 0.4650000000 -0.6000000000 0.3464100000
      vertex 0.4650000000 -0.6000000000 0.2740820000
      vertex 0.4650000000 -0.4852580000 0.3464100000
    endloop
  endfacet
  facet normal 1.0000000000 0.0000000000 0.0000000000
    outer loop
      vertex 0.4650000000 -0.6000000000 0.2740820000
      vertex 0.4650000000 -0.1900350000 0.0808494000
      vertex 0.4650000000 -0.4852580000 0.3464100000
    endloop
  endfacet
  facet normal 1.0000000000 0.0000000000 0.0000000000
    outer loop
      vertex 0.4650000000 -0.4852580000 0.3464100000
      vertex 0.4650000000 -0.1900350000 0.0808494000
      vertex 0.4650000000 -0.1650350000 0.1241510000
    endloop
  endfacet
  facet normal 0.0000000000 -0.4263531336 -0.9045568006
    outer loop
      vertex 0.1750000000 0.1900350000 -0.0808494000
      vertex -0.1750000000 0.1900350000 -0.0808494000
      vertex 0.1750000000 0.6000000000 -0.2740820000
    endloop
  endfacet
  facet normal -0.0000000000 -0.4263531336 -0.9045568006
    outer loop
      vertex -0.1750000000 0.1900350000 -0.0808494000
      vertex -0.1750000000 0.6000000000 -0.2740820000
      vertex 0.1750000000 0.6000000000 -0.2740820000
    endloop
  endfacet
  facet normal 0.0000000000 -0.8660270528 0.4999971438
    outer loop
      vertex 0.4650000000 -0.1650350000 0.1241510000
      vertex 0.4650000000 -0.1900350000 0.0808494000
      vertex 1.0000000000 -0.1650350000 0.1241510000
    endloop
  endfacet
  facet normal 0.0000000467 -0.8660273028 0.4999967108
    outer loop
      vertex 0.4650000000 -0.1900350000 0.0808494000
      vertex 1.0000000000 -0.1900350000 0.0808493500
      vertex 1.0000000000 -0.1650350000 0.1241510000
    endloop
  endfacet
  facet normal 1.0000000000 0.0000000000 0.0000000000
    outer loop
      vertex -0.1750000000 0.6000000000 -0.3464100000
      vertex -0.1750000000 0.6000000000 -0.2740820000
      vertex -0.1750000000 0.4852580000 -0.3464100000
    endloop
  endfacet
  facet normal 1.0000000000 0.0000000000 -0.0000000000
    outer loop
      vertex -0.1750000000 0.6000000000 -0.2740820000
      vertex -0.1750000000 0.1900350000 -0.0808494000
      vertex -0.1750000000 0.4852580000 -0.3464100000
    endloop
  endfacet
  facet normal 1.0000000000 -0.0000000000 0.0000000000
    outer loop
      vertex -0.1750000000 0.4852580000 -0.3464100000
      vertex -0.1750000000 0.1900350000 -0.0808494000
      vertex -0.1750000000 0.1650350000 -0.1241510000
    endloop
  endfacet
  facet normal -0.0000000000 0.5701914169 0.8215118673
    outer loop
      vertex 1.0000000000 0.1650350000 -0.1241510000
      vertex 1.0000000000 0.4852580000 -0.3464100000
      vertex 0.4650000000 0.1650350000 -0.1241510000
    endloop
  endfacet
  facet normal 0.0000000000 0.5701914169 0.8215118673
    outer loop
      vertex 1.0000000000 0.4852580000 -0.3464100000
      vertex 0.4650000000 0.4852580000 -0.3464100000
      vertex 0.4650000000 0.1650350000 -0.1241510000
    endloop
  endfacet
  facet normal 0.0000000845 0.4263531336 0.9045568006
    outer loop
      vertex 0.4650000000 -0.1900350000 0.0808494000
      vertex 0.4650000000 -0.6000000000 0.2740820000
      vertex 1.0000000000 -0.1900350000 0.0808493500
    endloop
  endfacet
  facet normal 0.0000000000 0.4263532239 0.9045567580
    outer loop
      vertex 0.4650000000 -0.6000000000 0.2740820000
      vertex 1.0000000000 -0.6000000000 0.2740820000
      vertex 1.0000000000 -0.1900350000 0.0808493500
    endloop
  endfacet
  facet normal 1.0000000000 -0.0000000000 0.0000000000
    outer loop
      vertex 1.0000000000 0.6000000000 -0.2740820000
      vertex 1.0000000000 0.6000000000 0.2740820000
      vertex 1.0000000000 0.1900350000 -0.0808493500
    endloop
  endfacet
  facet normal 1.0000000000 0.0000000000 0.0000000000
    outer loop
      vertex 1.0000000000 0.6000000000 0.2740820000
      vertex 1.0000000000 0.1900350000 0.0808493500
      vertex 1.0000000000 0.1900350000 -0.0808493500
    endloop
  endfacet
  facet normal 1.0000000000 0.0000000000 0.0000000000
    outer loop
      vertex 1.0000000000 0.1900350000 -0.0808493500
      vertex 1.0000000000 0.1900350000 0.0808493500
      vertex 1.0000000000 0.1650350000 -0.1241510000
    endloop
  endfacet
  facet normal 1.0000000000 0.0000000000 0.0000000000
    outer loop
      vertex 1.0000000000 -0.6000000000 0.2740820000
      vertex 1.0000000000 -0.6000000000 -0.2740820000
      vertex 1.0000000000 -0.1900350000 0.0808493500
    endloop
  endfacet
  facet normal 1.0000000000 0.0000000000 0.0000000000
    outer loop
      vertex 1.0000000000 -0.6000000000 -0.2740820000
      vertex 1.0000000000 -0.1900350000 -0.0808493500
      vertex 1.0000000000 -0.1900350000 0.0808493500
    endloop
  endfacet
  facet normal 1.0000000000 0.0000000000 0.0000000000
    outer loop
      vertex 1.0000000000 -0.1900350000 0.0808493500
      vertex 1.0000000000 -0.1900350000 -0.0808493500
      vertex 1.0000000000 -0.1650350000 0.1241510000
    endloop
  endfacet
  facet normal 1.0000000000 0.0000000000 -0.0000000000
    outer loop
      vertex 1.0000000000 0.4852580000 0.3464100000
      vertex 1.0000000000 -0.4852580000 0.3464100000
      vertex 1.0000000000 0.1650350000 0.1241510000
    endloop
  endfacet
  facet normal 1.0000000000 0.0000000000 0.0000000000
    outer loop
      vertex 1.0000000000 -0.4852580000 0.3464100000
      vertex 1.0000000000 -0.1650350000 0.1241510000
      vertex 1.0000000000 0.1650350000 0.1241510000
    endloop
  endfacet
  facet normal 1.0000000000 0.0000000000 0.0000000000
    outer loop
      vertex 1.0000000000 0.1650350000 0.1241510000
      vertex 1.0000000000 -0.1650350000 0.1241510000
      vertex 1.0000000000 0.1900350000 0.0808493500
    endloop
  endfacet
  facet normal 1.0000000000 0.0000000000 0.0000000000
    outer loop
      vertex 1.0000000000 -0.1650350000 0.1241510000
      vertex 1.0000000000 -0.1900350000 -0.0808493500
      vertex 1.0000000000 0.1900350000 0.0808493500
    endloop
  endfacet
  facet normal 1.0000000000 0.0000000000 -0.0000000000
    outer loop
      vertex 1.0000000000 0.1900350000 0.0808493500
      vertex 1.0000000000 -0.1900350000 -0.0808493500
      vertex 1.0000000000 0.1650350000 -0.1241510000
    endloop
  endfacet
  facet normal 1.0000000000 0.0000000000 0.0000000000
    outer loop
      vertex 1.0000000000 -0.1900350000 -0.0808493500
      vertex 1.0000000000 -0.1650350000 -0.1241510000
      vertex 1.0000000000 0.1650350000 -0.1241510000
    endloop
  endfacet
  facet normal 1.0000000000 0.0000000000 0.0000000000
    outer loop
      vertex 1.0000000000 0.1650350000 -0.1241510000
      vertex 1.0000000000 -0.1650350000 -0.1241510000
      vertex 1.0000000000 0.4852580000 -0.3464100000
    endloop
  endfacet
  facet normal 1.0000000000 0.0000000000 0.0000000000
    outer loop
      vertex 1.0000000000 -0.1650350000 -0.1241510000
      vertex 1.0000000000 -0.4852580000 -0.3464100000
      vertex 1.0000000000 0.4852580000 -0.3464100000
    endloop
  endfacet
  facet normal -1.0000000000 0.0000000000 0.0000000000
    outer loop
      vertex -0.4650000000 0.6000000000 0.3464100000
      vertex -0.4650000000 0.6000000000 0.2740820000
      vertex -0.4650000000 0.4852580000 0.3464100000
    endloop
  endfacet
  facet normal -1.0000000000 0.0000000000 -0.0000000000
    outer loop
      vertex -0.4650000000 0.6000000000 0.2740820000
      vertex -0.4650000000 0.1900350000 0.0808494000
      vertex -0.4650000000 0.4852580000 0.3464100000
    endloop
  endfacet
  facet normal -1.0000000000 0.0000000000 0.0000000000
    outer loop
      vertex -0.4650000000 0.4852580000 0.3464100000
      vertex -0.4650000000 0.1900350000 0.0808494000
      vertex -0.4650000000 0.1650350000 0.1241510000
    endloop
  endfacet
  facet normal 0.0000000000 0.5701914169 -0.8215118673
    outer loop
      vertex -0.4650000000 0.1650350000 0.1241510000
      vertex -1.0000000000 0.1650350000 0.1241510000
      vertex -0.4650000000 0.4852580000 0.3464100000
    endloop
  endfacet
  facet normal 0.0000000000 0.5701914169 -0.8215118673
    outer loop
      vertex -1.0000000000 0.1650350000 0.1241510000
      vertex -1.0000000000 0.4852580000 0.3464100000
      vertex -0.4650000000 0.4852580000 0.3464100000
    endloop
  endfacet
  facet normal -0.0000000845 -0.4263532239 0.9045567580
    outer loop
      vertex -1.0000000000 0.1900350000 0.0808493500
      vertex -0.4650000000 0.1900350000 0.0808494000
      vertex -1.0000000000 0.6000000000 0.2740820000
    endloop
  endfacet
  facet normal 0.0000000000 -0.4263531336 0.9045568006
    outer loop
      vertex -0.4650000000 0.1900350000 0.0808494000
      vertex -0.4650000000 0.6000000000 0.2740820000
      vertex -1.0000000000 0.6000000000 0.2740820000
    endloop
  endfacet
  facet normal -1.0000000000 0.0000000000 0.0000000000
    outer loop
      vertex -0.4650000000 -0.6000000000 -0.3464100000
      vertex -0.4650000000 -0.6000000000 -0.2740820000
      vertex -0.4650000000 -0.4852580000 -0.3464100000
    endloop
  endfacet
  facet normal -1.0000000000 0.0000000000 0.0000000000
    outer loop
      vertex -0.4650000000 -0.6000000000 -0.2740820000
      vertex -0.4650000000 -0.1900350000 -0.0808494000
      vertex -0.4650000000 -0.4852580000 -0.3464100000
    endloop
  endfacet
  facet normal -1.0000000000 -0.0000000000 0.0000000000
    outer loop
      vertex -0.4650000000 -0.4852580000 -0.3464100000
      vertex -0.4650000000 -0.1900350000 -0.0808494000
      vertex -0.4650000000 -0.1650350000 -0.1241510000
    endloop
  endfacet
  facet normal -0.0000000467 -0.8660270528 -0.4999971438
    outer loop
      vertex -0.4650000000 -0.1900350000 -0.0808494000
      vertex -1.0000000000 -0.1900350000 -0.0808493500
      vertex -0.4650000000 -0.1650350000 -0.1241510000
    endloop
  endfacet
  facet normal -0.0000000000 -0.8660273028 -0.4999967108
    outer loop
      vertex -1.0000000000 -0.1900350000 -0.0808493500
      vertex -1.0000000000 -0.1650350000 -0.1241510000
      vertex -0.4650000000 -0.1650350000 -0.1241510000
    endloop
  endfacet
  facet normal -1.0000000000 0.0000000000 0.0000000000
    outer loop
      vertex -1.0000000000 0.6000000000 0.2740820000
      vertex -1.0000000000 0.6000000000 -0.2740820000
      vertex -1.0000000000 0.1900350000 0.0808493500
    endloop
  endfacet
  facet normal -1.0000000000 0.0000000000 0.0000000000
    outer loop
      vertex -1.0000000000 0.6000000000 -0.2740820000
      vertex -1.0000000000 0.1900350000 -0.0808493500
      vertex -1.0000000000 0.1900350000 0.0808493500
    endloop
  endfacet
  facet normal -1.0000000000 0.0000000000 0.0000000000
    outer loop
      vertex -1.0000000000 0.1900350000 0.0808493500
      vertex -1.0000000000 0.1900350000 -0.0808493500
      vertex -1.0000000000 0.1650350000 0.1241510000
    endloop
  endfacet
  facet normal -1.0000000000 -0.0000000000 0.0000000000
    outer loop
      vertex -1.0000000000 -0.6000000000 -0.2740820000
      vertex -1.0000000000 -0.6000000000 0.2740820000
      vertex -1.0000000000 -0.1900350000 -0.0808493500
    endloop
  endfacet
  facet normal -1.0000000000 0.0000000000 0.0000000000
    outer loop
      vertex -1.0000000000 -0.6000000000 0.2740820000
      vertex -1.0000000000 -0.1900350000 0.0808493500
      vertex -1.0000000000 -0.1900350000 -0.0808493500
    endloop
  endfacet
  facet normal -1.0000000000 0.0000000000 0.0000000000
    outer loop
      vertex -1.0000000000 -0.1900350000 -0.0808493500
      vertex -1.0000000000 -0.1900350000 0.0808493500
      vertex -1.0000000000 -0.1650350000 -0.1241510000
    endloop
  endfacet
  facet normal -1.0000000000 0.0000000000 0.0000000000
    outer loop
      vertex -1.0000000000 -0.4852580000 0.3464100000
      vertex -1.0000000000 0.4852580000 0.3464100000
      vertex -1.0000000000 -0.1650350000 0.1241510000
    endloop
  endfacet
  facet normal -1.0000000000 0.0000000000 0.0000000000
    outer loop
      vertex -1.0000000000 0.4852580000 0.3464100000
      vertex -1.0000000000 0.1650350000 0.1241510000
      vertex -1.0000000000 -0.1650350000 0.1241510000
    endloop
  endfacet
  facet normal -1.0000000000 0.0000000000 0.0000000000
    outer loop
      vertex -1.0000000000 -0.1650350000 0.1241510000
      vertex -1.0000000000 0.1650350000 0.1241510000
      vertex -1.0000000000 -0.1900350000 0.0808493500
    endloop
  endfacet
  facet normal -1.0000000000 0.0000000000 0.0000000000
    outer loop
      vertex -1.0000000000 0.1650350000 0.1241510000
      vertex -1.0000000000 0.1900350000 -0.0808493500
      vertex -1.0000000000 -0.1900350000 0.0808493500
    endloop
  endfacet
  facet normal -1.0000000000 0.0000000000 0.0000000000
    outer loop
      vertex -1.0000000000 -0.1900350000 0.0808493500
      vertex -1.0000000000 0.1900350000 -0.0808493500
      vertex -1.0000000000 -0.1650350000 -0.1241510000
    endloop
  endfacet
  facet normal -1.0000000000 0.0000000000 0.0000000000
    outer loop
      vertex -1.0000000000 0.1900350000 -0.0808493500
      vertex -1.0000000000 0.1650350000 -0.1241510000
      vertex -1.0000000000 -0.1650350000 -0.1241510000
    endloop
  endfacet
  facet normal -1.0000000000 0.0000000000 0.0000000000
    outer loop
      vertex -1.0000000000 -0.1650350000 -0.1241510000
      vertex -1.0000000000 0.1650350000 -0.1241510000
      vertex -1.0000000000 -0.4852580000 -0.3464100000
    endloop
  endfacet
  facet normal -1.0000000000 0.0000000000 0.0000000000
    outer loop
      vertex -1.0000000000 0.1650350000 -0.1241510000
      vertex -1.0000000000 0.4852580000 -0.3464100000
      vertex -1.0000000000 -0.4852580000 -0.3464100000
    endloop
  endfacet
  facet normal 0.0000000000 0.8660270528 -0.4999971438
    outer loop
      vertex -0.4650000000 0.1650350000 -0.1241510000
      vertex -1.0000000000 0.1650350000 -0.1241510000
      vertex -0.4650000000 0.1900350000 -0.0808494000
    endloop
  endfacet
  facet normal -0.0000000467 0.8660273028 -0.4999967108
    outer loop
      vertex -1.0000000000 0.1650350000 -0.1241510000
      vertex -1.0000000000 0.1900350000 -0.0808493500
      vertex -0.4650000000 0.1900350000 -0.0808494000
    endloop
  endfacet
  facet normal 0.0000000000 -0.5701914169 -0.8215118673
    outer loop
      vertex 0.4650000000 -0.1650350000 0.1241510000
      vertex 1.0000000000 -0.1650350000 0.1241510000
      vertex 0.4650000000 -0.4852580000 0.3464100000
    endloop
  endfacet
  facet normal 0.0000000000 -0.5701914169 -0.8215118673
    outer loop
      vertex 1.0000000000 -0.1650350000 0.1241510000
      vertex 1.0000000000 -0.4852580000 0.3464100000
      vertex 0.4650000000 -0.4852580000 0.3464100000
    endloop
  endfacet
  facet normal 0.0000000000 1.0000000000 -0.0000000000
    outer loop
      vertex 0.4650000000 0.6000000000 0.2740820000
      vertex 1.0000000000 0.6000000000 0.2740820000
      vertex 1.0000000000 0.6000000000 -0.2740820000
    endloop
  endfacet
  facet normal 0.0000000000 1.0000000000 0.0000000000
    outer loop
      vertex -0.4650000000 0.6000000000 -0.2740820000
      vertex -1.0000000000 0.6000000000 -0.2740820000
      vertex -1.0000000000 0.6000000000 0.2740820000
    endloop
  endfacet
  facet normal -0.0000000000 1.0000000000 0.0000000000
    outer loop
      vertex -0.1950000000 0.6000000000 0.2740820000
      vertex 0.4450000000 0.6000000000 -0.2740820000
      vertex -0.4450000000 0.6000000000 0.2740820000
    endloop
  endfacet
  facet normal 0.0000000000 1.0000000000 0.0000000000
    outer loop
      vertex 0.4450000000 0.6000000000 -0.2740820000
      vertex 0.1950000000 0.6000000000 -0.2740820000
      vertex -0.4450000000 0.6000000000 0.2740820000
    endloop
  endfacet
  facet normal -0.0000000000 1.0000000000 0.0000000000
    outer loop
      vertex 0.1750000000 0.6000000000 0.2740820000
      vertex 1.0000000000 0.6000000000 -0.2740820000
      vertex -0.1750000000 0.6000000000 0.2740820000
    endloop
  endfacet
  facet normal 0.0000000000 1.0000000000 0.0000000000
    outer loop
      vertex 1.0000000000 0.6000000000 -0.2740820000
      vertex 0.4650000000 0.6000000000 -0.2740820000
      vertex -0.1750000000 0.6000000000 0.2740820000
    endloop
  endfacet
  facet normal 0.0000000000 1.0000000000 0.0000000000
    outer loop
      vertex 0.4450000000 0.6000000000 0.2740820000
      vertex 0.4450000000 0.6000000000 0.3464100000
      vertex 0.4650000000 0.6000000000 0.3464100000
    endloop
  endfacet
  facet normal 0.0000000000 1.0000000000 0.0000000000
    outer loop
      vertex -0.1750000000 0.6000000000 -0.2740820000
      vertex -1.0000000000 0.6000000000 0.2740820000
      vertex 0.1750000000 0.6000000000 -0.2740820000
    endloop
  endfacet
  facet normal 0.0000000000 1.0000000000 0.0000000000
    outer loop
      vertex -1.0000000000 0.6000000000 0.2740820000
      vertex -0.4650000000 0.6000000000 0.2740820000
      vertex 0.1750000000 0.6000000000 -0.2740820000
    endloop
  endfacet
  facet normal 0.0000000000 1.0000000000 0.0000000000
    outer loop
      vertex -0.4450000000 0.6000000000 -0.2740820000
      vertex -0.4450000000 0.6000000000 -0.3464100000
      vertex -0.4650000000 0.6000000000 -0.3464100000
    endloop
  endfacet
  facet normal 0.0000000000 1.0000000000 0.0000000000
    outer loop
      vertex 0.4650000000 0.6000000000 0.3464100000
      vertex 0.4650000000 0.6000000000 0.2740820000
      vertex 0.4450000000 0.6000000000 0.2740820000
    endloop
  endfacet
  facet normal -0.0000000000 1.0000000000 0.0000000000
    outer loop
      vertex 0.4650000000 0.6000000000 0.2740820000
      vertex 1.0000000000 0.6000000000 -0.2740820000
      vertex 0.4450000000 0.6000000000 0.2740820000
    endloop
  endfacet
  facet normal -0.0000000000 1.0000000000 0.0000000000
    outer loop
      vertex 0.4450000000 0.6000000000 0.2740820000
      vertex 1.0000000000 0.6000000000 -0.2740820000
      vertex 0.1950000000 0.6000000000 0.2740820000
    endloop
  endfacet
  facet normal 0.0000000000 1.0000000000 0.0000000000
    outer loop
      vertex 1.0000000000 0.6000000000 -0.2740820000
      vertex 0.1750000000 0.6000000000 0.2740820000
      vertex 0.1950000000 0.6000000000 0.2740820000
    endloop
  endfacet
  facet normal 0.0000000000 1.0000000000 0.0000000000
    outer loop
      vertex 0.1950000000 0.6000000000 0.2740820000
      vertex 0.1750000000 0.6000000000 0.2740820000
      vertex 0.1950000000 0.6000000000 0.3464100000
    endloop
  endfacet
  facet normal 0.0000000000 1.0000000000 0.0000000000
    outer loop
      vertex 0.1750000000 0.6000000000 0.2740820000
      vertex 0.1750000000 0.6000000000 0.3464100000
      vertex 0.1950000000 0.6000000000 0.3464100000
    endloop
  endfacet
  facet normal 0.0000000000 1.0000000000 0.0000000000
    outer loop
      vertex -0.4650000000 0.6000000000 -0.3464100000
      vertex -0.4650000000 0.6000000000 -0.2740820000
      vertex -0.4450000000 0.6000000000 -0.2740820000
    endloop
  endfacet
  facet normal 0.0000000000 1.0000000000 0.0000000000
    outer loop
      vertex -0.4650000000 0.6000000000 -0.2740820000
      vertex -1.0000000000 0.6000000000 0.2740820000
      vertex -0.4450000000 0.6000000000 -0.2740820000
    endloop
  endfacet
  facet normal 0.0000000000 1.0000000000 0.0000000000
    outer loop
      vertex -0.4450000000 0.6000000000 -0.2740820000
      vertex -1.0000000000 0.6000000000 0.2740820000
      vertex -0.1950000000 0.6000000000 -0.2740820000
    endloop
  endfacet
  facet normal 0.0000000000 1.0000000000 -0.0000000000
    outer loop
      vertex -1.0000000000 0.6000000000 0.2740820000
      vertex -0.1750000000 0.6000000000 -0.2740820000
      vertex -0.1950000000 0.6000000000 -0.2740820000
    endloop
  endfacet
  facet normal 0.0000000000 1.0000000000 0.0000000000
    outer loop
      vertex -0.1950000000 0.6000000000 -0.2740820000
      vertex -0.1750000000 0.6000000000 -0.2740820000
      vertex -0.1950000000 0.6000000000 -0.3464100000
    endloop
  endfacet
  facet normal 0.0000000000 1.0000000000 0.0000000000
    outer loop
      vertex -0.1750000000 0.6000000000 -0.2740820000
      vertex -0.1750000000 0.6000000000 -0.3464100000
      vertex -0.1950000000 0.6000000000 -0.3464100000
    endloop
  endfacet
  facet normal 0.0000000000 1.0000000000 0.0000000000
    outer loop
      vertex 0.4650000000 0.6000000000 -0.3464100000
      vertex 0.4450000000 0.6000000000 -0.3464100000
      vertex 0.4650000000 0.6000000000 -0.2740820000
    endloop
  endfacet
  facet normal 0.0000000000 1.0000000000 0.0000000000
    outer loop
      vertex 0.4450000000 0.6000000000 -0.3464100000
      vertex 0.4450000000 0.6000000000 -0.2740820000
      vertex 0.4650000000 0.6000000000 -0.2740820000
    endloop
  endfacet
  facet normal 0.0000000000 1.0000000000 0.0000000000
    outer loop
      vertex 0.4650000000 0.6000000000 -0.2740820000
      vertex 0.4450000000 0.6000000000 -0.2740820000
      vertex -0.1750000000 0.6000000000 0.2740820000
    endloop
  endfacet
  facet normal 0.0000000000 1.0000000000 0.0000000000
    outer loop
      vertex 0.4450000000 0.6000000000 -0.2740820000
      vertex -0.1950000000 0.6000000000 0.2740820000
      vertex -0.1750000000 0.6000000000 0.2740820000
    endloop
  endfacet
  facet normal 0.0000000000 1.0000000000 0.0000000000
    outer loop
      vertex -0.1750000000 0.6000000000 0.2740820000
      vertex -0.1950000000 0.6000000000 0.2740820000
      vertex -0.1750000000 0.6000000000 0.3464100000
    endloop
  endfacet
  facet normal 0.0000000000 1.0000000000 0.0000000000
    outer loop
      vertex -0.1950000000 0.6000000000 0.2740820000
      vertex -0.1950000000 0.6000000000 0.3464100000
      vertex -0.1750000000 0.6000000000 0.3464100000
    endloop
  endfacet
  facet normal 0.0000000000 1.0000000000 0.0000000000
    outer loop
      vertex -0.4650000000 0.6000000000 0.3464100000
      vertex -0.4450000000 0.6000000000 0.3464100000
      vertex -0.4650000000 0.6000000000 0.2740820000
    endloop
  endfacet
  facet normal 0.0000000000 1.0000000000 0.0000000000
    outer loop
      vertex -0.4450000000 0.6000000000 0.3464100000
      vertex -0.4450000000 0.6000000000 0.2740820000
      vertex -0.4650000000 0.6000000000 0.2740820000
    endloop
  endfacet
  facet normal 0.0000000000 1.0000000000 0.0000000000
    outer loop
      vertex -0.4650000000 0.6000000000 0.2740820000
      vertex -0.4450000000 0.6000000000 0.2740820000
      vertex 0.1750000000 0.6000000000 -0.2740820000
    endloop
  endfacet
  facet normal 0.0000000000 1.0000000000 -0.0000000000
    outer loop
      vertex -0.4450000000 0.6000000000 0.2740820000
      vertex 0.1950000000 0.6000000000 -0.2740820000
      vertex 0.1750000000 0.6000000000 -0.2740820000
    endloop
  endfacet
  facet normal 0.0000000000 1.0000000000 0.0000000000
    outer loop
      vertex 0.1750000000 0.6000000000 -0.2740820000
      vertex 0.1950000000 0.6000000000 -0.2740820000
      vertex 0.1750000000 0.6000000000 -0.3464100000
    endloop
  endfacet
  facet normal 0.0000000000 1.0000000000 0.0000000000
    outer loop
      vertex 0.1950000000 0.6000000000 -0.2740820000
      vertex 0.1950000000 0.6000000000 -0.3464100000
      vertex 0.1750000000 0.6000000000 -0.3464100000
    endloop
  endfacet
  facet normal -0.0000000467 0.8660270528 0.4999971438
    outer loop
      vertex -0.4650000000 0.1900350000 0.0808494000
      vertex -1.0000000000 0.1900350000 0.0808493500
      vertex -0.4650000000 0.1650350000 0.1241510000
    endloop
  endfacet
  facet normal 0.0000000000 0.8660273028 0.4999967108
    outer loop
      vertex -1.0000000000 0.1900350000 0.0808493500
      vertex -1.0000000000 0.1650350000 0.1241510000
      vertex -0.4650000000 0.1650350000 0.1241510000
    endloop
  endfacet
  facet normal 1.0000000000 0.0000000000 0.0000000000
    outer loop
      vertex 0.4650000000 -0.1650350000 -0.1241510000
      vertex 0.4650000000 -0.1900350000 -0.0808494000
      vertex 0.4650000000 -0.4852580000 -0.3464100000
    endloop
  endfacet
  facet normal 1.0000000000 0.0000000000 -0.0000000000
    outer loop
      vertex 0.4650000000 -0.1900350000 -0.0808494000
      vertex 0.4650000000 -0.6000000000 -0.2740820000
      vertex 0.4650000000 -0.4852580000 -0.3464100000
    endloop
  endfacet
  facet normal 1.0000000000 0.0000000000 0.0000000000
    outer loop
      vertex 0.4650000000 -0.4852580000 -0.3464100000
      vertex 0.4650000000 -0.6000000000 -0.2740820000
      vertex 0.4650000000 -0.6000000000 -0.3464100000
    endloop
  endfacet
  facet normal 0.0000000000 0.0000000000 -1.0000000000
    outer loop
      vertex -0.4450000000 -0.4852580000 -0.3464100000
      vertex -0.4450000000 -0.6000000000 -0.3464100000
      vertex -0.4650000000 -0.6000000000 -0.3464100000
    endloop
  endfacet
  facet normal -0.0000000000 0.0000000000 -1.0000000000
    outer loop
      vertex -0.1950000000 0.4852580000 -0.3464100000
      vertex -0.1950000000 0.6000000000 -0.3464100000
      vertex -0.1750000000 0.6000000000 -0.3464100000
    endloop
  endfacet
  facet normal 0.0000000000 0.0000000000 -1.0000000000
    outer loop
      vertex -0.1750000000 -0.4852580000 -0.3464100000
      vertex -0.1750000000 -0.6000000000 -0.3464100000
      vertex -0.1950000000 -0.6000000000 -0.3464100000
    endloop
  endfacet
  facet normal -0.0000000000 0.0000000000 -1.0000000000
    outer loop
      vertex 0.4450000000 0.4852580000 -0.3464100000
      vertex 0.4450000000 0.6000000000 -0.3464100000
      vertex 0.4650000000 0.6000000000 -0.3464100000
    endloop
  endfacet
  facet normal 0.0000000000 0.0000000000 -1.0000000000
    outer loop
      vertex 1.0000000000 0.4852580000 -0.3464100000
      vertex 1.0000000000 -0.4852580000 -0.3464100000
      vertex 0.4650000000 -0.4852580000 -0.3464100000
    endloop
  endfacet
  facet normal 0.0000000000 -0.0000000000 -1.0000000000
    outer loop
      vertex 1.0000000000 0.4852580000 -0.3464100000
      vertex -0.1950000000 -0.4852580000 -0.3464100000
      vertex 0.4650000000 0.4852580000 -0.3464100000
    endloop
  endfacet
  facet normal 0.0000000000 0.0000000000 -1.0000000000
    outer loop
      vertex -0.1950000000 -0.4852580000 -0.3464100000
      vertex -0.4450000000 -0.4852580000 -0.3464100000
      vertex 0.4650000000 0.4852580000 -0.3464100000
    endloop
  endfacet
  facet normal 0.0000000000 0.0000000000 -1.0000000000
    outer loop
      vertex 0.4650000000 0.4852580000 -0.3464100000
      vertex -0.4450000000 -0.4852580000 -0.3464100000
      vertex -0.4650000000 -0.4852580000 -0.3464100000
    endloop
  endfacet
  facet normal 0.0000000000 0.0000000000 -1.0000000000
    outer loop
      vertex -0.4450000000 -0.4852580000 -0.3464100000
      vertex -0.4650000000 -0.6000000000 -0.3464100000
      vertex -0.4650000000 -0.4852580000 -0.3464100000
    endloop
  endfacet
  facet normal -0.0000000000 0.0000000000 -1.0000000000
    outer loop
      vertex -1.0000000000 -0.4852580000 -0.3464100000
      vertex -1.0000000000 0.4852580000 -0.3464100000
      vertex -0.4650000000 0.4852580000 -0.3464100000
    endloop
  endfacet
  facet normal 0.0000000000 0.0000000000 -1.0000000000
    outer loop
      vertex 0.1750000000 0.6000000000 -0.3464100000
      vertex 0.1950000000 0.6000000000 -0.3464100000
      vertex 0.1750000000 0.4852580000 -0.3464100000
    endloop
  endfacet
  facet normal 0.0000000000 0.0000000000 -1.0000000000
    outer loop
      vertex 0.1950000000 0.6000000000 -0.3464100000
      vertex 0.1950000000 0.4852580000 -0.3464100000
      vertex 0.1750000000 0.4852580000 -0.3464100000
    endloop
  endfacet
  facet normal 0.0000000000 -0.0000000000 -1.0000000000
    outer loop
      vertex 0.4650000000 -0.6000000000 -0.3464100000
      vertex 0.4450000000 -0.6000000000 -0.3464100000
      vertex 0.4650000000 -0.4852580000 -0.3464100000
    endloop
  endfacet
  facet normal -0.0000000000 0.0000000000 -1.0000000000
    outer loop
      vertex 0.4450000000 -0.6000000000 -0.3464100000
      vertex 0.4450000000 -0.4852580000 -0.3464100000
      vertex 0.4650000000 -0.4852580000 -0.3464100000
    endloop
  endfacet
  facet normal 0.0000000000 0.0000000000 -1.0000000000
    outer loop
      vertex 0.4650000000 -0.4852580000 -0.3464100000
      vertex 0.4450000000 -0.4852580000 -0.3464100000
      vertex 1.0000000000 0.4852580000 -0.3464100000
    endloop
  endfacet
  facet normal 0.0000000000 0.0000000000 -1.0000000000
    outer loop
      vertex 0.4450000000 -0.4852580000 -0.3464100000
      vertex 0.1950000000 -0.4852580000 -0.3464100000
      vertex 1.0000000000 0.4852580000 -0.3464100000
    endloop
  endfacet
  facet normal 0.0000000000 -0.0000000000 -1.0000000000
    outer loop
      vertex 0.1950000000 -0.6000000000 -0.3464100000
      vertex 0.1750000000 -0.6000000000 -0.3464100000
      vertex 0.1950000000 -0.4852580000 -0.3464100000
    endloop
  endfacet
  facet normal -0.0000000000 0.0000000000 -1.0000000000
    outer loop
      vertex 0.1750000000 -0.6000000000 -0.3464100000
      vertex 0.1750000000 -0.4852580000 -0.3464100000
      vertex 0.1950000000 -0.4852580000 -0.3464100000
    endloop
  endfacet
  facet normal 0.0000000000 0.0000000000 -1.0000000000
    outer loop
      vertex 0.1950000000 -0.4852580000 -0.3464100000
      vertex 0.1750000000 -0.4852580000 -0.3464100000
      vertex 1.0000000000 0.4852580000 -0.3464100000
    endloop
  endfacet
  facet normal 0.0000000000 0.0000000000 -1.0000000000
    outer loop
      vertex 0.1750000000 -0.4852580000 -0.3464100000
      vertex -0.1750000000 -0.4852580000 -0.3464100000
      vertex 1.0000000000 0.4852580000 -0.3464100000
    endloop
  endfacet
  facet normal 0.0000000000 0.0000000000 -1.0000000000
    outer loop
      vertex 1.0000000000 0.4852580000 -0.3464100000
      vertex -0.1750000000 -0.4852580000 -0.3464100000
      vertex -0.1950000000 -0.4852580000 -0.3464100000
    endloop
  endfacet
  facet normal 0.0000000000 0.0000000000 -1.0000000000
    outer loop
      vertex -0.1750000000 -0.4852580000 -0.3464100000
      vertex -0.1950000000 -0.6000000000 -0.3464100000
      vertex -0.1950000000 -0.4852580000 -0.3464100000
    endloop
  endfacet
  facet normal 0.0000000000 0.0000000000 -1.0000000000
    outer loop
      vertex -0.1750000000 0.6000000000 -0.3464100000
      vertex -0.1750000000 0.4852580000 -0.3464100000
      vertex -0.1950000000 0.4852580000 -0.3464100000
    endloop
  endfacet
  facet normal 0.0000000000 -0.0000000000 -1.0000000000
    outer loop
      vertex -0.1750000000 0.4852580000 -0.3464100000
      vertex -1.0000000000 -0.4852580000 -0.3464100000
      vertex -0.1950000000 0.4852580000 -0.3464100000
    endloop
  endfacet
  facet normal 0.0000000000 -0.0000000000 -1.0000000000
    outer loop
      vertex -0.1950000000 0.4852580000 -0.3464100000
      vertex -1.0000000000 -0.4852580000 -0.3464100000
      vertex -0.4450000000 0.4852580000 -0.3464100000
    endloop
  endfacet
  facet normal -0.0000000000 0.0000000000 -1.0000000000
    outer loop
      vertex -1.0000000000 -0.4852580000 -0.3464100000
      vertex -0.4650000000 0.4852580000 -0.3464100000
      vertex -0.4450000000 0.4852580000 -0.3464100000
    endloop
  endfacet
  facet normal 0.0000000000 -0.0000000000 -1.0000000000
    outer loop
      vertex -0.4450000000 0.4852580000 -0.3464100000
      vertex -0.4650000000 0.4852580000 -0.3464100000
      vertex -0.4450000000 0.6000000000 -0.3464100000
    endloop
  endfacet
  facet normal -0.0000000000 0.0000000000 -1.0000000000
    outer loop
      vertex -0.4650000000 0.4852580000 -0.3464100000
      vertex -0.4650000000 0.6000000000 -0.3464100000
      vertex -0.4450000000 0.6000000000 -0.3464100000
    endloop
  endfacet
  facet normal 0.0000000000 0.0000000000 -1.0000000000
    outer loop
      vertex 0.4650000000 0.6000000000 -0.3464100000
      vertex 0.4650000000 0.4852580000 -0.3464100000
      vertex 0.4450000000 0.4852580000 -0.3464100000
    endloop
  endfacet
  facet normal 0.0000000000 -0.0000000000 -1.0000000000
    outer loop
      vertex 0.4650000000 0.4852580000 -0.3464100000
      vertex -0.4650000000 -0.4852580000 -0.3464100000
      vertex 0.4450000000 0.4852580000 -0.3464100000
    endloop
  endfacet
  facet normal 0.0000000000 -0.0000000000 -1.0000000000
    outer loop
      vertex 0.4450000000 0.4852580000 -0.3464100000
      vertex -0.4650000000 -0.4852580000 -0.3464100000
      vertex 0.1950000000 0.4852580000 -0.3464100000
    endloop
  endfacet
  facet normal 0.0000000000 0.0000000000 -1.0000000000
    outer loop
      vertex -0.4650000000 -0.4852580000 -0.3464100000
      vertex -1.0000000000 -0.4852580000 -0.3464100000
      vertex 0.1950000000 0.4852580000 -0.3464100000
    endloop
  endfacet
  facet normal 0.0000000000 -0.0000000000 -1.0000000000
    outer loop
      vertex 0.1950000000 0.4852580000 -0.3464100000
      vertex -1.0000000000 -0.4852580000 -0.3464100000
      vertex 0.1750000000 0.4852580000 -0.3464100000
    endloop
  endfacet
  facet normal -0.0000000000 0.0000000000 -1.0000000000
    outer loop
      vertex -1.0000000000 -0.4852580000 -0.3464100000
      vertex -0.1750000000 0.4852580000 -0.3464100000
      vertex 0.1750000000 0.4852580000 -0.3464100000
    endloop
  endfacet
  facet normal 0.0000000000 0.0000000000 1.0000000000
    outer loop
      vertex 1.0000000000 -0.4852580000 0.3464100000
      vertex 1.0000000000 0.4852580000 0.3464100000
      vertex 0.4650000000 -0.4852580000 0.3464100000
    endloop
  endfacet
  facet normal 0.0000000000 0.0000000000 1.0000000000
    outer loop
      vertex 1.0000000000 0.4852580000 0.3464100000
      vertex 0.4650000000 0.4852580000 0.3464100000
      vertex 0.4650000000 -0.4852580000 0.3464100000
    endloop
  endfacet
  facet normal 0.0000000000 0.0000000000 1.0000000000
    outer loop
      vertex -1.0000000000 0.4852580000 0.3464100000
      vertex -1.0000000000 -0.4852580000 0.3464100000
      vertex -0.4650000000 0.4852580000 0.3464100000
    endloop
  endfacet
  facet normal 0.0000000000 0.0000000000 1.0000000000
    outer loop
      vertex -1.0000000000 -0.4852580000 0.3464100000
      vertex -0.4650000000 -0.4852580000 0.3464100000
      vertex -0.4650000000 0.4852580000 0.3464100000
    endloop
  endfacet
  facet normal -0.0000000000 0.0000000000 1.0000000000
    outer loop
      vertex -0.4450000000 0.4852580000 0.3464100000
      vertex -0.4450000000 0.6000000000 0.3464100000
      vertex -0.4650000000 0.6000000000 0.3464100000
    endloop
  endfacet
  facet normal 0.0000000000 0.0000000000 1.0000000000
    outer loop
      vertex 0.1750000000 -0.4852580000 0.3464100000
      vertex 0.1750000000 -0.6000000000 0.3464100000
      vertex 0.1950000000 -0.6000000000 0.3464100000
    endloop
  endfacet
  facet normal 0.0000000000 -0.0000000000 1.0000000000
    outer loop
      vertex 0.4650000000 0.6000000000 0.3464100000
      vertex 0.4450000000 0.6000000000 0.3464100000
      vertex 0.4650000000 0.4852580000 0.3464100000
    endloop
  endfacet
  facet normal 0.0000000000 0.0000000000 1.0000000000
    outer loop
      vertex 0.4450000000 0.6000000000 0.3464100000
      vertex 0.4450000000 0.4852580000 0.3464100000
      vertex 0.4650000000 0.4852580000 0.3464100000
    endloop
  endfacet
  facet normal 0.0000000000 -0.0000000000 1.0000000000
    outer loop
      vertex 0.4650000000 0.4852580000 0.3464100000
      vertex 0.4450000000 0.4852580000 0.3464100000
      vertex 0.4650000000 -0.4852580000 0.3464100000
    endloop
  endfacet
  facet normal 0.0000000000 0.0000000000 1.0000000000
    outer loop
      vertex 0.4450000000 0.4852580000 0.3464100000
      vertex 0.1950000000 0.4852580000 0.3464100000
      vertex 0.4650000000 -0.4852580000 0.3464100000
    endloop
  endfacet
  facet normal 0.0000000000 0.0000000000 1.0000000000
    outer loop
      vertex -0.4650000000 -0.6000000000 0.3464100000
      vertex -0.4450000000 -0.6000000000 0.3464100000
      vertex -0.4650000000 -0.4852580000 0.3464100000
    endloop
  endfacet
  facet normal -0.0000000000 0.0000000000 1.0000000000
    outer loop
      vertex -0.4450000000 -0.6000000000 0.3464100000
      vertex -0.4450000000 -0.4852580000 0.3464100000
      vertex -0.4650000000 -0.4852580000 0.3464100000
    endloop
  endfacet
  facet normal 0.0000000000 0.0000000000 1.0000000000
    outer loop
      vertex -0.4650000000 -0.4852580000 0.3464100000
      vertex -0.4450000000 -0.4852580000 0.3464100000
      vertex -0.4650000000 0.4852580000 0.3464100000
    endloop
  endfacet
  facet normal 0.0000000000 0.0000000000 1.0000000000
    outer loop
      vertex -0.4450000000 -0.4852580000 0.3464100000
      vertex -0.1950000000 -0.4852580000 0.3464100000
      vertex -0.4650000000 0.4852580000 0.3464100000
    endloop
  endfacet
  facet normal 0.0000000000 0.0000000000 1.0000000000
    outer loop
      vertex -0.4650000000 0.4852580000 0.3464100000
      vertex 0.1950000000 -0.4852580000 0.3464100000
      vertex 0.4450000000 -0.4852580000 0.3464100000
    endloop
  endfacet
  facet normal 0.0000000000 0.0000000000 1.0000000000
    outer loop
      vertex 0.4450000000 -0.6000000000 0.3464100000
      vertex 0.4650000000 -0.6000000000 0.3464100000
      vertex 0.4450000000 -0.4852580000 0.3464100000
    endloop
  endfacet
  facet normal -0.0000000000 0.0000000000 1.0000000000
    outer loop
      vertex 0.4650000000 -0.6000000000 0.3464100000
      vertex 0.4650000000 -0.4852580000 0.3464100000
      vertex 0.4450000000 -0.4852580000 0.3464100000
    endloop
  endfacet
  facet normal 0.0000000000 0.0000000000 1.0000000000
    outer loop
      vertex 0.4450000000 -0.4852580000 0.3464100000
      vertex 0.4650000000 -0.4852580000 0.3464100000
      vertex -0.4650000000 0.4852580000 0.3464100000
    endloop
  endfacet
  facet normal 0.0000000000 -0.0000000000 1.0000000000
    outer loop
      vertex 0.1950000000 0.6000000000 0.3464100000
      vertex 0.1750000000 0.6000000000 0.3464100000
      vertex 0.1950000000 0.4852580000 0.3464100000
    endloop
  endfacet
  facet normal 0.0000000000 0.0000000000 1.0000000000
    outer loop
      vertex 0.1750000000 0.6000000000 0.3464100000
      vertex 0.1750000000 0.4852580000 0.3464100000
      vertex 0.1950000000 0.4852580000 0.3464100000
    endloop
  endfacet
  facet normal 0.0000000000 0.0000000000 1.0000000000
    outer loop
      vertex 0.1950000000 0.4852580000 0.3464100000
      vertex 0.1750000000 0.4852580000 0.3464100000
      vertex 0.4650000000 -0.4852580000 0.3464100000
    endloop
  endfacet
  facet normal 0.0000000000 0.0000000000 1.0000000000
    outer loop
      vertex 0.1750000000 0.4852580000 0.3464100000
      vertex -0.1750000000 0.4852580000 0.3464100000
      vertex 0.4650000000 -0.4852580000 0.3464100000
    endloop
  endfacet
  facet normal 0.0000000000 0.0000000000 1.0000000000
    outer loop
      vertex -0.1950000000 -0.6000000000 0.3464100000
      vertex -0.1750000000 -0.6000000000 0.3464100000
      vertex -0.1950000000 -0.4852580000 0.3464100000
    endloop
  endfacet
  facet normal -0.0000000000 0.0000000000 1.0000000000
    outer loop
      vertex -0.1750000000 -0.6000000000 0.3464100000
      vertex -0.1750000000 -0.4852580000 0.3464100000
      vertex -0.1950000000 -0.4852580000 0.3464100000
    endloop
  endfacet
  facet normal 0.0000000000 0.0000000000 1.0000000000
    outer loop
      vertex -0.1950000000 -0.4852580000 0.3464100000
      vertex -0.1750000000 -0.4852580000 0.3464100000
      vertex -0.4650000000 0.4852580000 0.3464100000
    endloop
  endfacet
  facet normal 0.0000000000 0.0000000000 1.0000000000
    outer loop
      vertex -0.1750000000 -0.4852580000 0.3464100000
      vertex 0.1750000000 -0.4852580000 0.3464100000
      vertex -0.4650000000 0.4852580000 0.3464100000
    endloop
  endfacet
  facet normal 0.0000000000 0.0000000000 1.0000000000
    outer loop
      vertex -0.4650000000 0.4852580000 0.3464100000
      vertex 0.1750000000 -0.4852580000 0.3464100000
      vertex 0.1950000000 -0.4852580000 0.3464100000
    endloop
  endfacet
  facet normal 0.0000000000 0.0000000000 1.0000000000
    outer loop
      vertex 0.1750000000 -0.4852580000 0.3464100000
      vertex 0.1950000000 -0.6000000000 0.3464100000
      vertex 0.1950000000 -0.4852580000 0.3464100000
    endloop
  endfacet
  facet normal 0.0000000000 -0.0000000000 1.0000000000
    outer loop
      vertex -0.1750000000 0.6000000000 0.3464100000
      vertex -0.1950000000 0.6000000000 0.3464100000
      vertex -0.1750000000 0.4852580000 0.3464100000
    endloop
  endfacet
  facet normal 0.0000000000 0.0000000000 1.0000000000
    outer loop
      vertex -0.1950000000 0.6000000000 0.3464100000
      vertex -0.1950000000 0.4852580000 0.3464100000
      vertex -0.1750000000 0.4852580000 0.3464100000
    endloop
  endfacet
  facet normal 0.0000000000 0.0000000000 1.0000000000
    outer loop
      vertex -0.1750000000 0.4852580000 0.3464100000
      vertex -0.1950000000 0.4852580000 0.3464100000
      vertex 0.4650000000 -0.4852580000 0.3464100000
    endloop
  endfacet
  facet normal 0.0000000000 0.0000000000 1.0000000000
    outer loop
      vertex -0.1950000000 0.4852580000 0.3464100000
      vertex -0.4450000000 0.4852580000 0.3464100000
      vertex 0.4650000000 -0.4852580000 0.3464100000
    endloop
  endfacet
  facet normal -0.0000000000 0.0000000000 1.0000000000
    outer loop
      vertex 0.4650000000 -0.4852580000 0.3464100000
      vertex -0.4450000000 0.4852580000 0.3464100000
      vertex -0.4650000000 0.4852580000 0.3464100000
    endloop
  endfacet
  facet normal 0.0000000000 0.0000000000 1.0000000000
    outer loop
      vertex -0.4450000000 0.4852580000 0.3464100000
      vertex -0.4650000000 0.6000000000 0.3464100000
      vertex -0.4650000000 0.4852580000 0.3464100000
    endloop
  endfacet
  facet normal -0.0000000845 0.4263531336 -0.9045568006
    outer loop
      vertex -0.4650000000 -0.1900350000 -0.0808494000
      vertex -0.4650000000 -0.6000000000 -0.2740820000
      vertex -1.0000000000 -0.1900350000 -0.0808493500
    endloop
  endfacet
  facet normal 0.0000000000 0.4263532239 -0.9045567580
    outer loop
      vertex -0.4650000000 -0.6000000000 -0.2740820000
      vertex -1.0000000000 -0.6000000000 -0.2740820000
      vertex -1.0000000000 -0.1900350000 -0.0808493500
    endloop
  endfacet
  facet normal 0.0000000000 -1.0000000000 0.0000000000
    outer loop
      vertex -0.4650000000 -0.6000000000 0.2740820000
      vertex -1.0000000000 -0.6000000000 0.2740820000
      vertex -1.0000000000 -0.6000000000 -0.2740820000
    endloop
  endfacet
  facet normal 0.0000000000 -1.0000000000 -0.0000000000
    outer loop
      vertex 0.4650000000 -0.6000000000 -0.2740820000
      vertex 1.0000000000 -0.6000000000 -0.2740820000
      vertex 1.0000000000 -0.6000000000 0.2740820000
    endloop
  endfacet
  facet normal -0.0000000000 -1.0000000000 0.0000000000
    outer loop
      vertex 0.1950000000 -0.6000000000 0.2740820000
      vertex -0.4450000000 -0.6000000000 -0.2740820000
      vertex 0.4450000000 -0.6000000000 0.2740820000
    endloop
  endfacet
  facet normal 0.0000000000 -1.0000000000 0.0000000000
    outer loop
      vertex -0.4450000000 -0.6000000000 -0.2740820000
      vertex -0.1950000000 -0.6000000000 -0.2740820000
      vertex 0.4450000000 -0.6000000000 0.2740820000
    endloop
  endfacet
  facet normal 0.0000000000 -1.0000000000 0.0000000000
    outer loop
      vertex -0.4450000000 -0.6000000000 0.2740820000
      vertex -0.4450000000 -0.6000000000 0.3464100000
      vertex -0.4650000000 -0.6000000000 0.3464100000
    endloop
  endfacet
  facet normal -0.0000000000 -1.0000000000 0.0000000000
    outer loop
      vertex -0.1750000000 -0.6000000000 0.2740820000
      vertex -1.0000000000 -0.6000000000 -0.2740820000
      vertex 0.1750000000 -0.6000000000 0.2740820000
    endloop
  endfacet
  facet normal 0.0000000000 -1.0000000000 0.0000000000
    outer loop
      vertex -1.0000000000 -0.6000000000 -0.2740820000
      vertex -0.4650000000 -0.6000000000 -0.2740820000
      vertex 0.1750000000 -0.6000000000 0.2740820000
    endloop
  endfacet
  facet normal 0.0000000000 -1.0000000000 0.0000000000
    outer loop
      vertex 0.1750000000 -0.6000000000 -0.2740820000
      vertex 1.0000000000 -0.6000000000 0.2740820000
      vertex -0.1750000000 -0.6000000000 -0.2740820000
    endloop
  endfacet
  facet normal 0.0000000000 -1.0000000000 0.0000000000
    outer loop
      vertex 1.0000000000 -0.6000000000 0.2740820000
      vertex 0.4650000000 -0.6000000000 0.2740820000
      vertex -0.1750000000 -0.6000000000 -0.2740820000
    endloop
  endfacet
  facet normal 0.0000000000 -1.0000000000 0.0000000000
    outer loop
      vertex 0.4450000000 -0.6000000000 -0.2740820000
      vertex 0.4450000000 -0.6000000000 -0.3464100000
      vertex 0.4650000000 -0.6000000000 -0.3464100000
    endloop
  endfacet
  facet normal 0.0000000000 -1.0000000000 0.0000000000
    outer loop
      vertex -0.4650000000 -0.6000000000 -0.3464100000
      vertex -0.4450000000 -0.6000000000 -0.3464100000
      vertex -0.4650000000 -0.6000000000 -0.2740820000
    endloop
  endfacet
  facet normal 0.0000000000 -1.0000000000 0.0000000000
    outer loop
      vertex -0.4450000000 -0.6000000000 -0.3464100000
      vertex -0.4450000000 -0.6000000000 -0.2740820000
      vertex -0.4650000000 -0.6000000000 -0.2740820000
    endloop
  endfacet
  facet normal 0.0000000000 -1.0000000000 0.0000000000
    outer loop
      vertex -0.4650000000 -0.6000000000 -0.2740820000
      vertex -0.4450000000 -0.6000000000 -0.2740820000
      vertex 0.1750000000 -0.6000000000 0.2740820000
    endloop
  endfacet
  facet normal 0.0000000000 -1.0000000000 -0.0000000000
    outer loop
      vertex -0.4450000000 -0.6000000000 -0.2740820000
      vertex 0.1950000000 -0.6000000000 0.2740820000
      vertex 0.1750000000 -0.6000000000 0.2740820000
    endloop
  endfacet
  facet normal 0.0000000000 -1.0000000000 0.0000000000
    outer loop
      vertex 0.1750000000 -0.6000000000 0.2740820000
      vertex 0.1950000000 -0.6000000000 0.2740820000
      vertex 0.1750000000 -0.6000000000 0.3464100000
    endloop
  endfacet
  facet normal 0.0000000000 -1.0000000000 0.0000000000
    outer loop
      vertex 0.1950000000 -0.6000000000 0.2740820000
      vertex 0.1950000000 -0.6000000000 0.3464100000
      vertex 0.1750000000 -0.6000000000 0.3464100000
    endloop
  endfacet
  facet normal 0.0000000000 -1.0000000000 0.0000000000
    outer loop
      vertex -0.4650000000 -0.6000000000 0.3464100000
      vertex -0.4650000000 -0.6000000000 0.2740820000
      vertex -0.4450000000 -0.6000000000 0.2740820000
    endloop
  endfacet
  facet normal -0.0000000000 -1.0000000000 0.0000000000
    outer loop
      vertex -0.4650000000 -0.6000000000 0.2740820000
      vertex -1.0000000000 -0.6000000000 -0.2740820000
      vertex -0.4450000000 -0.6000000000 0.2740820000
    endloop
  endfacet
  facet normal -0.0000000000 -1.0000000000 0.0000000000
    outer loop
      vertex -0.4450000000 -0.6000000000 0.2740820000
      vertex -1.0000000000 -0.6000000000 -0.2740820000
      vertex -0.1950000000 -0.6000000000 0.2740820000
    endloop
  endfacet
  facet normal 0.0000000000 -1.0000000000 -0.0000000000
    outer loop
      vertex -1.0000000000 -0.6000000000 -0.2740820000
      vertex -0.1750000000 -0.6000000000 0.2740820000
      vertex -0.1950000000 -0.6000000000 0.2740820000
    endloop
  endfacet
  facet normal 0.0000000000 -1.0000000000 0.0000000000
    outer loop
      vertex -0.1950000000 -0.6000000000 0.2740820000
      vertex -0.1750000000 -0.6000000000 0.2740820000
      vertex -0.1950000000 -0.6000000000 0.3464100000
    endloop
  endfacet
  facet normal 0.0000000000 -1.0000000000 0.0000000000
    outer loop
      vertex -0.1750000000 -0.6000000000 0.2740820000
      vertex -0.1750000000 -0.6000000000 0.3464100000
      vertex -0.1950000000 -0.6000000000 0.3464100000
    endloop
  endfacet
  facet normal 0.0000000000 -1.0000000000 0.0000000000
    outer loop
      vertex -0.1950000000 -0.6000000000 -0.3464100000
      vertex -0.1750000000 -0.6000000000 -0.3464100000
      vertex -0.1950000000 -0.6000000000 -0.2740820000
    endloop
  endfacet
  facet normal 0.0000000000 -1.0000000000 0.0000000000
    outer loop
      vertex -0.1750000000 -0.6000000000 -0.3464100000
      vertex -0.1750000000 -0.6000000000 -0.2740820000
      vertex -0.1950000000 -0.6000000000 -0.2740820000
    endloop
  endfacet
  facet normal 0.0000000000 -1.0000000000 0.0000000000
    outer loop
      vertex -0.1950000000 -0.6000000000 -0.2740820000
      vertex -0.1750000000 -0.6000000000 -0.2740820000
      vertex 0.4450000000 -0.6000000000 0.2740820000
    endloop
  endfacet
  facet normal 0.0000000000 -1.0000000000 -0.0000000000
    outer loop
      vertex -0.1750000000 -0.6000000000 -0.2740820000
      vertex 0.4650000000 -0.6000000000 0.2740820000
      vertex 0.4450000000 -0.6000000000 0.2740820000
    endloop
  endfacet
  facet normal 0.0000000000 -1.0000000000 0.0000000000
    outer loop
      vertex 0.4450000000 -0.6000000000 0.2740820000
      vertex 0.4650000000 -0.6000000000 0.2740820000
      vertex 0.4450000000 -0.6000000000 0.3464100000
    endloop
  endfacet
  facet normal 0.0000000000 -1.0000000000 0.0000000000
    outer loop
      vertex 0.4650000000 -0.6000000000 0.2740820000
      vertex 0.4650000000 -0.6000000000 0.3464100000
      vertex 0.4450000000 -0.6000000000 0.3464100000
    endloop
  endfacet
  facet normal 0.0000000000 -1.0000000000 0.0000000000
    outer loop
      vertex 0.4650000000 -0.6000000000 -0.3464100000
      vertex 0.4650000000 -0.6000000000 -0.2740820000
      vertex 0.4450000000 -0.6000000000 -0.2740820000
    endloop
  endfacet
  facet normal 0.0000000000 -1.0000000000 0.0000000000
    outer loop
      vertex 0.4650000000 -0.6000000000 -0.2740820000
      vertex 1.0000000000 -0.6000000000 0.2740820000
      vertex 0.4450000000 -0.6000000000 -0.2740820000
    endloop
  endfacet
  facet normal 0.0000000000 -1.0000000000 0.0000000000
    outer loop
      vertex 0.4450000000 -0.6000000000 -0.2740820000
      vertex 1.0000000000 -0.6000000000 0.2740820000
      vertex 0.1950000000 -0.6000000000 -0.2740820000
    endloop
  endfacet
  facet normal 0.0000000000 -1.0000000000 0.0000000000
    outer loop
      vertex 1.0000000000 -0.6000000000 0.2740820000
      vertex 0.1750000000 -0.6000000000 -0.2740820000
      vertex 0.1950000000 -0.6000000000 -0.2740820000
    endloop
  endfacet
  facet normal 0.0000000000 -1.0000000000 0.0000000000
    outer loop
      vertex 0.1950000000 -0.6000000000 -0.2740820000
      vertex 0.1750000000 -0.6000000000 -0.2740820000
      vertex 0.1950000000 -0.6000000000 -0.3464100000
    endloop
  endfacet
  facet normal 0.0000000000 -1.0000000000 0.0000000000
    outer loop
      vertex 0.1750000000 -0.6000000000 -0.2740820000
      vertex 0.1750000000 -0.6000000000 -0.3464100000
      vertex 0.1950000000 -0.6000000000 -0.3464100000
    endloop
  endfacet
  facet normal -0.0000000845 0.4263532239 0.9045567580
    outer loop
      vertex -1.0000000000 -0.1900350000 0.0808493500
      vertex -1.0000000000 -0.6000000000 0.2740820000
      vertex -0.4650000000 -0.1900350000 0.0808494000
    endloop
  endfacet
  facet normal 0.0000000000 0.4263531336 0.9045568006
    outer loop
      vertex -1.0000000000 -0.6000000000 0.2740820000
      vertex -0.4650000000 -0.6000000000 0.2740820000
      vertex -0.4650000000 -0.1900350000 0.0808494000
    endloop
  endfacet
  facet normal 0.0000000000 -0.5701914169 -0.8215118673
    outer loop
      vertex -1.0000000000 -0.1650350000 0.1241510000
      vertex -0.4650000000 -0.1650350000 0.1241510000
      vertex -1.0000000000 -0.4852580000 0.3464100000
    endloop
  endfacet
  facet normal 0.0000000000 -0.5701914169 -0.8215118673
    outer loop
      vertex -0.4650000000 -0.1650350000 0.1241510000
      vertex -0.4650000000 -0.4852580000 0.3464100000
      vertex -1.0000000000 -0.4852580000 0.3464100000
    endloop
  endfacet
  facet normal -0.0000000000 0.5701914169 0.8215118673
    outer loop
      vertex -0.4650000000 0.1650350000 -0.1241510000
      vertex -0.4650000000 0.4852580000 -0.3464100000
      vertex -1.0000000000 0.1650350000 -0.1241510000
    endloop
  endfacet
  facet normal 0.0000000000 0.5701914169 0.8215118673
    outer loop
      vertex -0.4650000000 0.4852580000 -0.3464100000
      vertex -1.0000000000 0.4852580000 -0.3464100000
      vertex -1.0000000000 0.1650350000 -0.1241510000
    endloop
  endfacet
  facet normal -1.0000000000 0.0000000000 0.0000000000
    outer loop
      vertex -0.4650000000 -0.1650350000 0.1241510000
      vertex -0.4650000000 -0.1900350000 0.0808494000
      vertex -0.4650000000 -0.4852580000 0.3464100000
    endloop
  endfacet
  facet normal -1.0000000000 0.0000000000 -0.0000000000
    outer loop
      vertex -0.4650000000 -0.1900350000 0.0808494000
      vertex -0.4650000000 -0.6000000000 0.2740820000
      vertex -0.4650000000 -0.4852580000 0.3464100000
    endloop
  endfacet
  facet normal -1.0000000000 0.0000000000 0.0000000000
    outer loop
      vertex -0.4650000000 -0.4852580000 0.3464100000
      vertex -0.4650000000 -0.6000000000 0.2740820000
      vertex -0.4650000000 -0.6000000000 0.3464100000
    endloop
  endfacet
  facet normal -0.0000000845 -0.4263531336 -0.9045568006
    outer loop
      vertex -0.4650000000 0.1900350000 -0.0808494000
      vertex -1.0000000000 0.1900350000 -0.0808493500
      vertex -0.4650000000 0.6000000000 -0.2740820000
    endloop
  endfacet
  facet normal -0.0000000000 -0.4263532239 -0.9045567580
    outer loop
      vertex -1.0000000000 0.1900350000 -0.0808493500
      vertex -1.0000000000 0.6000000000 -0.2740820000
      vertex -0.4650000000 0.6000000000 -0.2740820000
    endloop
  endfacet
  facet normal 0.0000000000 -0.8660270528 0.4999971438
    outer loop
      vertex -0.4650000000 -0.1650350000 0.1241510000
      vertex -1.0000000000 -0.1650350000 0.1241510000
      vertex -0.4650000000 -0.1900350000 0.0808494000
    endloop
  endfacet
  facet normal -0.0000000467 -0.8660273028 0.4999967108
    outer loop
      vertex -1.0000000000 -0.1650350000 0.1241510000
      vertex -1.0000000000 -0.1900350000 0.0808493500
      vertex -0.4650000000 -0.1900350000 0.0808494000
    endloop
  endfacet
  facet normal -1.0000000000 0.0000000000 0.0000000000
    outer loop
      vertex -0.4650000000 0.1650350000 -0.1241510000
      vertex -0.4650000000 0.1900350000 -0.0808494000
      vertex -0.4650000000 0.4852580000 -0.3464100000
    endloop
  endfacet
  facet normal -1.0000000000 0.0000000000 0.0000000000
    outer loop
      vertex -0.4650000000 0.1900350000 -0.0808494000
      vertex -0.4650000000 0.6000000000 -0.2740820000
      vertex -0.4650000000 0.4852580000 -0.3464100000
    endloop
  endfacet
  facet normal -1.0000000000 0.0000000000 0.0000000000
    outer loop
      vertex -0.4650000000 0.4852580000 -0.3464100000
      vertex -0.4650000000 0.6000000000 -0.2740820000
      vertex -0.4650000000 0.6000000000 -0.3464100000
    endloop
  endfacet
  facet normal 0.0000000000 -0.5701914169 0.8215118673
    outer loop
      vertex -1.0000000000 -0.1650350000 -0.1241510000
      vertex -1.0000000000 -0.4852580000 -0.3464100000
      vertex -0.4650000000 -0.1650350000 -0.1241510000
    endloop
  endfacet
  facet normal 0.0000000000 -0.5701914169 0.8215118673
    outer loop
      vertex -1.0000000000 -0.4852580000 -0.3464100000
      vertex -0.4650000000 -0.4852580000 -0.3464100000
      vertex -0.4650000000 -0.1650350000 -0.1241510000
    endloop
  endfacet
  facet normal 0.0000000467 0.8660270528 0.4999971438
    outer loop
      vertex 0.4650000000 0.1900350000 0.0808494000
      vertex 0.4650000000 0.1650350000 0.1241510000
      vertex 1.0000000000 0.1900350000 0.0808493500
    endloop
  endfacet
  facet normal 0.0000000000 0.8660273028 0.4999967108
    outer loop
      vertex 0.4650000000 0.1650350000 0.1241510000
      vertex 1.0000000000 0.1650350000 0.1241510000
      vertex 1.0000000000 0.1900350000 0.0808493500
    endloop
  endfacet
  facet normal 1.0000000000 0.0000000000 0.0000000000
    outer loop
      vertex 0.4650000000 0.1650350000 0.1241510000
      vertex 0.4650000000 0.1900350000 0.0808494000
      vertex 0.4650000000 0.4852580000 0.3464100000
    endloop
  endfacet
  facet normal 1.0000000000 0.0000000000 0.0000000000
    outer loop
      vertex 0.4650000000 0.1900350000 0.0808494000
      vertex 0.4650000000 0.6000000000 0.2740820000
      vertex 0.4650000000 0.4852580000 0.3464100000
    endloop
  endfacet
  facet normal 1.0000000000 0.0000000000 0.0000000000
    outer loop
      vertex 0.4650000000 0.4852580000 0.3464100000
      vertex 0.4650000000 0.6000000000 0.2740820000
      vertex 0.4650000000 0.6000000000 0.3464100000
    endloop
  endfacet
  facet normal 0.0000000000 0.8660270528 -0.4999971438
    outer loop
      vertex 0.1950000000 0.1650350000 -0.1241510000
      vertex 0.1950000000 0.1900350000 -0.0808494000
      vertex 0.4450000000 0.1650350000 -0.1241510000
    endloop
  endfacet
  facet normal 0.0000000000 0.8660270528 -0.4999971438
    outer loop
      vertex 0.1950000000 0.1900350000 -0.0808494000
      vertex 0.4450000000 0.1900350000 -0.0808494000
      vertex 0.4450000000 0.1650350000 -0.1241510000
    endloop
  endfacet
  facet normal 0.0000000000 -0.4263531336 -0.9045568006
    outer loop
      vertex 0.4450000000 0.1900350000 -0.0808494000
      vertex 0.1950000000 0.1900350000 -0.0808494000
      vertex 0.4450000000 0.6000000000 -0.2740820000
    endloop
  endfacet
  facet normal -0.0000000000 -0.4263531336 -0.9045568006
    outer loop
      vertex 0.1950000000 0.1900350000 -0.0808494000
      vertex 0.1950000000 0.6000000000 -0.2740820000
      vertex 0.4450000000 0.6000000000 -0.2740820000
    endloop
  endfacet
  facet normal 1.0000000000 0.0000000000 0.0000000000
    outer loop
      vertex 0.1950000000 0.6000000000 -0.3464100000
      vertex 0.1950000000 0.6000000000 -0.2740820000
      vertex 0.1950000000 0.4852580000 -0.3464100000
    endloop
  endfacet
  facet normal 1.0000000000 0.0000000000 -0.0000000000
    outer loop
      vertex 0.1950000000 0.6000000000 -0.2740820000
      vertex 0.1950000000 0.1900350000 -0.0808494000
      vertex 0.1950000000 0.4852580000 -0.3464100000
    endloop
  endfacet
  facet normal 1.0000000000 -0.0000000000 0.0000000000
    outer loop
      vertex 0.1950000000 0.4852580000 -0.3464100000
      vertex 0.1950000000 0.1900350000 -0.0808494000
      vertex 0.1950000000 0.1650350000 -0.1241510000
    endloop
  endfacet
  facet normal -1.0000000000 0.0000000000 0.0000000000
    outer loop
      vertex 0.4450000000 0.1650350000 -0.1241510000
      vertex 0.4450000000 0.1900350000 -0.0808494000
      vertex 0.4450000000 0.4852580000 -0.3464100000
    endloop
  endfacet
  facet normal -1.0000000000 0.0000000000 0.0000000000
    outer loop
      vertex 0.4450000000 0.1900350000 -0.0808494000
      vertex 0.4450000000 0.6000000000 -0.2740820000
      vertex 0.4450000000 0.4852580000 -0.3464100000
    endloop
  endfacet
  facet normal -1.0000000000 0.0000000000 0.0000000000
    outer loop
      vertex 0.4450000000 0.4852580000 -0.3464100000
      vertex 0.4450000000 0.6000000000 -0.2740820000
      vertex 0.4450000000 0.6000000000 -0.3464100000
    endloop
  endfacet
  facet normal -0.0000000000 0.5701914169 0.8215118673
    outer loop
      vertex 0.4450000000 0.1650350000 -0.1241510000
      vertex 0.4450000000 0.4852580000 -0.3464100000
      vertex 0.1950000000 0.1650350000 -0.1241510000
    endloop
  endfacet
  facet normal 0.0000000000 0.5701914169 0.8215118673
    outer loop
      vertex 0.4450000000 0.4852580000 -0.3464100000
      vertex 0.1950000000 0.4852580000 -0.3464100000
      vertex 0.1950000000 0.1650350000 -0.1241510000
    endloop
  endfacet
  facet normal 0.0000000000 0.8660270528 -0.4999971438
    outer loop
      vertex -0.1750000000 0.1650350000 -0.1241510000
      vertex -0.1750000000 0.1900350000 -0.0808494000
      vertex 0.1750000000 0.1650350000 -0.1241510000
    endloop
  endfacet
  facet normal 0.0000000000 0.8660270528 -0.4999971438
    outer loop
      vertex -0.1750000000 0.1900350000 -0.0808494000
      vertex 0.1750000000 0.1900350000 -0.0808494000
      vertex 0.1750000000 0.1650350000 -0.1241510000
    endloop
  endfacet
  facet normal -1.0000000000 0.0000000000 0.0000000000
    outer loop
      vertex 0.1750000000 0.1650350000 -0.1241510000
      vertex 0.1750000000 0.1900350000 -0.0808494000
      vertex 0.1750000000 0.4852580000 -0.3464100000
    endloop
  endfacet
  facet normal -1.0000000000 0.0000000000 0.0000000000
    outer loop
      vertex 0.1750000000 0.1900350000 -0.0808494000
      vertex 0.1750000000 0.6000000000 -0.2740820000
      vertex 0.1750000000 0.4852580000 -0.3464100000
    endloop
  endfacet
  facet normal -1.0000000000 0.0000000000 0.0000000000
    outer loop
      vertex 0.1750000000 0.4852580000 -0.3464100000
      vertex 0.1750000000 0.6000000000 -0.2740820000
      vertex 0.1750000000 0.6000000000 -0.3464100000
    endloop
  endfacet
  facet normal -0.0000000000 0.5701914169 0.8215118673
    outer loop
      vertex 0.1750000000 0.1650350000 -0.1241510000
      vertex 0.1750000000 0.4852580000 -0.3464100000
      vertex -0.1750000000 0.1650350000 -0.1241510000
    endloop
  endfacet
  facet normal 0.0000000000 0.5701914169 0.8215118673
    outer loop
      vertex 0.1750000000 0.4852580000 -0.3464100000
      vertex -0.1750000000 0.4852580000 -0.3464100000
      vertex -0.1750000000 0.1650350000 -0.1241510000
    endloop
  endfacet
  facet normal -0.0000000000 0.5701914169 0.8215118673
    outer loop
      vertex -0.1950000000 0.1650350000 -0.1241510000
      vertex -0.1950000000 0.4852580000 -0.3464100000
      vertex -0.4450000000 0.1650350000 -0.1241510000
    endloop
  endfacet
  facet normal 0.0000000000 0.5701914169 0.8215118673
    outer loop
      vertex -0.1950000000 0.4852580000 -0.3464100000
      vertex -0.4450000000 0.4852580000 -0.3464100000
      vertex -0.4450000000 0.1650350000 -0.1241510000
    endloop
  endfacet
  facet normal 1.0000000000 0.0000000000 0.0000000000
    outer loop
      vertex -0.4450000000 0.6000000000 -0.3464100000
      vertex -0.4450000000 0.6000000000 -0.2740820000
      vertex -0.4450000000 0.4852580000 -0.3464100000
    endloop
  endfacet
  facet normal 1.0000000000 0.0000000000 -0.0000000000
    outer loop
      vertex -0.4450000000 0.6000000000 -0.2740820000
      vertex -0.4450000000 0.1900350000 -0.0808494000
      vertex -0.4450000000 0.4852580000 -0.3464100000
    endloop
  endfacet
  facet normal 1.0000000000 -0.0000000000 0.0000000000
    outer loop
      vertex -0.4450000000 0.4852580000 -0.3464100000
      vertex -0.4450000000 0.1900350000 -0.0808494000
      vertex -0.4450000000 0.1650350000 -0.1241510000
    endloop
  endfacet
  facet normal -1.0000000000 0.0000000000 0.0000000000
    outer loop
      vertex -0.1950000000 0.1650350000 -0.1241510000
      vertex -0.1950000000 0.1900350000 -0.0808494000
      vertex -0.1950000000 0.4852580000 -0.3464100000
    endloop
  endfacet
  facet normal -1.0000000000 0.0000000000 0.0000000000
    outer loop
      vertex -0.1950000000 0.1900350000 -0.0808494000
      vertex -0.1950000000 0.6000000000 -0.2740820000
      vertex -0.1950000000 0.4852580000 -0.3464100000
    endloop
  endfacet
  facet normal -1.0000000000 0.0000000000 0.0000000000
    outer loop
      vertex -0.1950000000 0.4852580000 -0.3464100000
      vertex -0.1950000000 0.6000000000 -0.2740820000
      vertex -0.1950000000 0.6000000000 -0.3464100000
    endloop
  endfacet
  facet normal 0.0000000000 0.8660270528 -0.4999971438
    outer loop
      vertex -0.4450000000 0.1650350000 -0.1241510000
      vertex -0.4450000000 0.1900350000 -0.0808494000
      vertex -0.1950000000 0.1650350000 -0.1241510000
    endloop
  endfacet
  facet normal 0.0000000000 0.8660270528 -0.4999971438
    outer loop
      vertex -0.4450000000 0.1900350000 -0.0808494000
      vertex -0.1950000000 0.1900350000 -0.0808494000
      vertex -0.1950000000 0.1650350000 -0.1241510000
    endloop
  endfacet
  facet normal 0.0000000000 -0.4263531336 -0.9045568006
    outer loop
      vertex -0.1950000000 0.1900350000 -0.0808494000
      vertex -0.4450000000 0.1900350000 -0.0808494000
      vertex -0.1950000000 0.6000000000 -0.2740820000
    endloop
  endfacet
  facet normal -0.0000000000 -0.4263531336 -0.9045568006
    outer loop
      vertex -0.4450000000 0.1900350000 -0.0808494000
      vertex -0.4450000000 0.6000000000 -0.2740820000
      vertex -0.1950000000 0.6000000000 -0.2740820000
    endloop
  endfacet
  facet normal -0.0000000000 0.8660270528 0.4999971438
    outer loop
      vertex -0.1950000000 0.1650350000 0.1241510000
      vertex -0.1950000000 0.1900350000 0.0808494000
      vertex -0.4450000000 0.1650350000 0.1241510000
    endloop
  endfacet
  facet normal 0.0000000000 0.8660270528 0.4999971438
    outer loop
      vertex -0.1950000000 0.1900350000 0.0808494000
      vertex -0.4450000000 0.1900350000 0.0808494000
      vertex -0.4450000000 0.1650350000 0.1241510000
    endloop
  endfacet
  facet normal 0.0000000000 -0.4263531336 0.9045568006
    outer loop
      vertex -0.4450000000 0.1900350000 0.0808494000
      vertex -0.1950000000 0.1900350000 0.0808494000
      vertex -0.4450000000 0.6000000000 0.2740820000
    endloop
  endfacet
  facet normal 0.0000000000 -0.4263531336 0.9045568006
    outer loop
      vertex -0.1950000000 0.1900350000 0.0808494000
      vertex -0.1950000000 0.6000000000 0.2740820000
      vertex -0.4450000000 0.6000000000 0.2740820000
    endloop
  endfacet
  facet normal -1.0000000000 0.0000000000 0.0000000000
    outer loop
      vertex -0.1950000000 0.6000000000 0.3464100000
      vertex -0.1950000000 0.6000000000 0.2740820000
      vertex -0.1950000000 0.4852580000 0.3464100000
    endloop
  endfacet
  facet normal -1.0000000000 0.0000000000 -0.0000000000
    outer loop
      vertex -0.1950000000 0.6000000000 0.2740820000
      vertex -0.1950000000 0.1900350000 0.0808494000
      vertex -0.1950000000 0.4852580000 0.3464100000
    endloop
  endfacet
  facet normal -1.0000000000 0.0000000000 0.0000000000
    outer loop
      vertex -0.1950000000 0.4852580000 0.3464100000
      vertex -0.1950000000 0.1900350000 0.0808494000
      vertex -0.1950000000 0.1650350000 0.1241510000
    endloop
  endfacet
  facet normal 1.0000000000 0.0000000000 0.0000000000
    outer loop
      vertex -0.4450000000 0.1650350000 0.1241510000
      vertex -0.4450000000 0.1900350000 0.0808494000
      vertex -0.4450000000 0.4852580000 0.3464100000
    endloop
  endfacet
  facet normal 1.0000000000 0.0000000000 0.0000000000
    outer loop
      vertex -0.4450000000 0.1900350000 0.0808494000
      vertex -0.4450000000 0.6000000000 0.2740820000
      vertex -0.4450000000 0.4852580000 0.3464100000
    endloop
  endfacet
  facet normal 1.0000000000 0.0000000000 0.0000000000
    outer loop
      vertex -0.4450000000 0.4852580000 0.3464100000
      vertex -0.4450000000 0.6000000000 0.2740820000
      vertex -0.4450000000 0.6000000000 0.3464100000
    endloop
  endfacet
  facet normal 0.0000000000 0.5701914169 -0.8215118673
    outer loop
      vertex -0.1950000000 0.1650350000 0.1241510000
      vertex -0.4450000000 0.1650350000 0.1241510000
      vertex -0.1950000000 0.4852580000 0.3464100000
    endloop
  endfacet
  facet normal 0.0000000000 0.5701914169 -0.8215118673
    outer loop
      vertex -0.4450000000 0.1650350000 0.1241510000
      vertex -0.4450000000 0.4852580000 0.3464100000
      vertex -0.1950000000 0.4852580000 0.3464100000
    endloop
  endfacet
  facet normal -0.0000000000 0.8660270528 0.4999971438
    outer loop
      vertex 0.1750000000 0.1650350000 0.1241510000
      vertex 0.1750000000 0.1900350000 0.0808494000
      vertex -0.1750000000 0.1650350000 0.1241510000
    endloop
  endfacet
  facet normal 0.0000000000 0.8660270528 0.4999971438
    outer loop
      vertex 0.1750000000 0.1900350000 0.0808494000
      vertex -0.1750000000 0.1900350000 0.0808494000
      vertex -0.1750000000 0.1650350000 0.1241510000
    endloop
  endfacet
  facet normal 0.0000000000 -0.4263531336 0.9045568006
    outer loop
      vertex -0.1750000000 0.1900350000 0.0808494000
      vertex 0.1750000000 0.1900350000 0.0808494000
      vertex -0.1750000000 0.6000000000 0.2740820000
    endloop
  endfacet
  facet normal 0.0000000000 -0.4263531336 0.9045568006
    outer loop
      vertex 0.1750000000 0.1900350000 0.0808494000
      vertex 0.1750000000 0.6000000000 0.2740820000
      vertex -0.1750000000 0.6000000000 0.2740820000
    endloop
  endfacet
  facet normal -1.0000000000 0.0000000000 0.0000000000
    outer loop
      vertex 0.1750000000 0.6000000000 0.3464100000
      vertex 0.1750000000 0.6000000000 0.2740820000
      vertex 0.1750000000 0.4852580000 0.3464100000
    endloop
  endfacet
  facet normal -1.0000000000 0.0000000000 -0.0000000000
    outer loop
      vertex 0.1750000000 0.6000000000 0.2740820000
      vertex 0.1750000000 0.1900350000 0.0808494000
      vertex 0.1750000000 0.4852580000 0.3464100000
    endloop
  endfacet
  facet normal -1.0000000000 0.0000000000 0.0000000000
    outer loop
      vertex 0.1750000000 0.4852580000 0.3464100000
      vertex 0.1750000000 0.1900350000 0.0808494000
      vertex 0.1750000000 0.1650350000 0.1241510000
    endloop
  endfacet
  facet normal 1.0000000000 0.0000000000 0.0000000000
    outer loop
      vertex -0.1750000000 0.1650350000 0.1241510000
      vertex -0.1750000000 0.1900350000 0.0808494000
      vertex -0.1750000000 0.4852580000 0.3464100000
    endloop
  endfacet
  facet normal 1.0000000000 0.0000000000 0.0000000000
    outer loop
      vertex -0.1750000000 0.1900350000 0.0808494000
      vertex -0.1750000000 0.6000000000 0.2740820000
      vertex -0.1750000000 0.4852580000 0.3464100000
    endloop
  endfacet
  facet normal 1.0000000000 0.0000000000 0.0000000000
    outer loop
      vertex -0.1750000000 0.4852580000 0.3464100000
      vertex -0.1750000000 0.6000000000 0.2740820000
      vertex -0.1750000000 0.6000000000 0.3464100000
    endloop
  endfacet
  facet normal 0.0000000000 0.5701914169 -0.8215118673
    outer loop
      vertex 0.1750000000 0.1650350000 0.1241510000
      vertex -0.1750000000 0.1650350000 0.1241510000
      vertex 0.1750000000 0.4852580000 0.3464100000
    endloop
  endfacet
  facet normal 0.0000000000 0.5701914169 -0.8215118673
    outer loop
      vertex -0.1750000000 0.1650350000 0.1241510000
      vertex -0.1750000000 0.4852580000 0.3464100000
      vertex 0.1750000000 0.4852580000 0.3464100000
    endloop
  endfacet
  facet normal -0.0000000000 0.8660270528 0.4999971438
    outer loop
      vertex 0.4450000000 0.1650350000 0.1241510000
      vertex 0.4450000000 0.1900350000 0.0808494000
      vertex 0.1950000000 0.1650350000 0.1241510000
    endloop
  endfacet
  facet normal 0.0000000000 0.8660270528 0.4999971438
    outer loop
      vertex 0.4450000000 0.1900350000 0.0808494000
      vertex 0.1950000000 0.1900350000 0.0808494000
      vertex 0.1950000000 0.1650350000 0.1241510000
    endloop
  endfacet
  facet normal -1.0000000000 0.0000000000 0.0000000000
    outer loop
      vertex 0.4450000000 0.6000000000 0.3464100000
      vertex 0.4450000000 0.6000000000 0.2740820000
      vertex 0.4450000000 0.4852580000 0.3464100000
    endloop
  endfacet
  facet normal -1.0000000000 0.0000000000 -0.0000000000
    outer loop
      vertex 0.4450000000 0.6000000000 0.2740820000
      vertex 0.4450000000 0.1900350000 0.0808494000
      vertex 0.4450000000 0.4852580000 0.3464100000
    endloop
  endfacet
  facet normal -1.0000000000 0.0000000000 0.0000000000
    outer loop
      vertex 0.4450000000 0.4852580000 0.3464100000
      vertex 0.4450000000 0.1900350000 0.0808494000
      vertex 0.4450000000 0.1650350000 0.1241510000
    endloop
  endfacet
  facet normal 1.0000000000 0.0000000000 0.0000000000
    outer loop
      vertex 0.1950000000 0.1650350000 0.1241510000
      vertex 0.1950000000 0.1900350000 0.0808494000
      vertex 0.1950000000 0.4852580000 0.3464100000
    endloop
  endfacet
  facet normal 1.0000000000 0.0000000000 0.0000000000
    outer loop
      vertex 0.1950000000 0.1900350000 0.0808494000
      vertex 0.1950000000 0.6000000000 0.2740820000
      vertex 0.1950000000 0.4852580000 0.3464100000
    endloop
  endfacet
  facet normal 1.0000000000 0.0000000000 0.0000000000
    outer loop
      vertex 0.1950000000 0.4852580000 0.3464100000
      vertex 0.1950000000 0.6000000000 0.2740820000
      vertex 0.1950000000 0.6000000000 0.3464100000
    endloop
  endfacet
  facet normal 0.0000000000 0.5701914169 -0.8215118673
    outer loop
      vertex 0.4450000000 0.1650350000 0.1241510000
      vertex 0.1950000000 0.1650350000 0.1241510000
      vertex 0.4450000000 0.4852580000 0.3464100000
    endloop
  endfacet
  facet normal 0.0000000000 0.5701914169 -0.8215118673
    outer loop
      vertex 0.1950000000 0.1650350000 0.1241510000
      vertex 0.1950000000 0.4852580000 0.3464100000
      vertex 0.4450000000 0.4852580000 0.3464100000
    endloop
  endfacet
  facet normal 0.0000000000 -0.4263531336 0.9045568006
    outer loop
      vertex 0.1950000000 0.1900350000 0.0808494000
      vertex 0.4450000000 0.1900350000 0.0808494000
      vertex 0.1950000000 0.6000000000 0.2740820000
    endloop
  endfacet
  facet normal 0.0000000000 -0.4263531336 0.9045568006
    outer loop
      vertex 0.4450000000 0.1900350000 0.0808494000
      vertex 0.4450000000 0.6000000000 0.2740820000
      vertex 0.1950000000 0.6000000000 0.2740820000
    endloop
  endfacet
  facet normal 0.0000000000 -0.8660270528 -0.4999971438
    outer loop
      vertex -0.1950000000 -0.1650350000 -0.1241510000
      vertex -0.1950000000 -0.1900350000 -0.0808494000
      vertex -0.4450000000 -0.1650350000 -0.1241510000
    endloop
  endfacet
  facet normal 0.0000000000 -0.8660270528 -0.4999971438
    outer loop
      vertex -0.1950000000 -0.1900350000 -0.0808494000
      vertex -0.4450000000 -0.1900350000 -0.0808494000
      vertex -0.4450000000 -0.1650350000 -0.1241510000
    endloop
  endfacet
  facet normal 0.0000000000 -0.5701914169 0.8215118673
    outer loop
      vertex -0.4450000000 -0.1650350000 -0.1241510000
      vertex -0.4450000000 -0.4852580000 -0.3464100000
      vertex -0.1950000000 -0.1650350000 -0.1241510000
    endloop
  endfacet
  facet normal 0.0000000000 -0.5701914169 0.8215118673
    outer loop
      vertex -0.4450000000 -0.4852580000 -0.3464100000
      vertex -0.1950000000 -0.4852580000 -0.3464100000
      vertex -0.1950000000 -0.1650350000 -0.1241510000
    endloop
  endfacet
  facet normal -1.0000000000 0.0000000000 0.0000000000
    outer loop
      vertex -0.1950000000 -0.6000000000 -0.3464100000
      vertex -0.1950000000 -0.6000000000 -0.2740820000
      vertex -0.1950000000 -0.4852580000 -0.3464100000
    endloop
  endfacet
  facet normal -1.0000000000 0.0000000000 0.0000000000
    outer loop
      vertex -0.1950000000 -0.6000000000 -0.2740820000
      vertex -0.1950000000 -0.1900350000 -0.0808494000
      vertex -0.1950000000 -0.4852580000 -0.3464100000
    endloop
  endfacet
  facet normal -1.0000000000 -0.0000000000 0.0000000000
    outer loop
      vertex -0.1950000000 -0.4852580000 -0.3464100000
      vertex -0.1950000000 -0.1900350000 -0.0808494000
      vertex -0.1950000000 -0.1650350000 -0.1241510000
    endloop
  endfacet
  facet normal 1.0000000000 0.0000000000 0.0000000000
    outer loop
      vertex -0.4450000000 -0.1650350000 -0.1241510000
      vertex -0.4450000000 -0.1900350000 -0.0808494000
      vertex -0.4450000000 -0.4852580000 -0.3464100000
    endloop
  endfacet
  facet normal 1.0000000000 0.0000000000 -0.0000000000
    outer loop
      vertex -0.4450000000 -0.1900350000 -0.0808494000
      vertex -0.4450000000 -0.6000000000 -0.2740820000
      vertex -0.4450000000 -0.4852580000 -0.3464100000
    endloop
  endfacet
  facet normal 1.0000000000 0.0000000000 0.0000000000
    outer loop
      vertex -0.4450000000 -0.4852580000 -0.3464100000
      vertex -0.4450000000 -0.6000000000 -0.2740820000
      vertex -0.4450000000 -0.6000000000 -0.3464100000
    endloop
  endfacet
  facet normal 0.0000000000 0.4263531336 -0.9045568006
    outer loop
      vertex -0.1950000000 -0.1900350000 -0.0808494000
      vertex -0.1950000000 -0.6000000000 -0.2740820000
      vertex -0.4450000000 -0.1900350000 -0.0808494000
    endloop
  endfacet
  facet normal 0.0000000000 0.4263531336 -0.9045568006
    outer loop
      vertex -0.1950000000 -0.6000000000 -0.2740820000
      vertex -0.4450000000 -0.6000000000 -0.2740820000
      vertex -0.4450000000 -0.1900350000 -0.0808494000
    endloop
  endfacet
  facet normal 0.0000000000 -0.8660270528 -0.4999971438
    outer loop
      vertex 0.1750000000 -0.1650350000 -0.1241510000
      vertex 0.1750000000 -0.1900350000 -0.0808494000
      vertex -0.1750000000 -0.1650350000 -0.1241510000
    endloop
  endfacet
  facet normal 0.0000000000 -0.8660270528 -0.4999971438
    outer loop
      vertex 0.1750000000 -0.1900350000 -0.0808494000
      vertex -0.1750000000 -0.1900350000 -0.0808494000
      vertex -0.1750000000 -0.1650350000 -0.1241510000
    endloop
  endfacet
  facet normal 0.0000000000 -0.5701914169 0.8215118673
    outer loop
      vertex -0.1750000000 -0.1650350000 -0.1241510000
      vertex -0.1750000000 -0.4852580000 -0.3464100000
      vertex 0.1750000000 -0.1650350000 -0.1241510000
    endloop
  endfacet
  facet normal 0.0000000000 -0.5701914169 0.8215118673
    outer loop
      vertex -0.1750000000 -0.4852580000 -0.3464100000
      vertex 0.1750000000 -0.4852580000 -0.3464100000
      vertex 0.1750000000 -0.1650350000 -0.1241510000
    endloop
  endfacet
  facet normal -1.0000000000 0.0000000000 0.0000000000
    outer loop
      vertex 0.1750000000 -0.6000000000 -0.3464100000
      vertex 0.1750000000 -0.6000000000 -0.2740820000
      vertex 0.1750000000 -0.4852580000 -0.3464100000
    endloop
  endfacet
  facet normal -1.0000000000 0.0000000000 0.0000000000
    outer loop
      vertex 0.1750000000 -0.6000000000 -0.2740820000
      vertex 0.1750000000 -0.1900350000 -0.0808494000
      vertex 0.1750000000 -0.4852580000 -0.3464100000
    endloop
  endfacet
  facet normal -1.0000000000 -0.0000000000 0.0000000000
    outer loop
      vertex 0.1750000000 -0.4852580000 -0.3464100000
      vertex 0.1750000000 -0.1900350000 -0.0808494000
      vertex 0.1750000000 -0.1650350000 -0.1241510000
    endloop
  endfacet
  facet normal 1.0000000000 0.0000000000 0.0000000000
    outer loop
      vertex -0.1750000000 -0.1650350000 -0.1241510000
      vertex -0.1750000000 -0.1900350000 -0.0808494000
      vertex -0.1750000000 -0.4852580000 -0.3464100000
    endloop
  endfacet
  facet normal 1.0000000000 0.0000000000 -0.0000000000
    outer loop
      vertex -0.1750000000 -0.1900350000 -0.0808494000
      vertex -0.1750000000 -0.6000000000 -0.2740820000
      vertex -0.1750000000 -0.4852580000 -0.3464100000
    endloop
  endfacet
  facet normal 1.0000000000 0.0000000000 0.0000000000
    outer loop
      vertex -0.1750000000 -0.4852580000 -0.3464100000
      vertex -0.1750000000 -0.6000000000 -0.2740820000
      vertex -0.1750000000 -0.6000000000 -0.3464100000
    endloop
  endfacet
  facet normal 0.0000000000 0.4263531336 -0.9045568006
    outer loop
      vertex 0.1750000000 -0.1900350000 -0.0808494000
      vertex 0.1750000000 -0.6000000000 -0.2740820000
      vertex -0.1750000000 -0.1900350000 -0.0808494000
    endloop
  endfacet
  facet normal 0.0000000000 0.4263531336 -0.9045568006
    outer loop
      vertex 0.1750000000 -0.6000000000 -0.2740820000
      vertex -0.1750000000 -0.6000000000 -0.2740820000
      vertex -0.1750000000 -0.1900350000 -0.0808494000
    endloop
  endfacet
endsolid automaticSTL